<?xml version="1.0" encoding="utf-8"?>
<svg viewBox="0 0 500 500" xmlns="http://www.w3.org/2000/svg">
  <g transform="matrix(10.186064, 0, 0, 10.186064, -14.837658, -14.837658)" style="">
    <g>
      <path d="M40.2324219,49.25H11.7675781c-1.378418,0-2.5-1.1210938-2.5-2.5V7.8457031c0-1.3789063,1.121582-2.5,2.5-2.5h28.4648438    c1.378418,0,2.5,1.1210938,2.5,2.5V46.75C42.7324219,48.1289063,41.6108398,49.25,40.2324219,49.25z M11.7675781,6.3457031    c-0.8271484,0-1.5,0.6728516-1.5,1.5V46.75c0,0.8271484,0.6728516,1.5,1.5,1.5h28.4648438c0.8271484,0,1.5-0.6728516,1.5-1.5    V7.8457031c0-0.8271484-0.6728516-1.5-1.5-1.5H11.7675781z"/>
    </g>
    <g>
      <path d="M25.9970703,29.3652344c-2.5507813,0-4.9472656-1.1337891-6.574707-3.1103516    C18.1826172,24.7431641,17.5,22.8310547,17.5,20.8691406c0-4.6816406,3.8120117-8.4902344,8.4970703-8.4902344    C30.6855469,12.3789063,34.5,16.1875,34.5,20.8691406c0,1.9619141-0.6845703,3.8759766-1.9277344,5.390625    C30.9472656,28.2333984,28.5507813,29.3652344,25.9970703,29.3652344z M25.9970703,13.3789063    c-4.1337891,0-7.4970703,3.3603516-7.4970703,7.4902344c0,1.7314453,0.6020508,3.4189453,1.6953125,4.7509766    c1.4360352,1.7441406,3.5507813,2.7451172,5.8017578,2.7451172c2.2539063,0,4.3686523-0.9990234,5.8022461-2.7402344    C32.8959961,24.2890625,33.5,22.5996094,33.5,20.8691406C33.5,16.7392578,30.1342773,13.3789063,25.9970703,13.3789063z"/>
    </g>
    <g>
      <path d="M25.9995117,22.6738281c-1.8652344,0-3.3823242-1.5166016-3.3823242-3.3798828    c0-1.8642578,1.5170898-3.3808594,3.3823242-3.3808594s3.3828125,1.5166016,3.3828125,3.3808594    C29.3823242,21.1572266,27.8647461,22.6738281,25.9995117,22.6738281z M25.9995117,16.9130859    c-1.3134766,0-2.3823242,1.0683594-2.3823242,2.3808594s1.0688477,2.3798828,2.3823242,2.3798828    c1.3139648,0,2.3828125-1.0673828,2.3828125-2.3798828S27.3134766,16.9130859,25.9995117,16.9130859z"/>
    </g>
    <g>
      <path d="M25.9970703,29.3652344c-2.5507813,0-4.9472656-1.1337891-6.574707-3.1103516L19.2128906,26l0.1518555-0.2929688    c1.2890625-2.4873047,3.8305664-4.0322266,6.6323242-4.0322266c2.8095703,0,5.3510742,1.5478516,6.6333008,4.0390625    l0.1503906,0.2919922l-0.2089844,0.2539063C30.9472656,28.2333984,28.5507813,29.3652344,25.9970703,29.3652344z     M20.4140625,25.875c1.4282227,1.5869141,3.4443359,2.4902344,5.5830078,2.4902344    c2.1420898,0,4.1582031-0.9023438,5.5839844-2.4863281c-1.152832-1.984375-3.2626953-3.2041016-5.5839844-3.2041016    C23.6826172,22.6748047,21.5727539,23.8925781,20.4140625,25.875z"/>
    </g>
    <g>
      <g>
        <rect x="14" y="2.75" width="1" height="6.1914063"/>
      </g>
      <g>
        <rect x="18" y="2.75" width="1" height="6.1914063"/>
      </g>
      <g>
        <rect x="33" y="2.75" width="1" height="6.1914063"/>
      </g>
      <g>
        <rect x="37" y="2.75" width="1" height="6.1914063"/>
      </g>
    </g>
    <g>
      <path d="M35.1342773,34.3603516h-18.269043c-0.2763672,0-0.5-0.2236328-0.5-0.5s0.2236328-0.5,0.5-0.5h18.269043    c0.2763672,0,0.5,0.2236328,0.5,0.5S35.4106445,34.3603516,35.1342773,34.3603516z"/>
    </g>
    <g>
      <path d="M32.1855469,39.3564453h-12.371582c-0.2763672,0-0.5-0.2236328-0.5-0.5s0.2236328-0.5,0.5-0.5h12.371582    c0.2763672,0,0.5,0.2236328,0.5,0.5S32.4619141,39.3564453,32.1855469,39.3564453z"/>
    </g>
    <g>
      <path d="M35.1342773,44.3515625h-18.269043c-0.2763672,0-0.5-0.2236328-0.5-0.5s0.2236328-0.5,0.5-0.5h18.269043    c0.2763672,0,0.5,0.2236328,0.5,0.5S35.4106445,44.3515625,35.1342773,44.3515625z"/>
    </g>
  </g>
</svg>