<?xml version="1.0" encoding="utf-8"?>
<svg data-name="Layer 1" viewBox="0 0 100 100" x="0px" y="0px" xmlns="http://www.w3.org/2000/svg">
  <path fill-rule="evenodd" clip-rule="evenodd" d="M 50.001 96.278 C 37.221 96.278 25.651 91.098 17.277 82.724 C 8.902 74.349 3.722 62.78 3.722 50.002 C 3.722 37.222 8.902 25.651 17.276 17.277 C 25.651 8.902 37.221 3.722 50.001 3.722 C 62.78 3.722 74.349 8.903 82.723 17.277 C 91.097 25.652 96.277 37.222 96.277 50.002 C 96.277 62.78 91.097 74.35 82.723 82.723 C 74.348 91.098 62.779 96.278 50.001 96.278 Z M 19.889 80.111 C 27.594 87.815 38.241 92.582 50 92.582 C 61.759 92.582 72.405 87.815 80.109 80.111 C 87.814 72.406 92.58 61.76 92.58 50.002 C 92.58 38.242 87.815 27.595 80.11 19.89 C 72.405 12.184 61.76 7.418 50.001 7.418 C 38.241 7.418 27.594 12.184 19.889 19.89 C 12.183 27.595 7.418 38.241 7.418 50.002 C 7.418 61.761 12.183 72.406 19.889 80.111 Z M 67.231 48.153 L 51.847 48.153 L 51.847 32.768 C 51.847 31.748 51.019 30.92 49.999 30.92 C 48.979 30.92 48.151 31.747 48.151 32.768 L 48.151 48.153 L 32.768 48.153 C 31.748 48.153 30.92 48.98 30.92 50.001 C 30.92 51.022 31.748 51.849 32.768 51.849 L 48.152 51.849 L 48.152 67.232 C 48.152 68.253 48.98 69.08 50 69.08 C 51.02 69.08 51.848 68.253 51.848 67.232 L 51.848 51.848 L 67.231 51.848 C 68.251 51.848 69.079 51.021 69.079 50.001 C 69.078 48.98 68.25 48.153 67.231 48.153 Z" style=""/>
</svg>