<?xml version="1.0" encoding="utf-8"?>
<svg xmlns="http://www.w3.org/2000/svg" viewBox="0 0 500 500">
  <path d="M 290.685 415.179 L 280.774 447.937 L 355.418 471.308 L 356.15 449.806 L 290.685 415.179 Z M 295.582 290.441 C 293.355 307.466 288.941 349.843 279.164 387.259 C 267.436 432.142 250.136 471.392 248.422 471.392 C 245.238 471.392 237.981 451.139 234.222 442.535 C 234.637 441.439 227.065 423.636 217.905 382.268 C 210.666 349.578 205.467 309.347 203.467 293.052 C 200.94 272.531 198.412 247.439 197.389 226.888 L 196.867 141.34 C 197.514 130.124 198.538 119.358 199.885 109.156 C 206.495 59.762 221.377 25.167 248.422 25.167 C 277.055 25.167 292.679 58.822 299.571 107.161 C 301.295 119.318 302.474 132.288 303.121 145.915 L 302.673 214.073 C 301.326 239.365 298.882 265.263 295.582 290.441 Z M 295.905 395.389 L 371 435.083 C 374.268 436.796 376.429 440.262 376.305 444.22 C 376.106 449.932 375.323 484.894 374.467 487.704 C 372.838 492.967 367.25 495.912 361.987 494.272 L 271.636 466.003 C 255.075 499.451 241.813 499.985 225.25 466.044 L 135.068 494.272 C 128.865 496.194 122.128 491.87 122.128 484.487 L 120.749 444.261 C 120.625 440.347 122.787 436.836 126.045 435.124 L 201.64 395.192 C 190.006 347.835 182.258 294.273 178.466 242.508 L 35.903 302.23 C 29.053 305.082 21.221 299.494 22.119 291.871 L 28.072 242.185 L 28.113 242.185 C 28.437 239.449 29.91 236.839 32.353 235.167 L 177.245 135.596 C 181.162 77.389 196.052 5.272 248.422 5.272 C 303.289 5.272 318.63 77.106 322.461 135.441 L 467.636 235.178 C 470.089 236.849 471.551 239.46 471.886 242.185 L 471.917 242.185 L 477.88 291.871 C 478.777 299.548 470.988 305.133 464.086 302.23 L 320.738 242.112 C 316.499 294.241 308.133 347.886 295.905 395.411 L 295.905 395.389 Z M 452.63 248.953 L 323.526 160.231 C 323.975 180.834 323.202 200.497 322.503 221.175 L 455.97 277.189 L 452.63 248.953 Z M 258.416 406.73 L 258.416 362.349 C 258.416 349.223 238.43 349.223 238.43 362.349 L 238.43 406.73 C 238.43 419.869 258.416 419.869 258.416 406.73 Z M 216.238 447.937 L 206.327 415.179 L 140.852 449.806 L 141.583 471.308 L 216.238 447.937 Z M 177.119 221.342 C 176.054 201.104 175.647 180.385 176.138 160.44 L 47.359 248.953 L 43.975 277.221 L 177.119 221.342 Z" fill-rule="evenodd" style=""/>
</svg>