<?xml version="1.0" encoding="utf-8"?>
<svg viewBox="0 0 500 500" xmlns="http://www.w3.org/2000/svg">
  <defs/>
  <title>Ethereum icon</title>
  <path d="M 11.916 0.023 C 5.351 0.023 0.02 5.331 0.02 11.919 L 0.02 107.156 C 0.02 113.738 5.351 119.052 11.916 119.052 C 18.475 119.052 23.812 113.738 23.812 107.156 L 23.812 23.838 L 107.13 23.838 C 113.69 23.838 119.026 18.524 119.026 11.942 C 119.026 5.354 113.69 0.046 107.13 0.046 L 11.893 0.046 L 11.916 0.023 Z M 392.841 0.023 C 386.276 0.023 380.945 5.331 380.945 11.919 C 380.945 18.501 386.276 23.815 392.841 23.815 L 476.159 23.815 L 476.159 107.133 C 476.159 113.715 481.49 119.029 488.055 119.029 C 494.615 119.029 499.951 113.715 499.951 107.133 L 499.951 11.896 C 499.951 5.308 494.615 0 488.055 0 L 392.818 0 L 392.841 0.023 Z M 95.257 83.341 C 88.675 83.341 83.361 88.672 83.361 95.237 L 83.361 404.74 C 83.361 411.3 88.675 416.636 95.257 416.636 L 404.76 416.636 C 411.342 416.636 416.656 411.3 416.656 404.74 L 416.656 95.237 C 416.656 88.672 411.342 83.341 404.76 83.341 L 95.257 83.341 Z M 107.153 107.156 L 392.841 107.156 L 392.841 237.121 L 352.668 204.998 C 347.937 201.204 341.103 201.587 336.818 205.873 L 282.874 259.771 L 209.532 204.736 C 204.91 201.273 198.482 201.633 194.265 205.581 L 107.153 287.048 L 107.153 107.156 Z M 273.812 130.971 C 254.105 130.971 238.101 146.969 238.101 166.682 C 238.101 186.389 254.105 202.393 273.812 202.393 C 293.519 202.393 309.523 186.389 309.523 166.682 C 309.523 146.969 293.519 130.971 273.812 130.971 Z M 273.812 154.786 C 280.372 154.786 285.708 160.117 285.708 166.682 C 285.708 173.241 280.372 178.578 273.812 178.578 C 267.247 178.578 261.916 173.241 261.916 166.682 C 261.916 160.117 267.247 154.786 273.812 154.786 Z M 203.219 229.825 L 392.847 372.023 L 392.847 392.867 L 107.159 392.867 L 107.159 319.662 L 203.219 229.825 Z M 346.108 230.27 L 392.847 267.656 L 392.847 342.289 L 302.118 274.261 L 346.108 230.27 Z M 11.922 380.971 C 5.357 380.971 0.026 386.279 0.026 392.867 L 0.026 488.104 C 0.026 494.686 5.357 500 11.922 500 L 107.159 500 C 113.718 500 119.055 494.686 119.055 488.104 C 119.055 481.516 113.718 476.208 107.159 476.208 L 23.841 476.208 L 23.841 392.89 C 23.841 386.302 18.504 380.994 11.945 380.994 L 11.922 380.971 Z M 488.061 380.971 C 481.496 380.971 476.165 386.279 476.165 392.867 L 476.165 476.185 L 392.847 476.185 C 386.282 476.185 380.951 481.493 380.951 488.081 C 380.951 494.663 386.282 499.977 392.847 499.977 L 488.084 499.977 C 494.643 499.977 499.98 494.663 499.98 488.081 L 499.98 392.844 C 499.98 386.256 494.643 380.948 488.084 380.948 L 488.061 380.971 Z" fill-rule="evenodd"/>
</svg>