<?xml version="1.0" encoding="utf-8"?>
<svg viewBox="0 0 500 500" xmlns="http://www.w3.org/2000/svg">
  <defs/>
  <title>Ethereum icon</title>
  <path d="M 495.371 310.957 L 472.117 269.75 C 467.843 262.309 461.091 256.755 453.223 254.101 L 453.223 253.674 C 453.223 152.618 362.087 70.461 250 70.461 C 137.913 70.461 46.777 152.624 46.777 253.674 L 46.777 254.101 C 38.914 256.755 32.157 262.309 27.883 269.75 L 4.629 310.957 C -1.614 321.9 -1.527 334.896 4.798 345.751 C 11.124 356.613 22.412 363.025 34.98 363.025 L 63.022 363.025 C 63.362 364.393 63.876 365.674 64.817 366.872 L 86.107 392.862 C 87.727 394.827 90.211 395.938 92.772 395.938 L 113.378 395.938 C 113.378 396.364 113.635 396.709 113.805 397.048 L 129.109 425.091 C 130.647 427.826 133.47 429.539 136.633 429.539 L 363.367 429.539 C 366.53 429.539 369.353 427.826 370.891 425.091 L 386.195 397.048 C 386.365 396.709 386.622 396.364 386.622 395.938 L 407.228 395.938 C 409.789 395.938 412.268 394.827 413.893 392.862 L 435.183 366.872 C 436.124 365.674 436.638 364.393 436.978 363.025 L 465.02 363.025 C 477.588 363.025 488.871 356.613 495.202 345.751 C 501.527 334.896 501.614 321.9 495.371 310.957 Z M 250 87.56 C 351.997 87.56 435.095 161.258 436.037 252.049 L 317.367 252.049 L 333.355 203.576 C 333.7 202.717 333.782 201.781 333.782 200.922 C 333.782 154.67 296.252 117.052 250 117.052 C 203.753 117.052 166.218 154.67 166.218 200.922 C 166.218 201.781 166.305 202.717 166.645 203.576 L 182.633 252.049 L 63.963 252.049 C 64.905 161.252 148.003 87.56 250 87.56 Z M 316.689 199.56 L 300.104 249.915 C 299.847 250.599 299.759 251.283 299.677 252.055 L 200.334 252.055 C 200.246 251.283 200.164 250.599 199.907 249.915 L 183.322 199.56 C 184.006 163.397 213.668 134.157 250.011 134.157 C 286.348 134.157 316.01 163.397 316.7 199.56 L 316.689 199.56 Z M 358.328 412.44 L 141.683 412.44 L 132.616 395.938 L 367.384 395.938 L 358.328 412.44 Z M 403.212 378.839 L 96.799 378.839 L 83.804 363.025 L 416.207 363.025 L 403.212 378.839 Z M 480.412 337.117 C 477.162 342.676 471.433 345.927 465.02 345.927 L 34.98 345.927 C 28.567 345.927 22.838 342.676 19.594 337.117 C 16.344 331.563 16.344 324.981 19.506 319.334 L 42.848 278.215 C 45.923 272.655 51.909 269.154 58.322 269.154 L 441.678 269.154 C 448.091 269.154 454.071 272.655 457.152 278.215 L 480.488 319.334 C 483.656 324.981 483.656 331.563 480.406 337.117 L 480.412 337.117 Z"/>
  <path d="M 250 340.05 C 232.857 340.05 218.905 326.092 218.905 308.949 C 218.905 291.812 232.857 277.854 250 277.854 C 267.143 277.854 281.101 291.812 281.101 308.949 C 281.101 326.092 267.143 340.05 250 340.05 Z M 250 294.952 C 242.285 294.952 236.003 301.234 236.003 308.949 C 236.003 316.691 242.285 322.951 250 322.951 C 257.715 322.951 264.002 316.67 264.002 308.949 C 264.002 301.212 257.715 294.952 250 294.952 Z"/>
  <path d="M 335.112 340.05 C 317.969 340.05 304.016 326.092 304.016 308.949 C 304.016 291.812 317.969 277.854 335.112 277.854 C 352.254 277.854 366.213 291.812 366.213 308.949 C 366.213 326.092 352.254 340.05 335.112 340.05 Z M 335.112 294.952 C 327.397 294.952 321.115 301.234 321.115 308.949 C 321.115 316.691 327.397 322.951 335.112 322.951 C 342.827 322.951 349.114 316.67 349.114 308.949 C 349.114 301.212 342.827 294.952 335.112 294.952 Z"/>
  <path d="M 420.218 340.05 C 403.075 340.05 389.122 326.092 389.122 308.949 C 389.122 291.812 403.075 277.854 420.218 277.854 C 437.361 277.854 451.319 291.812 451.319 308.949 C 451.319 326.092 437.361 340.05 420.218 340.05 Z M 420.218 294.952 C 412.503 294.952 406.221 301.234 406.221 308.949 C 406.221 316.691 412.503 322.951 420.218 322.951 C 427.933 322.951 434.22 316.67 434.22 308.949 C 434.22 301.212 427.933 294.952 420.218 294.952 Z"/>
  <path d="M 79.782 340.05 C 62.639 340.05 48.687 326.092 48.687 308.949 C 48.687 291.812 62.639 277.854 79.782 277.854 C 96.925 277.854 110.883 291.812 110.883 308.949 C 110.883 326.092 96.925 340.05 79.782 340.05 Z M 79.782 294.952 C 72.067 294.952 65.785 301.234 65.785 308.949 C 65.785 316.691 72.067 322.951 79.782 322.951 C 87.497 322.951 93.784 316.67 93.784 308.949 C 93.784 301.212 87.497 294.952 79.782 294.952 Z"/>
  <path d="M 164.888 340.05 C 147.746 340.05 133.793 326.092 133.793 308.949 C 133.793 291.812 147.746 277.854 164.888 277.854 C 182.031 277.854 195.989 291.812 195.989 308.949 C 195.989 326.092 182.031 340.05 164.888 340.05 Z M 164.888 294.952 C 157.173 294.952 150.892 301.234 150.892 308.949 C 150.892 316.691 157.173 322.951 164.888 322.951 C 172.603 322.951 178.89 316.67 178.89 308.949 C 178.89 301.212 172.603 294.952 164.888 294.952 Z"/>
  <path d="M 232.365 210.952 C 230.379 210.952 228.37 210.268 226.745 208.856 L 203.425 188.529 C 199.88 185.432 199.491 180.026 202.593 176.475 C 205.712 172.929 211.102 172.546 214.648 175.643 L 237.968 195.97 C 241.513 199.067 241.896 204.473 238.799 208.024 C 237.109 209.967 234.74 210.952 232.343 210.952 L 232.365 210.952 Z"/>
  <path d="M 267.635 210.952 C 265.244 210.952 262.869 209.967 261.179 208.024 C 258.082 204.473 258.443 199.067 262.016 195.97 L 285.331 175.643 C 288.904 172.546 294.31 172.929 297.39 176.475 C 300.487 180.026 300.126 185.432 296.553 188.529 L 273.238 208.856 C 271.613 210.268 269.599 210.952 267.613 210.952 L 267.635 210.952 Z"/>
</svg>