<?xml version="1.0" encoding="utf-8"?>
<svg viewBox="0 0 500 500" xmlns="http://www.w3.org/2000/svg">
  <defs />
  <title>Ethereum icon</title>
  <path class="cls-1"
    d="M 494.279 479.591 L 358.022 243.167 L 294.111 132.334 L 221.755 6.821 C 216.508 -2.271 203.387 -2.274 198.136 6.815 C 198.135 6.818 198.134 6.819 198.134 6.821 L 61.558 242.991 L 5.752 339.496 C 0.494 348.591 7.055 359.966 17.56 359.971 C 17.561 359.971 17.561 359.971 17.562 359.971 L 122.985 360.037 C 127.856 360.037 132.359 357.443 134.806 353.231 L 189.59 258.463 L 197.969 243.97 C 198.299 243.41 198.666 242.875 199.069 242.364 C 205.042 234.779 216.789 235.627 221.612 243.992 L 278.463 342.608 L 288.987 360.829 C 289.56 361.839 290.009 362.912 290.328 364.029 C 292.712 372.727 286.152 381.304 277.133 381.282 L 153.115 381.206 C 148.242 381.206 143.739 383.798 141.294 388.012 L 88.511 479.283 C 83.253 488.368 89.804 499.737 100.3 499.747 C 100.303 499.747 100.307 499.747 100.31 499.747 L 209.603 499.824 L 345.882 499.912 L 482.436 500 C 492.913 500.007 499.484 488.684 494.279 479.591 Z" />
</svg>