<?xml version="1.0" encoding="utf-8"?>
<svg viewBox="0 0 500 500" xmlns="http://www.w3.org/2000/svg">
  <defs />
  <path fill="rgb(240, 42, 148)" fill-rule="evenodd"
    d="M 250 500 C 388.075 500 500 388.075 500 250 C 500 111.925 388.075 0 250 0 C 111.925 0 0 111.925 0 250 C 0 388.075 111.925 500 250 500 Z M 341.675 134.5 C 345.775 129.15 351.925 125.75 358.625 125.1 C 365.3 124.55 371.9 126.875 376.75 131.45 C 381.85 136.25 384.925 142.8 385.35 149.775 C 385.85 156.9 383.675 163.925 379.35 169.325 L 223.35 365.65 C 218.925 371.375 212.175 374.8 204.925 375 L 204.55 375 C 197.475 374.95 190.775 371.775 186.25 366.3 L 110.675 277.05 C 101.45 265.9 102.125 249.55 112.25 239.2 C 122.125 229.225 138.475 230.025 147.3 240.925 L 203.95 307.825 L 341.675 134.475 L 341.675 134.5 Z"
    clip-rule="evenodd" />
  <path fill="#fff" fill-rule="evenodd"
    d="M 358.625 125.1 C 351.925 125.75 345.8 129.15 341.675 134.475 L 203.975 307.825 L 147.3 240.925 C 138.475 230.025 122.125 229.225 112.25 239.2 C 102.125 249.55 101.45 265.9 110.675 277.05 L 186.25 366.3 C 190.775 371.775 197.475 374.95 204.55 375 L 204.925 375 C 212.175 374.825 218.95 371.375 223.375 365.65 L 379.325 169.325 C 383.675 163.925 385.825 156.9 385.35 149.775 C 384.925 142.8 381.85 136.25 376.75 131.45 C 371.9 126.875 365.3 124.55 358.625 125.1 Z"
    clip-rule="evenodd" />
</svg>