<?xml version="1.0" encoding="utf-8"?>
<svg viewBox="0 0 500 500" xmlns="http://www.w3.org/2000/svg">
  <defs/>
  <path d="M 499.353 249.995 C 499.278 183.708 472.915 120.179 426.045 73.308 C 379.165 26.428 315.645 0.075 249.358 0 C -82.294 13.713 -82.219 486.325 249.358 500 C 315.645 499.925 379.174 473.562 426.045 426.692 C 472.915 379.812 499.278 316.292 499.353 250.005 L 499.353 249.995 Z M 249.358 470.588 C 190.864 470.513 134.798 447.275 93.442 405.92 C 52.078 364.555 28.849 308.489 28.774 250.005 C 40.868 -42.645 457.894 -42.569 469.951 250.005 C 469.875 308.499 446.638 364.565 405.282 405.92 C 363.918 447.275 307.852 470.513 249.367 470.588 L 249.358 470.588 Z"/>
  <path d="M 358.44 187.087 C 357.847 135.36 313.48 104.141 264.068 109.478 L 264.068 88.226 C 264.068 84.329 262.525 80.584 259.767 77.826 C 257.009 75.068 253.254 73.515 249.358 73.515 C 229.951 74.259 235.353 96.678 234.656 109.478 L 170.722 109.478 C 166.751 109.515 162.995 111.162 160.275 114.033 C 157.555 116.904 156.087 120.762 156.238 124.696 C 156.379 128.668 158.111 132.376 161.019 135.068 C 163.918 137.713 167.814 139.106 171.748 138.889 L 171.748 361.092 L 154.986 361.092 C 146.864 361.092 140.275 367.671 140.275 375.793 C 140.275 383.925 146.864 390.504 154.986 390.504 L 234.656 390.504 L 234.656 411.755 C 234.76 419.802 241.311 426.24 249.358 426.24 C 257.414 426.24 263.955 419.802 264.068 411.755 L 264.068 390.504 L 280.793 390.504 C 314.327 390.212 343.842 368.442 354.101 336.527 C 364.322 304.621 352.962 269.732 325.904 249.986 C 346.271 235.501 358.365 212.085 358.44 187.087 Z M 329.028 312.894 C 328.991 339.511 307.409 361.092 280.793 361.092 L 201.16 361.092 L 201.16 264.696 L 280.793 264.696 C 307.409 264.734 328.991 286.278 329.028 312.894 Z M 280.793 235.285 L 201.16 235.285 L 201.16 138.889 L 280.793 138.889 C 307.221 139.144 328.511 160.649 328.511 187.087 C 328.511 213.525 307.221 235.031 280.793 235.285 Z"/>
</svg>