<?xml version="1.0" encoding="utf-8"?>
<svg viewBox="0 0 500 500" xmlns="http://www.w3.org/2000/svg">
  <defs/>
  <path d="M 465.625 44.372 L 34.375 44.372 C 15.431 44.372 0 59.803 0 78.747 L 0 421.253 C 0 440.203 15.431 455.628 34.375 455.628 L 465.625 455.628 C 484.575 455.628 500 440.203 500 421.253 L 500 78.747 C 500 59.803 484.575 44.372 465.625 44.372 Z M 481.25 421.228 C 481.25 429.847 474.244 436.853 465.625 436.853 L 34.375 436.853 C 25.756 436.853 18.75 429.847 18.75 421.228 L 18.75 164.853 L 481.25 164.853 L 481.25 421.228 Z M 481.25 146.103 L 18.75 146.103 L 18.75 78.722 C 18.75 70.109 25.756 63.097 34.375 63.097 L 465.625 63.097 C 474.244 63.097 481.25 70.109 481.25 78.722 L 481.25 146.103 Z"/>
  <path d="M 60.013 88.922 C 51.325 88.922 44.269 95.978 44.269 104.622 C 44.269 113.316 51.325 120.372 60.013 120.372 C 68.706 120.372 75.713 113.316 75.713 104.622 C 75.713 96.003 68.706 88.922 60.013 88.922 Z"/>
  <path d="M 103.881 88.922 C 95.194 88.922 88.138 95.978 88.138 104.622 C 88.138 113.316 95.194 120.372 103.881 120.372 C 112.575 120.372 119.631 113.316 119.631 104.622 C 119.631 96.003 112.575 88.922 103.881 88.922 Z"/>
  <path d="M 147.756 88.922 C 139.069 88.922 132.063 95.978 132.063 104.622 C 132.063 113.316 139.069 120.372 147.756 120.372 C 156.45 120.372 163.506 113.316 163.506 104.622 C 163.506 96.003 156.45 88.922 147.756 88.922 Z"/>
  <path d="M 250 414.416 C 312.625 414.416 363.575 363.491 363.575 300.841 C 363.575 238.216 312.65 187.266 250 187.266 C 187.375 187.266 136.425 238.197 136.425 300.841 C 136.425 363.466 187.356 414.416 250 414.416 Z M 250 395.666 C 243.631 395.666 233.375 377.116 228.056 344.984 L 271.925 344.984 C 266.606 377.116 256.375 395.666 249.975 395.666 L 250 395.666 Z M 344.825 300.866 C 344.825 309.684 343.506 318.103 341.262 326.234 L 293.019 326.234 C 293.706 317.859 294.144 309.366 294.144 300.866 C 294.144 292.372 293.706 283.878 293.019 275.503 L 341.262 275.503 C 343.506 283.634 344.825 292.053 344.825 300.866 Z M 333.819 256.728 L 290.875 256.728 C 288.112 238.734 283.694 222.403 277.569 210.172 C 301.931 217.616 322.125 234.609 333.819 256.728 Z M 290.875 344.984 L 333.819 344.984 C 322.125 367.103 301.931 384.097 277.569 391.541 C 283.694 379.284 288.137 362.978 290.875 344.984 Z M 250 206.047 C 256.375 206.047 266.631 224.603 271.95 256.728 L 228.081 256.728 C 233.4 224.603 243.631 206.047 250.025 206.047 L 250 206.047 Z M 225.762 275.478 L 274.269 275.478 C 274.956 283.409 275.394 291.859 275.394 300.847 C 275.394 309.853 274.956 318.278 274.269 326.209 L 225.762 326.209 C 225.075 318.278 224.637 309.828 224.637 300.847 C 224.637 291.834 225.075 283.409 225.762 275.478 Z M 222.437 210.172 C 216.312 222.428 211.869 238.734 209.131 256.728 L 166.188 256.728 C 177.881 234.609 198.075 217.591 222.437 210.172 Z M 155.175 300.872 C 155.175 292.059 156.494 283.609 158.744 275.503 L 206.981 275.503 C 206.3 283.878 205.862 292.378 205.862 300.872 C 205.862 309.366 206.3 317.866 206.981 326.241 L 158.744 326.241 C 156.494 318.109 155.175 309.684 155.175 300.872 Z M 209.131 344.991 C 211.887 362.978 216.306 379.291 222.437 391.547 C 198.075 384.097 177.881 367.109 166.188 344.991 L 209.131 344.991 Z"/>
  <path d="M 417.506 388.166 L 433.575 404.184 L 445.756 392.053 L 429.694 375.984 L 438.869 370.347 L 402.006 360.434 L 411.869 397.347 L 417.506 388.166 Z"/>
</svg>