<?xml version="1.0" encoding="utf-8"?>
<svg viewBox="0 0 500 500" xmlns="http://www.w3.org/2000/svg">
  <defs/>
  <title>Ethereum icon</title>
  <path d="M 496.507 244.612 C 495.525 243.899 494.447 243.285 493.338 242.776 C 479.417 236.396 465.551 229.887 451.525 223.731 C 440.516 218.899 429.227 218.924 418.28 223.907 C 367.655 246.948 317.118 270.179 266.484 293.198 C 255.659 298.119 244.408 298.145 233.586 293.229 C 182.837 270.171 132.188 246.886 81.448 223.808 C 70.618 218.883 59.43 218.941 48.55 223.705 C 34.856 229.7 21.322 236.051 7.744 242.299 C 4.303 243.885 0.333 245.366 0.251 249.853 C 0.167 254.588 4.33 256.051 7.867 257.675 C 31.136 268.365 180.436 336.642 231.779 360.179 C 237.573 362.836 243.537 364.404 249.972 364.024 C 250.062 364.378 250.155 364.733 250.245 365.085 C 255.869 363.592 261.718 362.635 267.067 360.485 C 276.384 356.74 494.044 256.929 496.539 255.23 C 501.131 252.107 501.019 247.886 496.505 244.611 M 492.572 377.926 C 478.673 371.497 464.841 364.912 450.76 358.884 C 440.255 354.389 429.258 354.385 418.843 359.114 C 368.195 382.107 317.672 405.363 267.061 428.434 C 255.72 433.604 244.154 433.56 232.805 428.384 C 182.87 405.609 133.005 382.678 83.005 360.033 C 77.545 357.561 71.389 356.557 65.26 354.784 C 59.128 356.441 52.988 357.4 47.454 359.734 C 34.357 365.253 21.541 371.409 8.631 377.35 C 6.748 378.217 4.818 379.117 3.183 380.349 C -0.947 383.461 -0.963 387.489 3.2 390.53 C 5.145 391.952 7.428 392.972 9.647 393.99 C 29.247 402.98 178.531 471.286 233.624 496.346 C 244.443 501.269 255.665 501.177 266.514 496.297 C 290.313 485.591 440.907 416.617 492.481 392.992 C 495.923 391.417 499.829 389.867 499.76 385.304 C 499.695 380.944 495.883 379.454 492.574 377.922 M 2.389 118.872 C 4.213 120.412 6.465 121.555 8.673 122.567 C 83.085 156.645 157.53 190.668 231.937 224.766 C 237.751 227.429 243.753 228.76 250.352 229.587 C 255.77 228.191 261.55 227.558 266.55 225.283 C 341.615 191.143 416.578 156.792 491.546 122.449 C 493.747 121.44 495.98 120.248 497.763 118.672 C 500.756 116.029 500.76 112.801 497.687 110.237 C 495.579 108.477 492.994 107.173 490.461 106.005 C 470.872 96.988 322.012 28.898 267.165 3.88 C 255.697 -1.352 244.006 -1.26 232.548 3.974 C 157.761 38.13 83.006 72.344 8.256 106.576 C 6.163 107.534 4.051 108.673 2.337 110.158 C -0.792 112.875 -0.784 116.193 2.391 118.875" fill-rule="evenodd"/>
</svg>