<?xml version="1.0" encoding="utf-8"?>
<svg viewBox="0 0 500 500" xmlns="http://www.w3.org/2000/svg">
  <path d="M 414.126 401.817 L 348.475 401.817 L 348.475 336.166 L 414.126 336.166 L 414.126 401.817 Z M 496.19 434.643 C 496.19 439.176 492.519 442.852 487.981 442.852 L 12.009 442.852 C 7.477 442.852 3.805 439.176 3.805 434.643 C 3.805 430.11 7.477 426.439 12.009 426.439 L 61.248 426.439 L 61.248 65.357 C 61.248 60.819 64.924 57.148 69.457 57.148 L 315.649 57.148 C 320.182 57.148 323.853 60.819 323.853 65.357 L 323.853 106.386 C 323.853 110.919 320.182 114.595 315.649 114.595 C 311.117 114.595 307.44 110.919 307.44 106.386 L 307.44 73.561 L 77.661 73.561 L 77.661 426.439 L 135.108 426.439 L 135.108 410.026 C 135.108 405.494 138.785 401.823 143.317 401.823 C 147.85 401.823 151.521 405.494 151.521 410.026 L 151.521 426.439 L 233.585 426.439 L 233.585 327.962 L 151.521 327.962 L 151.521 377.201 C 151.521 381.733 147.85 385.41 143.317 385.41 C 138.785 385.41 135.108 381.733 135.108 377.201 L 135.108 319.753 C 135.108 315.221 138.785 311.549 143.317 311.549 L 241.794 311.549 C 246.327 311.549 249.998 315.221 249.998 319.753 L 249.998 426.434 L 307.445 426.434 L 307.445 139.207 C 307.445 134.674 311.122 131.003 315.654 131.003 C 320.187 131.003 323.858 134.674 323.858 139.207 L 323.858 196.654 L 446.957 196.654 C 451.495 196.654 455.166 200.326 455.166 204.863 L 455.166 426.439 L 487.992 426.439 C 492.524 426.439 496.196 430.11 496.196 434.643 L 496.19 434.643 Z M 438.743 213.067 L 323.853 213.067 L 323.853 426.434 L 438.743 426.434 L 438.743 213.067 Z M 414.121 237.689 L 348.47 237.689 L 348.47 303.34 L 414.121 303.34 L 414.121 237.689 Z M 176.138 106.386 L 110.486 106.386 L 110.486 172.038 L 176.138 172.038 L 176.138 106.386 Z M 274.614 106.386 L 208.963 106.386 L 208.963 172.038 L 274.614 172.038 L 274.614 106.386 Z M 110.486 270.515 L 176.138 270.515 L 176.138 204.863 L 110.486 204.863 L 110.486 270.515 Z M 208.963 270.515 L 274.614 270.515 L 274.614 204.863 L 208.963 204.863 L 208.963 270.515 Z" style=""/>
</svg>