<?xml version="1.0" encoding="utf-8"?>
<svg viewBox="0 0 500 500" xmlns="http://www.w3.org/2000/svg">
  <g transform="matrix(4.741042, 0, 0, 4.741042, 14.607271, 15.792557)" style="">
    <path d="M89.9,24.4H69.6l-2.3-7.3c-0.9-2.8-3.5-4.7-6.4-4.7H38.1c-2.9,0-5.5,1.9-6.4,4.8l-2.3,7.2h-3.1v-1.6c0-2-1.7-3.7-3.7-3.7   h-8.9c-2,0-3.7,1.7-3.7,3.7v1.6H9.4c-4.1,0-7.5,3.4-7.5,7.5v47c0,4.1,3.4,7.5,7.5,7.5h80.5c4.1,0,7.5-3.4,7.5-7.5v-47   C97.4,27.8,94,24.4,89.9,24.4z M13,22.8c0-0.4,0.3-0.7,0.7-0.7h8.9c0.4,0,0.7,0.3,0.7,0.7v1.6H13V22.8z M94.4,78.9   c0,2.5-2,4.5-4.5,4.5H9.4c-2.5,0-4.5-2-4.5-4.5v-47c0-2.5,2-4.5,4.5-4.5h22.2l2.9-9.3c0.5-1.6,1.9-2.7,3.6-2.7h22.8   c1.6,0,3.1,1.1,3.6,2.6l2.9,9.4h22.5c2.5,0,4.5,2,4.5,4.5V78.9z"/>
    <path d="M49.6,30.7c-12.8,0-23.3,10.5-23.3,23.3s10.5,23.3,23.3,23.3c12.8,0,23.3-10.5,23.3-23.3S62.4,30.7,49.6,30.7z M49.6,74.3   c-11.2,0-20.3-9.1-20.3-20.3s9.1-20.3,20.3-20.3S69.9,42.8,69.9,54S60.8,74.3,49.6,74.3z"/>
    <path d="M86.1,31.9h-8.9c-2,0-3.7,1.7-3.7,3.7v2.6c0,2,1.7,3.7,3.7,3.7h8.9c2,0,3.7-1.7,3.7-3.7v-2.6   C89.8,33.6,88.1,31.9,86.1,31.9z M86.8,38.2c0,0.4-0.3,0.7-0.7,0.7h-8.9c-0.4,0-0.7-0.3-0.7-0.7v-2.6c0-0.4,0.3-0.7,0.7-0.7h8.9   c0.4,0,0.7,0.3,0.7,0.7V38.2z"/>
  </g>
</svg>