<?xml version="1.0" encoding="utf-8"?>
<svg viewBox="0 0 500 500" xmlns="http://www.w3.org/2000/svg">
  <defs/>
  <path d="M 0 130.96 C 0 98.08 26.651 71.429 59.531 71.429 L 440.468 71.429 C 473.343 71.429 500 98.08 500 130.96 L 500 369.04 C 500 401.914 473.343 428.571 440.468 428.571 L 59.531 428.571 C 26.651 428.571 0 401.914 0 369.04 L 0 130.96 Z M 59.531 95.246 C 39.794 95.246 23.817 111.223 23.817 130.96 L 23.817 369.04 C 23.817 388.771 39.794 404.754 59.531 404.754 L 440.468 404.754 C 460.2 404.754 476.183 388.771 476.183 369.04 L 476.183 130.96 C 476.183 111.223 460.2 95.246 440.468 95.246 L 59.531 95.246 Z" fill-rule="evenodd"/>
  <path d="M 333.326 238.103 C 320.177 238.103 309.526 227.429 309.526 214.286 C 309.526 201.137 320.177 190.469 333.326 190.469 C 340.937 190.469 347.72 194.04 352.097 199.617 L 370.846 184.954 C 362.143 173.834 348.571 166.674 333.326 166.674 C 307.028 166.674 285.714 187.989 285.714 214.286 C 285.714 240.577 307.028 261.897 333.326 261.897 C 347.428 261.897 360.108 255.754 368.811 246.023 L 351.091 230.154 C 346.691 235.04 340.377 238.103 333.32 238.103 L 333.326 238.103 Z" fill-rule="evenodd"/>
  <path d="M 392.857 238.103 C 379.708 238.103 369.04 227.429 369.04 214.286 C 369.04 201.137 379.708 190.469 392.857 190.469 C 406 190.469 416.674 201.137 416.674 214.286 C 416.674 227.429 406 238.103 392.857 238.103 Z M 345.246 214.286 C 345.246 240.577 366.56 261.897 392.857 261.897 C 419.148 261.897 440.468 240.577 440.468 214.286 C 440.468 187.989 419.148 166.674 392.857 166.674 C 366.56 166.674 345.246 187.989 345.246 214.286 Z" fill-rule="evenodd"/>
  <path d="M 0 333.326 C 0 339.909 5.331 345.24 11.897 345.24 L 488.103 345.24 C 494.663 345.24 500 339.909 500 333.326 C 500 326.76 494.663 321.429 488.103 321.429 L 11.897 321.429 C 5.331 321.429 0 326.76 0 333.326 Z" fill-rule="evenodd"/>
</svg>