<?xml version="1.0" encoding="utf-8"?>
<svg xmlns="http://www.w3.org/2000/svg" viewBox="0 0 500 500">
  <g style="" transform="matrix(17.283562, 0, 0, 17.283562, -4070.890381, -4070.890381)">
    <g data-name="Layer 21" transform="matrix(1, 0, 0, 1, 234.001038, 234.000122)">
      <path d="M9.5,19H25a1,1,0,0,0,.91-.59l4-9A1,1,0,0,0,29,8H7.88L7,3.79A1,1,0,0,0,6,3H3A1,1,0,0,0,3,5H5.19L7.85,17.43a3.47,3.47,0,0,0,.6,6.39A3.43,3.43,0,0,0,8,25.5a3.5,3.5,0,0,0,7,0,3.45,3.45,0,0,0-.35-1.5h3.7A3.45,3.45,0,0,0,18,25.5a3.5,3.5,0,0,0,7,0,3.45,3.45,0,0,0-.35-1.5H26a1,1,0,0,0,0-2H9.5a1.5,1.5,0,0,1,0-3ZM13,25.5A1.5,1.5,0,1,1,11.5,24,1.5,1.5,0,0,1,13,25.5Zm10,0A1.5,1.5,0,1,1,21.5,24,1.5,1.5,0,0,1,23,25.5ZM27.46,10l-3.11,7H9.81l-1.5-7Z"/>
    </g>
  </g>
</svg>