<?xml version="1.0" encoding="utf-8"?>
<svg version="1.1" x="0px" y="0px" viewBox="0 0 100 100" enable-background="new 0 0 100 100" xmlns="http://www.w3.org/2000/svg">
  <defs/>
  <path d="M 94.16 4.553 L 49.308 52.847 L 35.531 33.728 C 34.098 31.562 30.856 31.758 29.697 34.083 C 29.115 35.251 29.258 36.65 30.065 37.675 L 46.249 60.147 C 46.84 60.966 47.769 61.478 48.779 61.541 L 48.982 61.541 C 49.928 61.529 50.825 61.122 51.456 60.417 L 99.098 9.142 C 100.863 7.237 99.905 4.134 97.374 3.557 C 96.198 3.289 94.969 3.669 94.149 4.553 L 94.16 4.553 Z"/>
  <path d="M 91.787 37.72 C 89.962 38.087 88.779 39.864 89.144 41.691 C 89.695 44.434 89.974 47.225 89.977 50.024 C 89.977 82.058 55.299 102.079 27.556 86.062 C 14.681 78.629 6.75 64.891 6.75 50.024 C 6.746 18.513 40.408 -1.568 68.135 13.405 C 70.42 14.651 73.198 12.956 73.135 10.353 C 73.106 9.146 72.435 8.044 71.374 7.466 C 38.63 -10.249 -1.012 14.128 0.02 51.341 C 1.052 88.556 41.982 110.699 73.694 91.198 C 87.999 82.402 96.717 66.816 96.725 50.024 C 96.721 46.78 96.397 43.544 95.757 40.363 C 95.39 38.537 93.613 37.354 91.787 37.72 Z"/>
</svg>