<?xml version="1.0" encoding="utf-8"?>
<svg xmlns="http://www.w3.org/2000/svg" viewBox="0 0 500 500">
  <path d="M 250 497.646 C 113.441 497.646 2.354 386.559 2.354 250 C 2.354 113.441 113.441 2.354 250 2.354 C 386.559 2.354 497.646 113.441 497.646 250 C 497.646 386.559 386.559 497.646 250 497.646 Z M 250 37.732 C 132.896 37.732 37.732 132.896 37.732 250 C 37.732 367.104 132.896 462.268 250 462.268 C 367.104 462.268 462.268 367.104 462.268 250 C 462.268 132.896 367.104 37.732 250 37.732 Z M 228.066 385.319 L 334.2 261.496 C 339.86 254.953 339.86 245.047 334.2 238.504 L 228.066 114.681 C 221.698 107.249 210.552 106.365 203.126 112.734 C 195.693 119.102 194.81 130.247 201.178 137.674 L 297.407 250 L 201.178 362.327 C 194.81 369.759 195.693 380.904 203.126 387.272 C 206.488 390.102 210.552 391.518 214.622 391.518 C 219.575 391.518 224.528 389.395 228.066 385.325 L 228.066 385.319 Z" style=""/>
</svg>