<?xml version="1.0" encoding="utf-8"?>
<svg xmlns="http://www.w3.org/2000/svg" viewBox="0 0 500 500">
  <path d="M 250 2.354 C 113.441 2.354 2.354 113.476 2.354 250.077 C 2.354 386.678 113.441 497.799 250 497.799 C 386.559 497.799 497.646 386.678 497.646 250.077 C 497.646 113.476 386.559 2.354 250 2.354 Z M 250 462.41 C 132.896 462.41 37.732 367.217 37.732 250.077 C 37.732 132.937 132.896 37.743 250 37.743 C 367.104 37.743 462.268 132.937 462.268 250.077 C 462.268 367.217 367.104 462.41 250 462.41 Z M 228.066 114.716 L 334.2 238.577 C 339.86 245.122 339.86 255.031 334.2 261.576 L 228.066 385.437 C 221.698 392.872 210.552 393.756 203.126 387.385 C 195.693 381.015 194.81 369.867 201.178 362.437 L 297.407 250.077 L 201.178 137.715 C 194.81 130.281 195.693 119.132 203.126 112.762 C 206.488 109.932 210.552 108.515 214.622 108.515 C 219.575 108.515 224.528 110.639 228.066 114.71 L 228.066 114.716 Z" style="transform-box: fill-box; transform-origin: 50% 50%;" transform="matrix(-1, 0, 0, -1, 0.000066, -0.000035)"/>
</svg>