<?xml version="1.0" encoding="utf-8"?>
<svg viewBox="0 0 500 500" xmlns="http://www.w3.org/2000/svg">
  <g transform="matrix(5.065967, 0, 0, 5.065967, -3.298069, -3.308571)" style="">
    <g transform="matrix(1.004037, 0, 0, 1.004037, 9.100507, 10.132222)" style="">
      <path d="M 81.88 78.021 L 56.339 78.021 C 53.994 78.021 52.085 79.925 52.085 82.28 C 52.085 84.624 53.989 86.534 56.339 86.534 L 81.88 86.534 C 84.229 86.534 86.139 84.63 86.139 82.28 C 86.139 79.93 84.229 78.021 81.88 78.021 Z M 81.88 83.693 L 56.339 83.693 C 55.557 83.693 54.921 83.056 54.921 82.275 C 54.921 81.493 55.552 80.851 56.339 80.851 L 81.88 80.851 C 82.661 80.851 83.303 81.493 83.303 82.275 C 83.303 83.056 82.666 83.693 81.88 83.693 Z" style=""/>
      <path d="M 85.337 51.843 L 72.455 44.82 C 70.406 43.702 67.808 43.702 65.768 44.82 L 52.887 51.843 C 51.515 52.594 50.667 54.022 50.667 55.58 L 50.667 56.734 C 50.667 59.078 52.576 60.993 54.926 60.993 L 83.303 60.993 C 85.647 60.993 87.562 59.084 87.562 56.734 L 87.562 55.58 C 87.562 54.022 86.708 52.589 85.342 51.843 L 85.337 51.843 Z M 84.716 56.739 C 84.716 57.521 84.084 58.157 83.298 58.157 L 54.921 58.157 C 54.139 58.157 53.498 57.521 53.498 56.739 L 53.498 55.585 C 53.498 55.068 53.782 54.586 54.238 54.338 L 67.124 47.31 C 67.73 46.978 68.418 46.808 69.107 46.808 C 69.795 46.808 70.483 46.978 71.094 47.31 L 83.976 54.338 C 84.431 54.586 84.716 55.068 84.716 55.585 L 84.716 56.739 Z" style=""/>
      <path d="M 57.762 75.184 L 57.762 63.835 C 57.762 63.053 57.126 62.411 56.339 62.411 C 55.552 62.411 54.921 63.048 54.921 63.835 L 54.921 75.184 C 54.921 75.966 55.552 76.602 56.339 76.602 C 57.126 76.602 57.762 75.971 57.762 75.184 Z" style=""/>
      <path d="M 66.276 75.184 L 66.276 63.835 C 66.276 63.053 65.639 62.411 64.852 62.411 C 64.066 62.411 63.434 63.048 63.434 63.835 L 63.434 75.184 C 63.434 75.966 64.066 76.602 64.852 76.602 C 65.639 76.602 66.276 75.971 66.276 75.184 Z" style=""/>
      <path d="M 74.784 75.184 L 74.784 63.835 C 74.784 63.053 74.153 62.411 73.366 62.411 C 72.579 62.411 71.943 63.048 71.943 63.835 L 71.943 75.184 C 71.943 75.966 72.579 76.602 73.366 76.602 C 74.153 76.602 74.784 75.971 74.784 75.184 Z" style=""/>
      <path d="M 83.303 75.184 L 83.303 63.835 C 83.303 63.053 82.666 62.411 81.88 62.411 C 81.093 62.411 80.462 63.048 80.462 63.835 L 80.462 75.184 C 80.462 75.966 81.093 76.602 81.88 76.602 C 82.666 76.602 83.303 75.971 83.303 75.184 Z" style=""/>
      <path d="M 26.544 58.157 C 26.544 55.518 24.727 53.313 22.285 52.682 L 22.285 46.73 C 31.792 46 39.312 38.051 39.312 28.357 C 39.312 18.182 31.036 9.912 20.867 9.912 C 10.697 9.912 2.421 18.182 2.421 28.357 C 2.421 38.051 9.941 46.005 19.448 46.73 L 19.448 52.682 C 17.006 53.313 15.194 55.518 15.194 58.157 C 15.194 60.792 17.006 62.996 19.448 63.628 L 19.448 69.709 C 17.006 70.34 15.194 72.545 15.194 75.184 C 15.194 77.819 17.006 80.023 19.448 80.66 L 19.448 85.116 C 19.448 85.898 20.085 86.534 20.872 86.534 C 21.658 86.534 22.29 85.903 22.29 85.116 L 22.29 80.66 C 24.733 80.023 26.549 77.819 26.549 75.184 C 26.549 72.545 24.733 70.34 22.29 69.709 L 22.29 63.628 C 24.733 62.996 26.549 60.792 26.549 58.157 L 26.544 58.157 Z M 13.771 42.243 L 13.771 39.712 C 13.771 35.799 16.959 32.617 20.867 32.617 C 24.779 32.617 27.962 35.799 27.962 39.712 L 27.962 42.243 C 25.83 43.34 23.423 43.966 20.867 43.966 C 18.315 43.966 15.903 43.34 13.771 42.243 Z M 5.263 28.362 C 5.263 19.75 12.265 12.753 20.867 12.753 C 29.473 12.753 36.476 19.756 36.476 28.362 C 36.476 33.196 34.266 37.528 30.798 40.39 L 30.798 39.712 C 30.798 34.236 26.342 29.78 20.867 29.78 C 15.391 29.78 10.935 34.236 10.935 39.712 L 10.935 40.39 C 7.473 37.528 5.257 33.196 5.257 28.362 L 5.263 28.362 Z M 18.03 58.157 C 18.03 56.589 19.304 55.316 20.867 55.316 C 22.43 55.316 23.703 56.589 23.703 58.157 C 23.703 59.72 22.43 60.993 20.867 60.993 C 19.304 60.993 18.03 59.72 18.03 58.157 Z M 23.703 75.184 C 23.703 76.747 22.43 78.021 20.867 78.021 C 19.304 78.021 18.03 76.747 18.03 75.184 C 18.03 73.616 19.304 72.343 20.867 72.343 C 22.43 72.343 23.703 73.616 23.703 75.184 Z" style=""/>
      <path d="M 20.867 26.939 C 23.998 26.939 26.544 24.393 26.544 21.267 C 26.544 18.136 23.998 15.589 20.867 15.589 C 17.741 15.589 15.194 18.136 15.194 21.267 C 15.194 24.393 17.741 26.939 20.867 26.939 Z M 20.867 18.426 C 22.435 18.426 23.708 19.699 23.708 21.267 C 23.708 22.83 22.435 24.103 20.867 24.103 C 19.304 24.103 18.03 22.83 18.03 21.267 C 18.03 19.699 19.304 18.426 20.867 18.426 Z" style=""/>
      <path d="M 13.507 78.021 L 1.008 78.021 C -1.341 78.021 -3.251 76.111 -3.251 73.761 L -3.251 7.076 L 67.694 7.076 L 67.694 41.156 C 67.694 41.938 68.33 42.574 69.117 42.574 C 69.904 42.574 70.535 41.943 70.535 41.156 L 70.53 -0.02 C 70.53 -3.932 67.347 -7.115 63.434 -7.115 L 1.003 -7.115 C -2.909 -7.115 -6.092 -3.927 -6.092 -0.02 L -6.092 73.766 C -6.092 77.679 -2.909 80.862 1.003 80.862 L 13.502 80.862 C 14.289 80.862 14.92 80.225 14.92 79.439 C 14.92 78.657 14.289 78.021 13.502 78.021 L 13.507 78.021 Z M -3.251 -0.02 C -3.251 -2.369 -1.341 -4.279 1.008 -4.279 L 63.434 -4.279 C 65.784 -4.279 67.694 -2.374 67.694 -0.02 L 67.694 4.235 L -3.251 4.235 L -3.251 -0.02 Z" style=""/>
      <path d="M 47.83 78.021 L 39.317 78.021 C 38.53 78.021 37.894 78.652 37.894 79.439 C 37.894 80.225 38.53 80.862 39.317 80.862 L 47.83 80.862 C 48.617 80.862 49.249 80.225 49.249 79.439 C 49.249 78.657 48.617 78.021 47.83 78.021 Z" style=""/>
      <path d="M 3.845 -1.438 L 2.421 -1.438 C 1.64 -1.438 1.003 -0.801 1.003 -0.02 C 1.003 0.767 1.64 1.404 2.421 1.404 L 3.845 1.404 C 4.631 1.404 5.263 0.767 5.263 -0.02 C 5.263 -0.801 4.631 -1.438 3.845 -1.438 Z" style=""/>
      <path d="M 10.935 -1.438 L 9.517 -1.438 C 8.73 -1.438 8.094 -0.801 8.094 -0.02 C 8.094 0.767 8.73 1.404 9.517 1.404 L 10.935 1.404 C 11.722 1.404 12.358 0.767 12.358 -0.02 C 12.358 -0.801 11.722 -1.438 10.935 -1.438 Z" style=""/>
      <path d="M 18.03 -1.438 L 16.607 -1.438 C 15.826 -1.438 15.189 -0.801 15.189 -0.02 C 15.189 0.767 15.826 1.404 16.607 1.404 L 18.03 1.404 C 18.817 1.404 19.448 0.767 19.448 -0.02 C 19.448 -0.801 18.817 -1.438 18.03 -1.438 Z" style=""/>
      <path d="M 39.312 55.316 L 30.798 55.316 C 30.017 55.316 29.38 55.953 29.38 56.739 C 29.38 57.521 30.017 58.157 30.798 58.157 L 39.312 58.157 C 40.098 58.157 40.735 57.526 40.735 56.739 C 40.735 55.958 40.098 55.316 39.312 55.316 Z" style=""/>
      <path d="M 30.798 62.411 L 33.639 62.411 C 34.426 62.411 35.058 61.78 35.058 60.993 C 35.058 60.212 34.426 59.57 33.639 59.57 L 30.798 59.57 C 30.017 59.57 29.38 60.207 29.38 60.993 C 29.38 61.775 30.017 62.411 30.798 62.411 Z" style=""/>
      <path d="M 30.798 75.184 L 39.312 75.184 C 40.098 75.184 40.735 74.548 40.735 73.761 C 40.735 72.98 40.098 72.343 39.312 72.343 L 30.798 72.343 C 30.017 72.343 29.38 72.974 29.38 73.761 C 29.38 74.543 30.017 75.184 30.798 75.184 Z" style=""/>
      <path d="M 33.639 76.597 L 30.803 76.597 C 30.017 76.597 29.38 77.234 29.38 78.021 C 29.38 78.802 30.017 79.439 30.803 79.439 L 33.639 79.439 C 34.426 79.439 35.058 78.807 35.058 78.021 C 35.058 77.239 34.426 76.597 33.639 76.597 Z" style=""/>
    </g>
  </g>
</svg>