<?xml version="1.0" encoding="utf-8"?>
<svg viewBox="0 0 500 500" xmlns="http://www.w3.org/2000/svg">
  <defs/>
  <title>Ethereum icon</title>
  <path d="M 434.207 342.103 L 223.692 342.103 C 187.364 342.082 157.919 312.637 157.898 276.309 L 157.898 65.794 C 157.919 29.487 187.364 0.021 223.692 0 L 434.207 0 C 470.513 0.021 499.979 29.487 500.001 65.794 L 500.001 276.309 C 499.979 312.637 470.513 342.082 434.207 342.103 Z M 223.692 26.309 C 201.887 26.351 184.249 44.01 184.207 65.794 L 184.207 276.309 C 184.249 298.114 201.887 315.752 223.692 315.794 L 434.207 315.794 C 455.991 315.752 473.649 298.114 473.691 276.309 L 473.691 65.794 C 473.649 44.01 455.991 26.351 434.207 26.309 L 223.692 26.309 Z M 315.795 381.567 L 315.795 434.206 C 315.752 455.99 298.115 473.649 276.31 473.691 L 65.795 473.691 C 44.011 473.649 26.352 455.99 26.31 434.206 L 26.31 223.691 C 26.352 201.886 44.011 184.248 65.795 184.206 L 118.434 184.206 L 118.434 157.897 L 65.795 157.897 C 29.488 157.918 0.022 187.363 0.001 223.691 L 0.001 434.206 C 0.022 470.513 29.488 499.979 65.795 500 L 276.31 500 C 312.637 499.979 342.083 470.513 342.104 434.206 L 342.104 381.567 L 315.795 381.567 Z" style=""/>
</svg>