<svg width="700pt" height="700pt" version="1.1" viewBox="0 0 700 700"
  xmlns="http://www.w3.org/2000/svg">
  <path
    d="M 375.443 329.558 L 580.339 124.983 C 588.593 116.734 591.811 104.707 588.795 93.436 C 585.773 82.172 576.968 73.367 565.705 70.346 C 554.434 67.33 542.406 70.548 534.157 78.803 L 329.583 283.698 L 125.009 78.803 C 116.76 70.548 104.733 67.33 93.462 70.346 C 82.197 73.367 73.394 82.173 70.372 93.436 C 67.354 104.707 70.572 116.734 78.827 124.983 L 283.722 329.558 L 78.827 534.132 C 72.669 540.241 69.206 548.555 69.206 557.222 C 69.206 565.896 72.669 574.21 78.827 580.313 C 84.93 586.47 93.245 589.934 101.917 589.934 C 110.586 589.934 118.9 586.47 125.008 580.313 L 329.582 375.418 L 534.156 580.313 C 540.265 586.47 548.58 589.934 557.247 589.934 C 565.921 589.934 574.235 586.47 580.338 580.313 C 586.496 574.209 589.958 565.895 589.958 557.222 C 589.958 548.554 586.496 540.24 580.338 534.132 L 375.443 329.558 Z"
    style="" />
</svg>