<?xml version="1.0" encoding="utf-8"?>
<svg viewBox="0 0 500 500" xmlns="http://www.w3.org/2000/svg">
  <defs/>
  <title>Ethereum icon</title>
  <path d="M 198.184 452.518 C 198.184 463.175 189.543 471.804 178.896 471.804 L 169.252 471.804 C 115.991 471.804 72.816 428.631 72.816 375.368 L 72.816 310.581 C 72.816 305.114 70.492 299.897 66.432 296.242 L 30.981 264.341 C 26.911 260.686 24.598 255.467 24.598 250 C 24.598 244.533 26.911 239.325 30.981 235.668 L 66.432 203.758 C 70.492 200.103 72.816 194.896 72.816 189.428 L 72.816 124.631 C 72.816 71.369 115.991 28.196 169.252 28.196 L 178.896 28.196 C 189.543 28.196 198.184 36.836 198.184 47.482 C 198.184 58.14 189.543 66.77 178.896 66.77 L 169.252 66.77 C 137.294 66.77 111.39 92.682 111.39 124.631 L 111.39 189.428 C 111.39 205.831 104.428 221.465 92.237 232.439 L 72.709 250 L 92.237 267.57 C 104.428 278.545 111.39 294.178 111.39 310.581 L 111.39 375.368 C 111.39 407.327 137.294 433.23 169.252 433.23 L 178.896 433.23 C 189.543 433.23 198.184 441.871 198.184 452.518 Z" fill="black" style=""/>
  <path d="M 301.885 452.339 C 301.885 462.985 310.509 471.607 321.156 471.607 L 330.792 471.607 C 384.005 471.607 427.141 428.472 427.141 375.256 L 427.141 310.528 C 427.141 305.064 429.455 299.853 433.52 296.201 L 468.939 264.328 C 472.995 260.676 475.317 255.462 475.317 250 C 475.317 244.538 472.995 239.334 468.939 235.681 L 433.52 203.799 C 429.455 200.147 427.141 194.945 427.141 189.481 L 427.141 124.743 C 427.141 71.528 384.005 28.393 330.792 28.393 L 321.156 28.393 C 310.509 28.393 301.885 37.026 301.885 47.661 C 301.885 58.31 310.509 66.932 321.156 66.932 L 330.792 66.932 C 362.713 66.932 388.602 92.822 388.602 124.743 L 388.602 189.481 C 388.602 205.871 395.558 221.49 407.738 232.454 L 427.238 250 L 407.738 267.555 C 395.558 278.52 388.602 294.138 388.602 310.528 L 388.602 375.256 C 388.602 407.187 362.713 433.068 330.792 433.068 L 321.156 433.068 C 310.509 433.068 301.885 441.7 301.885 452.339 Z" fill="black" style=""/>
  <path d="M 174.502 265.099 C 182.838 265.099 189.601 258.343 189.601 250 C 189.601 241.666 182.838 234.901 174.502 234.901 C 166.162 234.901 159.404 241.666 159.404 250 C 159.404 258.343 166.162 265.099 174.502 265.099 Z" fill="black" style=""/>
  <path d="M 249.996 265.099 C 258.33 265.099 265.095 258.343 265.095 250 C 265.095 241.666 258.33 234.901 249.996 234.901 C 241.653 234.901 234.897 241.666 234.897 250 C 234.897 258.343 241.653 265.099 249.996 265.099 Z" fill="black" style=""/>
  <path d="M 340.588 250 C 340.588 258.343 333.823 265.099 325.49 265.099 C 317.147 265.099 310.391 258.343 310.391 250 C 310.391 241.666 317.147 234.901 325.49 234.901 C 333.823 234.901 340.588 241.666 340.588 250 Z" fill="black" style=""/>
  <path d="M 198.184 452.518 C 198.184 463.175 189.543 471.804 178.896 471.804 L 169.252 471.804 C 115.991 471.804 72.816 428.631 72.816 375.368 L 72.816 310.581 C 72.816 305.114 70.492 299.897 66.432 296.242 L 30.981 264.341 C 26.911 260.686 24.598 255.467 24.598 250 C 24.598 244.533 26.911 239.325 30.981 235.668 L 66.432 203.758 C 70.492 200.103 72.816 194.896 72.816 189.428 L 72.816 124.631 C 72.816 71.369 115.991 28.196 169.252 28.196 L 178.896 28.196 C 189.543 28.196 198.184 36.836 198.184 47.482 C 198.184 58.14 189.543 66.77 178.896 66.77 L 169.252 66.77 C 137.294 66.77 111.39 92.682 111.39 124.631 L 111.39 189.428 C 111.39 205.831 104.428 221.465 92.237 232.439 L 72.709 250 L 92.237 267.57 C 104.428 278.545 111.39 294.178 111.39 310.581 L 111.39 375.368 C 111.39 407.327 137.294 433.23 169.252 433.23 L 178.896 433.23 C 189.543 433.23 198.184 441.871 198.184 452.518 Z" fill="black" style=""/>
  <path d="M 301.885 452.339 C 301.885 462.985 310.509 471.607 321.156 471.607 L 330.792 471.607 C 384.005 471.607 427.141 428.472 427.141 375.256 L 427.141 310.528 C 427.141 305.064 429.455 299.853 433.52 296.201 L 468.939 264.328 C 472.995 260.676 475.317 255.462 475.317 250 C 475.317 244.538 472.995 239.334 468.939 235.681 L 433.52 203.799 C 429.455 200.147 427.141 194.945 427.141 189.481 L 427.141 124.743 C 427.141 71.528 384.005 28.393 330.792 28.393 L 321.156 28.393 C 310.509 28.393 301.885 37.026 301.885 47.661 C 301.885 58.31 310.509 66.932 321.156 66.932 L 330.792 66.932 C 362.713 66.932 388.602 92.822 388.602 124.743 L 388.602 189.481 C 388.602 205.871 395.558 221.49 407.738 232.454 L 427.238 250 L 407.738 267.555 C 395.558 278.52 388.602 294.138 388.602 310.528 L 388.602 375.256 C 388.602 407.187 362.713 433.068 330.792 433.068 L 321.156 433.068 C 310.509 433.068 301.885 441.7 301.885 452.339 Z" fill="black" style=""/>
  <path d="M 174.502 265.099 C 182.838 265.099 189.601 258.343 189.601 250 C 189.601 241.666 182.838 234.901 174.502 234.901 C 166.162 234.901 159.404 241.666 159.404 250 C 159.404 258.343 166.162 265.099 174.502 265.099 Z" fill="black" style=""/>
  <path d="M 249.996 265.099 C 258.33 265.099 265.095 258.343 265.095 250 C 265.095 241.666 258.33 234.901 249.996 234.901 C 241.653 234.901 234.897 241.666 234.897 250 C 234.897 258.343 241.653 265.099 249.996 265.099 Z" fill="black" style=""/>
  <path d="M 340.588 250 C 340.588 258.343 333.823 265.099 325.49 265.099 C 317.147 265.099 310.391 258.343 310.391 250 C 310.391 241.666 317.147 234.901 325.49 234.901 C 333.823 234.901 340.588 241.666 340.588 250 Z" fill="black" style=""/>
</svg>