<?xml version="1.0" encoding="utf-8"?>
<svg viewBox="0 0 500 500" xmlns="http://www.w3.org/2000/svg">
  <defs/>
  <path d="M 499.857 215.557 C 501.026 197.335 494.991 179.543 483.239 166.739 C 464.735 146.466 434.526 150.509 420.6 153.746 C 420.711 149.569 420.941 145.391 420.941 141.119 L 420.829 141.119 C 420.894 140.525 420.941 139.996 420.941 139.421 C 420.941 97.165 340.556 64.089 237.912 64.089 C 135.268 64.089 54.883 97.165 54.883 139.421 C 54.883 140.02 54.953 140.596 55 141.119 L 54.883 141.119 C 54.883 193.592 65.624 242.364 84.675 282.604 C 30.027 297.482 0 320.869 0 348.939 C 0 396.894 108.067 435.911 240.92 435.911 C 373.773 435.911 481.841 396.894 481.841 348.939 C 481.841 334.067 473.144 313.342 434.08 295.596 C 447.001 288.709 459.347 281.023 469.148 272.691 C 487.652 256.99 498.576 236.723 499.863 215.557 L 499.857 215.557 Z M 416.422 199.468 C 422.939 196.348 439.397 189.826 450.733 197.929 C 456.679 202.154 459.664 208.147 459.547 215.375 C 459.253 228.185 449.199 242.117 432.763 252.7 C 418.144 262.108 404.964 269.382 394.98 274.547 C 404.781 251.713 412.126 226.44 416.422 199.468 Z M 237.912 75.888 C 340.397 75.888 409.188 108.736 409.188 139.468 C 409.188 150.761 399.916 162.261 383.087 172.385 C 367.574 155.28 308.466 134.902 237.882 134.902 C 166.958 134.902 107.597 154.522 92.449 172.268 C 75.831 162.167 66.606 150.691 66.606 139.491 C 66.606 108.736 135.491 75.888 237.906 75.888 L 237.912 75.888 Z M 237.912 214.735 C 316.228 214.735 381.577 195.455 408.137 167.544 C 404.023 224.947 386.624 276.322 359.541 314.1 C 343.682 336.2 324.584 353.693 302.849 364.987 C 277.276 378.666 202.608 378.619 174.103 364.916 C 114.513 334.778 74.327 258.847 67.734 167.608 C 94.288 195.473 159.571 214.735 237.912 214.735 Z M 470.135 349.015 C 470.135 384.619 376 424.235 240.967 424.235 C 105.934 424.235 11.799 384.572 11.799 349.015 C 11.799 326.68 40.304 306.596 90.116 293.375 C 109.672 330.282 136.525 359.069 168.844 375.458 C 184.933 383.15 212.498 387.028 239.586 387.028 C 266.852 387.028 293.752 383.15 308.219 375.387 C 330.548 363.87 350.222 346.195 366.681 324.089 C 379.373 319.799 399.64 312.407 420.206 302.582 C 452.437 315.228 470.13 331.616 470.13 349.015 L 470.135 349.015 Z M 461.55 263.812 C 439.286 282.792 401.92 298.657 377.816 307.653 C 380.983 302.535 383.921 297.253 386.812 291.723 C 396.085 287.387 415.781 277.491 439.057 262.572 C 458.795 249.88 470.846 232.322 471.258 215.634 C 471.557 204.522 466.669 194.838 457.578 188.363 C 444.539 179.09 428.544 182.187 418.214 185.953 C 418.972 179.366 419.613 172.803 420.024 166.028 C 429.437 163.507 458.748 157.284 474.607 174.613 C 484.179 185.084 489.115 199.704 488.175 214.805 C 487.347 227.568 482.117 246.301 461.55 263.812 Z"/>
</svg>