<?xml version="1.0" encoding="utf-8"?>
<svg version="1.1" x="0px" y="0px" viewBox="0 0 100 100" enable-background="new 0 0 100 100" xmlns="http://www.w3.org/2000/svg">
  <defs/>
  <g transform="matrix(0.312813, 0, 0, 0.312813, -2.138072, -2.13651)" style="">
    <path class="fil0" d="M166.67 6.83c44.13,0 84.09,17.89 113.02,46.82 28.93,28.93 46.82,68.89 46.82,113.02 0,16.03 -2.37,31.53 -6.78,46.16 -4.22,14 -10.31,27.19 -17.98,39.29l18.53 64.85c1.13,3.98 -1.17,8.12 -5.15,9.25 -1.75,0.5 -3.53,0.33 -5.07,-0.35l-62.18 -21.52c-11.6,6.86 -24.14,12.3 -37.36,16.06 -13.95,3.97 -28.66,6.1 -43.84,6.1 -44.13,0 -84.09,-17.89 -113.02,-46.82 -28.93,-28.93 -46.82,-68.89 -46.82,-113.02 0,-44.13 17.89,-84.09 46.82,-113.02 28.93,-28.93 68.89,-46.82 113.02,-46.82zm-53.31 197.03c-4.14,0 -7.49,-3.35 -7.49,-7.49 0,-4.14 3.35,-7.49 7.49,-7.49l106.61 0c4.14,0 7.49,3.35 7.49,7.49 0,4.14 -3.35,7.49 -7.49,7.49l-106.61 0zm-21.68 -59.39c-4.14,0 -7.49,-3.35 -7.49,-7.49 0,-4.14 3.35,-7.49 7.49,-7.49l149.97 0c4.14,0 7.49,3.35 7.49,7.49 0,4.14 -3.35,7.49 -7.49,7.49l-149.97 0zm177.41 -80.22c-26.21,-26.21 -62.43,-42.43 -102.43,-42.43 -40,0 -76.22,16.21 -102.43,42.43 -26.21,26.21 -42.43,62.43 -42.43,102.43 0,40 16.21,76.22 42.43,102.43 26.21,26.21 62.43,42.43 102.43,42.43 13.8,0 27.13,-1.92 39.74,-5.51 13.06,-3.72 25.36,-9.22 36.61,-16.22l0.01 0.02c1.84,-1.14 4.16,-1.48 6.37,-0.72l52.53 18.18 -15.52 -54.31 0.01 0c-0.57,-2.03 -0.3,-4.28 0.96,-6.17 7.76,-11.67 13.87,-24.52 18,-38.22 3.99,-13.24 6.14,-27.3 6.14,-41.89 0,-40 -16.21,-76.22 -42.43,-102.43z"/>
  </g>
</svg>