<?xml version="1.0" encoding="utf-8"?>
<svg viewBox="0 0 500 500" xmlns="http://www.w3.org/2000/svg">
  <path d="M 249.993 5.137 C 182.865 5.137 122.025 32.236 77.794 76.071 C 77.493 76.287 77.214 76.559 76.975 76.829 C 76.704 77.069 76.433 77.371 76.224 77.642 C 32.39 121.87 5.292 182.711 5.292 249.84 C 5.292 316.968 32.39 377.808 76.224 422.039 C 76.433 422.34 76.704 422.619 76.975 422.858 C 77.214 423.128 77.524 423.4 77.794 423.616 C 122.025 467.451 182.865 494.541 249.993 494.541 C 317.122 494.541 377.962 467.451 422.191 423.616 C 422.494 423.4 422.764 423.128 423.005 422.858 C 423.276 422.619 423.546 422.317 423.762 422.039 C 467.597 377.817 494.695 316.968 494.695 249.84 C 494.695 182.711 467.597 121.87 423.762 77.642 C 423.546 77.339 423.276 77.069 423.005 76.829 C 422.764 76.559 422.463 76.287 422.191 76.071 C 377.962 32.236 317.122 5.137 249.993 5.137 Z M 262.073 29.614 L 262.073 59.521 C 262.073 66.195 256.668 71.601 249.993 71.601 C 243.311 71.601 237.906 66.195 237.906 59.521 L 237.906 29.614 C 186.129 32.422 139.092 53.117 102.867 85.622 L 123.958 106.705 C 128.667 111.423 128.667 119.095 123.958 123.804 C 119.24 128.522 111.568 128.522 106.857 123.804 L 85.768 102.722 C 53.264 138.968 32.567 186.014 29.761 237.76 L 59.666 237.76 C 66.348 237.76 71.755 243.165 71.755 249.84 C 71.755 256.514 66.348 261.927 59.666 261.927 L 29.761 261.927 C 32.567 313.704 53.264 360.742 85.768 396.966 L 106.857 375.875 C 111.568 371.166 119.247 371.166 123.958 375.875 C 128.667 380.586 128.667 388.265 123.958 392.976 L 102.867 414.065 C 139.122 446.57 186.159 467.257 237.906 470.074 L 237.906 440.167 C 237.906 433.485 243.311 428.078 249.993 428.078 C 256.668 428.078 262.073 433.485 262.073 440.167 L 262.073 470.074 C 313.858 467.257 360.887 446.57 397.111 414.065 L 376.029 392.976 C 371.311 388.265 371.311 380.586 376.029 375.875 C 380.738 371.166 388.412 371.166 393.128 375.875 L 414.211 396.966 C 446.716 360.71 467.411 313.674 470.219 261.927 L 440.312 261.927 C 433.638 261.927 428.232 256.514 428.232 249.84 C 428.232 243.165 433.638 237.76 440.312 237.76 L 470.219 237.76 C 467.411 185.975 446.716 138.946 414.211 102.722 L 393.128 123.804 C 388.412 128.522 380.738 128.522 376.029 123.804 C 371.311 119.095 371.311 111.423 376.029 106.705 L 397.111 85.622 C 360.864 53.117 313.819 32.422 262.073 29.614 Z M 214.402 209.246 C 213.436 209.757 212.531 210.421 211.688 211.232 L 211.38 211.536 C 210.598 212.385 209.902 213.291 209.391 214.257 L 134.738 348.63 C 132.115 353.339 132.959 359.232 136.733 363.069 C 140.539 366.874 146.462 367.724 151.173 365.065 L 285.545 290.419 C 286.512 289.901 287.425 289.235 288.267 288.423 L 288.569 288.122 C 289.359 287.271 290.046 286.367 290.564 285.399 L 365.21 151.026 C 367.839 146.316 366.996 140.423 363.215 136.587 C 359.41 132.782 353.493 131.931 348.775 134.593 L 214.402 209.246 Z M 222.863 239.786 L 260.024 276.939 L 176.43 323.402 C 176.43 323.402 209.021 264.735 222.887 239.809 L 222.863 239.786 Z M 239.962 222.687 L 277.124 259.847 L 323.58 176.253 L 239.986 222.71 L 239.962 222.687 Z" fill-rule="evenodd" style=""/>
</svg>