<?xml version="1.0" encoding="utf-8"?>
<svg viewBox="0 0 500 500" xmlns="http://www.w3.org/2000/svg">
  <path d="M 417.176 325.411 C 411.727 319.961 405.674 315.173 399.118 311.163 L 399.118 70.259 C 399.098 56.969 388.358 46.208 375.067 46.188 L 354.787 46.188 L 354.787 31.578 C 354.767 18.302 344.007 7.522 330.716 7.507 L 78.195 7.507 C 64.905 7.522 54.144 18.307 54.144 31.578 L 54.144 373.478 C 54.144 386.749 64.924 397.509 78.195 397.529 L 98.455 397.529 L 98.475 412.12 C 98.475 425.411 109.255 436.171 122.526 436.191 L 259.405 436.191 C 271.685 462.364 294.899 481.767 322.84 489.2 C 350.782 496.637 380.577 491.342 404.239 474.723 C 427.902 458.105 443.001 431.877 445.492 403.053 C 447.982 374.255 437.611 345.825 417.141 325.391 L 417.176 325.411 Z M 78.195 383.79 C 72.491 383.79 67.879 379.157 67.879 373.473 L 67.879 31.573 C 67.879 25.894 72.491 21.261 78.195 21.261 L 330.716 21.261 C 336.415 21.261 341.028 25.894 341.028 31.573 L 341.028 46.188 L 122.521 46.188 C 109.25 46.208 98.49 56.969 98.47 70.259 L 98.47 383.79 L 78.195 383.79 Z M 122.521 422.452 C 116.822 422.452 112.21 417.824 112.21 412.12 L 112.21 70.259 C 112.21 64.561 116.842 59.928 122.521 59.928 L 375.062 59.928 C 380.766 59.928 385.374 64.561 385.394 70.259 L 385.394 304.199 C 362.24 294.644 336.32 294.335 312.947 303.282 C 289.578 312.254 270.509 329.829 259.689 352.401 L 136.435 352.401 C 132.719 352.495 129.765 355.554 129.765 359.27 C 129.765 362.987 132.719 366.04 136.435 366.14 L 254.339 366.14 C 252.222 373.144 250.896 380.382 250.408 387.68 L 136.435 387.68 C 132.719 387.775 129.765 390.833 129.765 394.55 C 129.765 398.266 132.719 401.32 136.435 401.419 L 250.388 401.419 C 250.877 408.538 252.142 415.602 254.164 422.452 L 122.521 422.452 Z M 407.442 454.055 C 391.681 469.796 370.315 478.654 348.012 478.634 C 325.73 478.634 304.349 469.776 288.602 454.015 C 272.84 438.253 263.988 416.867 263.988 394.585 C 263.988 372.287 272.84 350.921 288.602 335.154 C 304.344 319.393 325.73 310.541 348.012 310.521 C 370.315 310.521 391.681 319.353 407.442 335.115 C 423.224 350.881 432.076 372.282 432.076 394.585 C 432.076 416.887 423.224 438.273 407.442 454.055 Z M 220.359 266.508 L 340.131 266.508 C 343.848 266.608 346.807 269.662 346.807 273.378 C 346.807 277.094 343.848 280.148 340.131 280.248 L 220.379 280.248 C 218.511 280.307 216.723 279.605 215.378 278.3 C 214.058 277.015 213.296 275.226 213.296 273.378 C 213.296 271.51 214.058 269.736 215.378 268.456 C 216.723 267.151 218.511 266.449 220.379 266.508 L 220.359 266.508 Z M 277.782 316.364 C 277.782 320.16 274.708 323.234 270.912 323.253 L 220.374 323.253 C 218.506 323.293 216.718 322.591 215.373 321.306 C 214.053 320.001 213.291 318.232 213.291 316.364 C 213.291 314.516 214.053 312.742 215.373 311.442 C 216.718 310.157 218.506 309.455 220.374 309.494 L 270.912 309.494 C 274.708 309.494 277.782 312.568 277.782 316.364 Z M 390.082 364.76 L 390.082 364.78 C 392.747 367.465 392.747 371.804 390.082 374.489 L 340.186 424.404 C 337.501 427.089 333.162 427.089 330.477 424.404 L 305.878 399.825 C 304.598 398.545 303.875 396.791 303.875 394.983 C 303.875 393.15 304.598 391.401 305.878 390.116 C 308.568 387.431 312.927 387.431 315.592 390.116 L 335.284 409.808 L 380.333 364.76 L 380.353 364.78 C 381.638 363.475 383.386 362.757 385.215 362.757 C 387.028 362.757 388.776 363.475 390.082 364.78 L 390.082 364.76 Z M 257.776 159.579 L 324.365 159.579 C 326.253 159.579 328.041 158.817 329.346 157.457 C 330.632 156.097 331.334 154.264 331.234 152.381 C 330.263 133.306 322.243 115.268 308.742 101.768 C 295.237 88.263 277.199 80.242 258.13 79.251 C 256.262 79.171 254.408 79.854 253.068 81.139 C 251.703 82.444 250.926 84.233 250.926 86.121 L 250.926 152.709 C 250.926 156.505 254 159.579 257.776 159.579 Z M 264.646 93.748 C 291.382 98.146 312.339 119.104 316.738 145.84 L 264.646 145.84 L 264.646 93.748 Z M 243.494 245.083 C 263.286 245.103 282.315 237.511 296.657 223.891 C 310.999 210.271 319.562 191.665 320.574 171.893 C 320.668 170.025 319.971 168.197 318.686 166.832 C 317.381 165.472 315.592 164.715 313.704 164.715 L 246.727 164.715 L 246.727 97.738 L 246.747 97.738 C 246.727 95.85 245.97 94.056 244.605 92.756 C 243.245 91.471 241.412 90.788 239.548 90.868 C 212.499 92.288 188.159 107.776 175.431 131.692 C 162.703 155.609 163.46 184.427 177.393 207.661 C 191.327 230.875 216.429 245.103 243.514 245.118 L 243.494 245.083 Z M 243.494 231.344 C 233.745 231.344 224.111 229.087 215.373 224.748 L 244.156 178.394 L 306.077 178.394 C 300.956 208.966 274.494 231.363 243.499 231.344 L 243.494 231.344 Z M 232.988 105.325 L 232.988 167.903 C 232.988 168.606 233.062 169.303 233.202 170.005 L 203.776 217.33 C 184.278 201.683 175.794 176.058 182.101 151.868 C 188.403 127.677 208.329 109.444 232.988 105.32 L 232.988 105.325 Z M 136.43 328.544 L 194.361 328.544 C 198.152 328.544 201.225 325.47 201.225 321.674 L 201.225 264.735 C 201.225 262.907 200.508 261.153 199.203 259.873 C 197.917 258.588 196.169 257.865 194.361 257.865 L 136.43 257.865 C 132.634 257.865 129.56 260.939 129.56 264.735 L 129.56 321.674 C 129.56 323.503 130.298 325.236 131.583 326.541 C 132.868 327.822 134.617 328.544 136.43 328.544 Z M 143.314 271.605 L 187.491 271.605 L 187.491 314.785 L 143.314 314.785 L 143.314 271.605 Z" style=""/>
</svg>