<?xml version="1.0" encoding="utf-8"?>
<svg data-name="Layer 1" viewBox="0 0 100 100" x="0px" y="0px" xmlns="http://www.w3.org/2000/svg">
  <path d="M 42.543 82.394 C 42.556 82.394 42.568 82.394 42.581 82.394 C 43.708 82.373 44.604 81.443 44.584 80.316 L 43.564 25.45 C 43.542 24.324 42.606 23.399 41.486 23.448 C 40.359 23.47 39.463 24.399 39.483 25.526 L 40.503 80.393 C 40.525 81.506 41.435 82.394 42.543 82.394 Z M 57.462 82.394 C 58.571 82.394 59.481 81.506 59.502 80.392 L 60.522 25.525 C 60.543 24.399 59.647 23.469 58.519 23.447 C 58.506 23.447 58.494 23.447 58.481 23.447 C 57.372 23.447 56.462 24.336 56.441 25.45 L 55.421 80.316 C 55.4 81.442 56.296 82.373 57.424 82.394 C 57.437 82.394 57.45 82.394 57.462 82.394 Z M 77.505 23.448 C 76.336 23.429 75.436 24.296 75.4 25.422 L 73.358 88.879 C 73.358 90.889 71.724 92.524 69.719 92.524 L 30.291 92.524 C 28.28 92.524 26.645 90.889 26.644 88.813 L 24.604 25.42 C 24.567 24.294 23.647 23.423 22.5 23.446 C 21.373 23.483 20.49 24.425 20.526 25.551 L 22.565 88.877 C 22.565 93.137 26.03 96.603 30.291 96.603 L 69.719 96.603 C 73.976 96.603 77.438 93.137 77.437 88.943 L 79.478 25.55 C 79.514 24.427 78.63 23.484 77.505 23.448 Z M 82.666 13.247 L 66.233 13.247 L 64.529 5.023 C 64.333 4.076 63.499 3.397 62.532 3.397 L 37.477 3.397 C 36.509 3.397 35.675 4.076 35.479 5.023 L 33.775 13.247 L 17.334 13.247 C 16.208 13.247 15.294 14.161 15.294 15.287 C 15.294 16.413 16.208 17.327 17.334 17.327 L 35.432 17.327 C 35.432 17.327 35.433 17.327 35.434 17.327 L 64.564 17.327 C 64.566 17.327 64.568 17.327 64.57 17.327 C 64.571 17.327 64.573 17.327 64.575 17.327 L 82.666 17.327 C 83.792 17.327 84.706 16.413 84.706 15.287 C 84.706 14.161 83.792 13.247 82.666 13.247 Z M 37.943 13.247 L 39.138 7.478 L 60.872 7.478 L 62.067 13.247 L 37.943 13.247 Z" style=""/>
</svg>