<?xml version="1.0" encoding="utf-8"?>
<svg viewBox="0 0 500 500" xmlns="http://www.w3.org/2000/svg">
  <defs/>
  <path d="M 498.758 151.488 L 455.962 73.765 C 454.762 71.951 453.563 70.752 451.749 70.137 L 342.667 17.102 C 341.468 16.494 340.263 16.494 338.455 16.494 L 160.689 16.518 C 159.484 16.518 157.676 17.127 156.471 17.127 L 47.389 70.161 C 45.581 70.776 44.376 71.975 43.177 73.789 L 0.995 151.494 C -0.204 153.892 -0.204 156.314 0.387 158.719 C 0.995 159.327 0.995 160.532 1.586 161.117 L 242.624 479.879 C 244.438 482.283 246.837 483.506 249.849 483.506 C 252.862 483.506 255.261 482.307 257.075 479.879 L 498.113 161.117 C 498.728 160.508 499.312 159.918 499.312 158.719 C 500.56 156.314 499.951 153.916 498.752 151.494 L 498.758 151.488 Z M 478.252 150.897 L 357.118 199.105 L 348.693 135.832 L 444.494 89.438 L 478.252 150.897 Z M 143.22 218.972 L 219.135 418.444 L 35.343 176.206 L 143.22 218.972 Z M 331.224 140.044 L 339.654 203.317 L 160.689 203.317 L 169.114 140.044 L 331.224 140.044 Z M 336.051 221.395 L 249.874 448.568 L 163.696 221.395 L 336.051 221.395 Z M 356.527 218.972 L 464.38 176.176 L 280.612 418.438 L 356.527 218.972 Z M 163.106 33.981 L 337.244 33.981 L 427.634 77.971 L 337.244 121.966 L 163.106 121.966 L 72.716 77.971 L 163.106 33.981 Z M 55.229 90.023 L 151.03 136.423 L 142.605 199.695 L 21.471 151.488 L 55.229 90.023 Z"/>
</svg>