<?xml version="1.0" encoding="utf-8"?>
<svg viewBox="0 0 500 500" xmlns="http://www.w3.org/2000/svg">
  <defs/>
  <title>Ethereum icon</title>
  <g transform="matrix(5.624867, 0, 0, 5.624867, -31.243679, -31.244408)">
    <path d="m91.832 89.223h-83.664c-1.4453 0-2.6133 1.168-2.6133 2.6094 0 1.4453 1.168 2.6133 2.6133 2.6133h83.668c1.4453 0 2.6094-1.168 2.6094-2.6094 0-1.4453-1.168-2.6133-2.6133-2.6133z"/>
    <path d="m50 5.5547c-1.4453 0-2.6094 1.168-2.6094 2.6094v56.332l-9.4453-9.4727c-1.0273-1.0273-2.668-1.0273-3.6953 0-1.0273 1.0273-1.0273 2.668 0 3.6953l13.918 13.945c0.027343 0.027344 0.082031 0.054688 0.10938 0.082032 0.22266 0.19531 0.47266 0.39062 0.72266 0.5 0.30469 0.14062 0.66797 0.19531 1 0.19531 0.35938 0 0.69531-0.082031 1-0.19531 0.30469-0.14062 0.60938-0.33203 0.83203-0.55469l13.945-13.945c1.0273-1.0273 1.0273-2.668 0-3.6953-1.0273-1.0273-2.668-1.0273-3.6953 0l-9.4727 9.4727v-56.355c0-1.4453-1.1641-2.6133-2.6094-2.6133z"/>
  </g>
</svg>