<?xml version="1.0" encoding="utf-8"?>
<svg xmlns="http://www.w3.org/2000/svg" width="300mm" height="300mm" viewBox="0 0 300 300" id="bride-wedding-dress">
  <g transform="matrix(5.324002, 0, 0, 5.324002, -20.636459, -20.368074)" style="">
    <path d="M37,8.683c-2.014,0.201 -3.664,0.801 -5.021,2.569c-1.351,-1.866 -2.794,-2.431 -4.979,-2.599l0,-3.653c0,-0.552 -0.448,-1 -1,-1c-0.552,-0 -1,0.448 -1,1l0,3.586c-0.683,-0.004 -1.428,0.001 -2.245,0.001c-0.27,0 -0.529,0.11 -0.717,0.304c-0.189,0.193 -0.29,0.455 -0.282,0.725c-0,0 0.325,10.111 2.896,15.457c-0.311,0.28 -0.566,0.627 -0.741,1.026l-4.594,10.5c-0.222,0.506 0.009,1.096 0.515,1.317c0.505,0.221 1.096,-0.009 1.317,-0.515l4.595,-10.5c0.159,-0.364 0.519,-0.6 0.917,-0.599c2.516,0.002 7.999,0.007 10.504,0.009c0.393,0 0.75,0.232 0.911,0.591c1.982,4.421 8.997,20.072 11.891,26.53c0.139,0.309 0.111,0.668 -0.073,0.952c-0.184,0.285 -0.5,0.457 -0.839,0.457l-9.279,-0l-2.709,-11.86c-0.123,-0.538 -0.66,-0.875 -1.198,-0.752c-0.538,0.122 -0.875,0.659 -0.752,1.197l3.05,13.351c0.068,0.297 -0.003,0.608 -0.193,0.846c-0.19,0.238 -0.478,0.377 -0.782,0.377c0,-0 -10.253,0 -10.253,0c-0.305,-0 -0.592,-0.139 -0.782,-0.377c-0.19,-0.238 -0.261,-0.549 -0.193,-0.846l5.215,-22.829c0.123,-0.538 -0.214,-1.075 -0.752,-1.197c-0.538,-0.123 -1.075,0.214 -1.198,0.752l-4.874,21.338l-9.308,-0c-0.338,-0 -0.653,-0.171 -0.837,-0.453c-0.185,-0.282 -0.215,-0.639 -0.08,-0.948l5.706,-13.039c0.221,-0.506 -0.009,-1.096 -0.515,-1.317c-0.506,-0.221 -1.096,0.009 -1.317,0.515c-0,0 -3.715,8.49 -5.706,13.039c-0.406,0.928 -0.316,1.997 0.238,2.845c0.554,0.847 1.498,1.358 2.511,1.358l8.896,-0c-0.039,0.727 0.189,1.451 0.65,2.029c0.569,0.714 1.433,1.13 2.346,1.13l10.253,-0c0.913,-0 1.777,-0.416 2.346,-1.13c0.461,-0.578 0.689,-1.302 0.65,-2.029l8.866,-0c1.018,-0 1.966,-0.516 2.519,-1.37c0.552,-0.853 0.635,-1.929 0.219,-2.857c-2.894,-6.458 -9.909,-22.109 -11.891,-26.53c-0.159,-0.356 -0.382,-0.67 -0.653,-0.931c2.605,-5.329 2.936,-15.537 2.936,-15.537c0.008,-0.27 -0.094,-0.532 -0.282,-0.725c-0.189,-0.194 -0.447,-0.304 -0.718,-0.304c-0.765,0 -1.493,-0.007 -2.184,0.001l0,-3.588c-0,-0.552 -0.448,-1 -1,-1c-0.552,0 -1,0.448 -1,1l0,3.683Zm0.43,15.64c2.012,-4.003 2.569,-11.106 2.711,-13.742c-1.143,-0.012 -2.186,-0.023 -3.135,0.088c-1.593,0.188 -2.885,0.765 -3.912,2.503c-0.02,0.033 -2.764,4.111 -2.764,4.111c-0.307,0.458 -0.929,0.58 -1.387,0.273c-0.459,-0.308 -0.581,-0.929 -0.273,-1.388l2.097,-3.126c-1.18,-1.928 -2.403,-2.355 -4.382,-2.444c-0.757,-0.033 -1.609,-0.023 -2.586,-0.015c0.142,2.633 0.699,9.712 2.702,13.723c0.054,-0.003 0.107,-0.004 0.161,-0.004c2.517,0.002 8,0.007 10.505,0.009c0.088,0 0.176,0.004 0.263,0.012Z"/>
  </g>
</svg>