<?xml version="1.0" encoding="utf-8"?>
<svg viewBox="0 0 500 500" xmlns="http://www.w3.org/2000/svg">
  <defs/>
  <title>Ethereum icon</title>
  <path d="M 282.368 309.878 C 274.313 309.878 267.793 303.34 267.793 295.309 C 267.793 287.182 274.24 280.716 282.744 280.716 C 290.799 280.716 297.337 287.23 297.337 295.309 C 297.337 303.437 290.896 309.878 282.392 309.878 L 282.368 309.878 Z M 108.465 497.901 L 217.688 432.985 C 220.053 431.584 222.025 429.521 223.298 426.944 L 271.111 344.116 C 275.114 337.147 272.724 328.286 265.755 324.283 C 258.816 320.28 249.931 322.67 245.928 329.639 L 204.963 400.596 L 122.487 352.972 L 260.448 113.988 L 342.923 161.613 L 293.928 246.502 C 289.925 253.441 292.339 262.326 299.284 266.329 C 306.247 270.338 315.108 267.943 319.111 260.98 L 400.828 119.417 C 420.255 85.773 415.543 54.118 399.027 31.755 C 386.284 14.457 366.238 2.873 344.87 0.477 C 317.243 -2.623 287.463 9.15 268.011 42.818 L 90.505 350.321 C 88.655 353.305 88.037 355.604 88.085 358.994 L 86.502 484.327 C 85.932 497.119 98.985 503.566 108.416 497.974 L 108.465 497.901 Z M 181.484 420.618 L 115.907 459.611 L 116.877 383.322 L 181.484 420.642 L 181.484 420.618 Z M 275.023 88.757 L 293.219 57.217 C 305.919 35.213 324.612 27.437 341.692 29.36 C 348.419 30.118 354.89 32.295 360.695 35.637 C 383.53 48.811 392.107 76.414 375.67 104.89 L 357.492 136.375 L 275.023 88.757 Z" fill-rule="evenodd"/>
</svg>