<?xml version="1.0" encoding="utf-8"?>
<svg xmlns="http://www.w3.org/2000/svg" viewBox="0 0 500 500">
  <path d="M 10.177 201.26 L 67.108 228.874 L 67.108 356.391 C 67.108 359.758 68.891 362.817 71.752 364.51 C 132.159 400.372 190.447 418.195 246.3 418.195 C 302.34 418.195 355.797 400.174 406.422 364.055 C 408.897 362.273 410.362 359.411 410.362 356.431 L 410.362 228.874 L 453.72 207.874 L 453.72 319.846 L 434.422 338.253 C 432.521 340.035 431.561 342.51 431.561 345.104 L 431.561 416.115 C 431.561 419.472 433.343 422.65 436.313 424.234 C 437.789 425.007 439.373 425.512 440.957 425.512 C 442.66 425.512 444.205 425.125 445.719 424.234 L 463.235 414.026 L 480.68 424.234 C 483.542 425.937 487.215 425.937 490.077 424.234 C 493.057 422.531 494.829 419.472 494.829 416.115 L 494.829 345.104 C 494.829 342.51 493.75 340.035 491.968 338.253 L 472.67 319.846 L 472.67 192.715 C 472.67 192.329 472.67 191.943 472.552 191.517 L 472.552 191.21 C 472.443 190.893 472.443 190.507 472.363 190.2 L 472.363 190.002 C 472.245 189.616 472.057 189.23 471.977 188.923 C 471.977 188.804 471.858 188.804 471.858 188.735 C 471.74 188.418 471.552 188.151 471.354 187.844 C 471.354 187.725 471.245 187.646 471.245 187.646 C 471.047 187.339 470.858 187.071 470.542 186.755 L 470.433 186.646 C 470.235 186.329 469.928 186.141 469.73 185.943 C 469.621 185.834 469.542 185.834 469.542 185.755 C 469.225 185.448 468.957 185.25 468.651 185.052 C 468.344 184.864 467.957 184.665 467.571 184.477 C 467.571 184.477 467.452 184.477 467.452 184.359 L 243.092 75.446 C 240.498 74.168 237.438 74.168 234.894 75.446 L 10.533 184.359 C 7.285 185.943 5.196 189.19 5.196 192.874 C 4.919 196.388 6.899 199.676 10.186 201.26 L 10.177 201.26 Z M 475.799 349.084 L 475.799 399.67 L 467.789 395.036 C 464.819 393.333 461.254 393.333 458.274 395.036 L 450.155 399.788 L 450.155 349.203 L 463.037 336.936 L 475.799 349.084 Z M 391.451 351.441 C 298.162 415.997 198.18 415.799 85.911 350.936 L 85.911 237.964 L 234.547 310.143 C 235.814 310.717 237.211 311.143 238.716 311.143 C 240.191 311.143 241.508 310.836 242.894 310.143 L 391.53 237.964 L 391.451 351.441 Z M 238.676 94.317 L 441.452 192.755 L 387.57 218.894 C 387.184 219.092 386.797 219.211 386.491 219.399 L 238.666 291.064 L 90.841 219.478 C 90.455 219.28 90.138 219.092 89.752 218.973 L 35.88 192.824 L 238.676 94.317 Z" style=""/>
</svg>