<?xml version="1.0" encoding="utf-8"?>
<svg viewBox="0 0 500 500" xmlns="http://www.w3.org/2000/svg">
  <path d="M -70.148 -39.652 C -70.148 -37.925 -71.547 -36.527 -73.273 -36.527 C -74.996 -36.527 -76.398 -37.925 -76.398 -39.652 L -76.398 -59.445 C -76.398 -61.379 -75.629 -63.234 -74.262 -64.601 C -72.895 -65.968 -71.039 -66.738 -69.106 -66.738 L -0.356 -66.738 C 1.578 -66.738 3.434 -65.968 4.801 -64.601 C 6.168 -63.234 6.937 -61.378 6.937 -59.445 L 6.937 -13.609 C 6.937 -11.675 6.168 -9.82 4.801 -8.453 C 3.433 -7.086 1.578 -6.316 -0.356 -6.316 L -69.106 -6.316 C -71.039 -6.316 -72.895 -7.086 -74.262 -8.453 C -75.629 -9.82 -76.398 -11.675 -76.398 -13.609 L -76.398 -22.984 C -76.398 -24.711 -74.996 -26.109 -73.273 -26.109 C -71.547 -26.109 -70.148 -24.711 -70.148 -22.984 L -70.148 -13.609 C -70.148 -13.332 -70.039 -13.07 -69.844 -12.875 C -69.648 -12.679 -69.383 -12.57 -69.105 -12.57 L -0.355 -12.57 C -0.078 -12.57 0.184 -12.679 0.383 -12.875 C 0.578 -13.07 0.688 -13.336 0.688 -13.609 L 0.688 -59.445 C 0.688 -59.722 0.578 -59.984 0.383 -60.179 C 0.188 -60.375 -0.078 -60.484 -0.355 -60.484 L -69.105 -60.484 C -69.383 -60.484 -69.645 -60.375 -69.844 -60.179 C -70.039 -59.984 -70.148 -59.718 -70.148 -59.445 L -70.148 -39.652 Z M -59.367 -49.023 C -60.809 -49.972 -61.207 -51.914 -60.258 -53.351 C -59.309 -54.793 -57.367 -55.191 -55.93 -54.242 L -34.735 -40.273 L -13.54 -54.242 C -12.099 -55.191 -10.161 -54.793 -9.212 -53.351 C -8.263 -51.91 -8.661 -49.972 -10.102 -49.023 L -33.016 -33.918 C -34.059 -33.231 -35.411 -33.231 -36.458 -33.918 L -59.372 -49.023 L -59.367 -49.023 Z" fill-rule="evenodd"/>
  <path d="M 40.978 231.558 C 40.978 241.75 32.722 250 22.535 250 C 12.367 250 4.093 241.75 4.093 231.558 L 4.093 114.748 C 4.093 103.34 8.631 92.386 16.705 84.32 C 24.772 76.251 35.72 71.708 47.133 71.708 L 452.867 71.708 C 464.275 71.708 475.228 76.251 483.295 84.32 C 491.363 92.386 495.907 103.34 495.907 114.748 L 495.907 385.252 C 495.907 396.666 491.363 407.614 483.295 415.682 C 475.228 423.754 464.275 428.292 452.867 428.292 L 47.133 428.292 C 35.72 428.292 24.772 423.754 16.705 415.682 C 8.631 407.614 4.093 396.666 4.093 385.252 L 4.093 329.925 C 4.093 319.739 12.367 311.482 22.535 311.482 C 32.722 311.482 40.978 319.739 40.978 329.925 L 40.978 385.252 C 40.978 386.893 41.621 388.434 42.777 389.59 C 43.929 390.741 45.499 391.384 47.133 391.384 L 452.867 391.384 C 454.502 391.384 456.048 390.741 457.223 389.59 C 458.373 388.434 459.022 386.869 459.022 385.252 L 459.022 114.748 C 459.022 113.112 458.373 111.566 457.223 110.416 C 456.071 109.265 454.502 108.615 452.867 108.615 L 47.133 108.615 C 45.499 108.615 43.953 109.265 42.777 110.416 C 41.621 111.566 40.978 113.136 40.978 114.748 L 40.978 231.558 Z M 104.603 176.254 C 96.093 170.653 93.744 159.198 99.344 150.712 C 104.946 142.208 116.406 139.853 124.887 145.453 L 249.97 227.892 L 375.055 145.453 C 383.565 139.853 394.996 142.208 400.597 150.712 C 406.203 159.216 403.848 170.653 395.345 176.254 L 260.115 265.398 C 253.96 269.457 245.981 269.457 239.802 265.398 L 104.573 176.254 L 104.603 176.254 Z" fill-rule="evenodd" style=""/>
</svg>