<?xml version="1.0" encoding="utf-8"?>
<svg xmlns="http://www.w3.org/2000/svg" viewBox="0 0 500 500">
  <path d="M 250.001 6.121 C 384.694 6.121 493.879 115.306 493.879 249.999 C 493.879 384.695 384.694 493.879 250.001 493.879 C 115.305 493.879 6.121 384.695 6.121 249.999 C 6.121 115.306 115.305 6.121 250.001 6.121 Z M 414.701 167.204 C 406.791 179.942 402.517 195.734 398.287 211.412 C 385.492 258.82 372.913 305.358 275.051 297.531 C 265.077 318.67 256.674 345.893 252.7 380.98 C 257.369 406.571 259.156 437.35 255.84 474.27 C 377.18 471.192 474.345 371.82 474.345 249.999 C 474.345 126.096 373.904 25.655 250.001 25.655 C 126.094 25.655 25.655 126.096 25.655 249.999 C 25.655 368.961 118.424 466.838 236.292 473.929 C 246.404 364.526 209.684 313.322 189.917 291.384 C 176.784 302.154 157.886 303.507 143.262 294.011 L 120.81 279.425 C 116.277 276.481 114.986 270.464 118.026 265.836 L 88.042 246.378 C 77.293 239.405 87.905 223.071 98.653 230.049 L 128.637 249.5 L 139.742 232.389 L 109.762 212.938 C 99.014 205.964 109.619 189.631 120.372 196.605 L 150.353 216.062 C 153.436 211.373 159.376 210.135 163.903 213.08 C 182.308 225.02 199.155 232.177 203.508 252.599 C 205.096 260.052 204.541 267.941 201.658 275.312 C 211.972 286.297 228.286 305.612 240.62 337.444 C 245.351 318.048 251.449 301.559 258.204 287.513 C 258.503 284.766 226.515 184.55 337.13 157.209 C 358.371 151.96 382.375 150.311 407.349 151.905 C 414.981 152.419 418.937 161.101 414.705 167.2 L 414.701 167.204 Z M 181.487 271.999 C 187.628 262.004 184.941 249.986 175.705 244.003 L 161.422 234.724 L 139.563 268.404 C 150.174 275.276 158.079 282.749 168.97 280.422 C 173.914 279.369 178.488 276.492 181.487 271.999 Z M 273.623 260.651 C 290.769 235.594 307.938 222.878 317.973 215.309 C 327.826 207.856 340.74 222.501 328.879 231.485 C 319.641 238.479 301.695 252.091 285.287 278.633 C 380.422 282.426 369.353 220.435 390.915 170.857 C 331.864 170.441 269.035 191.127 273.623 260.645 L 273.623 260.651 Z" fill-rule="evenodd" style=""/>
</svg>