<?xml version="1.0" encoding="utf-8"?>
<svg viewBox="0 0 500 500" xmlns="http://www.w3.org/2000/svg">
  <defs/>
  <path d="M 499.353 249.995 C 499.278 183.708 472.915 120.179 426.045 73.308 C 379.165 26.428 315.645 0.075 249.358 0 C -82.294 13.713 -82.219 486.325 249.358 500 C 315.645 499.925 379.174 473.562 426.045 426.692 C 472.915 379.812 499.278 316.292 499.353 250.005 L 499.353 249.995 Z M 249.358 470.588 C 190.864 470.513 134.798 447.275 93.442 405.92 C 52.078 364.555 28.849 308.489 28.774 250.005 C 40.868 -42.645 457.894 -42.569 469.951 250.005 C 469.875 308.499 446.638 364.565 405.282 405.92 C 363.918 447.275 307.852 470.513 249.367 470.588 L 249.358 470.588 Z"/>
  <title>Ethereum icon</title>
  <path d="M 249.176 337.742 L 140.945 273.809 L 249.162 426.367 L 357.48 273.809 L 249.132 337.742 L 249.176 337.742 Z M 250.823 73.633 L 142.562 253.278 L 250.809 317.269 L 359.054 253.336 L 250.823 73.633 Z" style=""/>
</svg>