<?xml version="1.0" encoding="utf-8"?>
<svg viewBox="0 0 500 500" xmlns="http://www.w3.org/2000/svg">
  <g transform="matrix(0.505691, 0, 0, 0.505691, 1.157412, 246.269226)" style="">
    <path d="M 141.866 358.18 L 130.846 351.094 C 120.138 346.91 106.828 349.622 98.293 358.158 L 19.664 436.763 C 1.197 455.508 13.939 489.005 41.78 489.005 C 49.701 489.005 57.599 486.015 63.556 480.018 L 142.186 401.412 C 152.823 390.617 153.727 373.344 144.445 361.077 C 143.68 360.104 142.817 359.131 141.866 358.18 Z M 172.49 315.563 L 184.466 327.534 L 156.984 354.988 L 151.578 348.423 L 145.012 343.016 L 172.49 315.563 Z" fill-rule="evenodd" style=""/>
  </g>
  <g style="" transform="matrix(1.282703, 0, 0, 1.282703, -70.675751, -70.675751)">
    <path d="M 110.698 377.444 L 122.597 389.335 L 110.698 377.444 Z M 250.011 74.897 C 153.304 74.897 74.902 153.298 74.902 250.03 L 74.878 250.03 C 74.878 298.77 96.44 350.357 136.756 383.587 L 136.78 383.604 L 137.275 384.011 C 169.768 411.399 209.898 425.11 250.011 425.11 C 346.742 425.11 425.122 346.73 425.122 250.024 C 425.122 153.315 346.719 74.89 250.011 74.89 L 250.011 74.897 Z M 138.085 138.098 C 76.276 199.905 76.276 300.118 138.085 361.932 C 199.893 423.741 300.107 423.741 361.92 361.932 C 423.752 300.123 423.752 199.91 361.92 138.098 C 300.135 76.29 199.916 76.29 138.085 138.098 Z" fill-rule="evenodd" style=""/>
    <g style="" transform="matrix(0.975793, 0, 0, 0.975793, 6.051762, -5.804944)">
      <path d="M 185.784 267.444 C 183.743 269.521 180.376 269.557 178.3 267.516 C 176.223 265.475 176.192 262.108 178.233 260.032 L 225.293 212.047 C 227.035 210.265 229.723 209.989 231.763 211.19 L 267.013 232.034 L 305.893 191.047 L 299.405 191.047 C 296.475 191.047 294.104 188.658 294.104 185.724 C 294.104 182.795 296.475 180.406 299.405 180.406 L 318.226 180.406 C 321.155 180.406 323.527 182.777 323.527 185.724 C 323.527 185.898 323.513 186.072 323.513 186.251 L 323.352 205.733 C 323.321 208.645 320.928 211.002 318.016 210.984 C 315.105 210.966 312.747 208.578 312.765 205.644 L 312.837 199.12 L 271.952 242.242 C 270.313 244.122 267.504 244.649 265.271 243.323 L 229.946 222.442 L 185.784 267.444 Z M 324.996 304.614 L 324.996 221.969 L 303.401 221.969 L 303.401 319.578 L 324.996 319.578 L 324.996 304.614 Z M 260.596 319.578 L 282.191 319.578 L 282.191 264.948 L 260.596 264.948 L 260.596 319.578 Z M 217.791 319.578 L 239.386 319.578 L 239.386 245.917 L 217.791 245.917 L 217.791 319.578 Z M 175.004 319.578 L 175.004 285.547 L 196.599 285.547 L 196.599 319.595 L 175.004 319.578 Z" fill-rule="evenodd" style=""/>
    </g>
  </g>
</svg>