<?xml version="1.0" encoding="utf-8"?>
<svg viewBox="0 0 500 500" xmlns="http://www.w3.org/2000/svg">
  <defs/>
  <path d="M 412.862 85.414 C 409.5 82.052 404.034 82.052 400.672 85.414 L 83.689 402.397 C 80.327 405.759 80.327 411.224 83.689 414.586 C 87.051 417.948 92.517 417.948 95.879 414.586 L 412.862 97.604 C 416.224 94.242 416.224 88.793 412.862 85.414 Z" fill="black"/>
  <path d="M 30.879 215.569 C 21.379 229.845 17.241 242.552 17.241 251.742 C 17.241 260.017 21.5 271.655 31.138 285.138 C 40.62 298.414 54.776 312.69 73.138 326.086 C 76.982 328.879 77.827 334.276 75.017 338.138 C 72.207 341.983 66.81 342.828 62.965 340 C 43.396 325.724 27.845 310.19 17.103 295.155 C 6.517 280.345 0 265.155 0 251.742 C 0 237.948 5.931 221.914 16.534 206.017 C 27.241 189.948 43.103 173.414 63.965 158.517 C 105.741 128.673 167.879 105.19 250 105.19 C 265.465 105.19 280.224 106.017 294.258 107.569 C 299 108.086 302.413 112.345 301.879 117.086 C 301.362 121.811 297.103 125.224 292.379 124.707 C 278.965 123.224 264.845 122.431 250 122.431 C 171.224 122.431 112.655 144.931 73.982 172.552 C 54.62 186.379 40.293 201.448 30.879 215.569 Z" fill="black"/>
  <path d="M 421.776 159.052 C 424.5 155.155 429.862 154.19 433.776 156.914 C 455.379 171.966 471.81 188.776 482.879 205.138 C 493.862 221.345 500 237.707 500 251.742 C 500 265.931 492.724 282.138 480.931 297.862 C 468.965 313.811 451.638 330.259 429.862 345.069 C 386.276 374.724 324.258 398.293 250 398.293 C 231.172 398.293 213.138 396.776 195.982 394.035 C 191.276 393.276 188.086 388.845 188.827 384.155 C 189.586 379.448 194 376.242 198.707 377 C 214.982 379.604 232.103 381.052 250 381.052 C 320.586 381.052 379.258 358.638 420.155 330.811 C 440.62 316.897 456.482 301.724 467.138 287.517 C 477.965 273.069 482.758 260.535 482.758 251.742 C 482.758 242.379 478.482 229.362 468.62 214.811 C 458.845 200.397 444 185.035 423.913 171.052 C 420.017 168.328 419.051 162.966 421.776 159.052 Z" fill="black"/>
  <path d="M 250 156.914 C 197.638 156.914 155.172 199.362 155.172 251.742 C 155.172 256.5 151.31 260.362 146.551 260.362 C 141.793 260.362 137.931 256.5 137.931 251.742 C 137.931 189.845 188.103 139.673 250 139.673 C 254.758 139.673 258.62 143.517 258.62 148.293 C 258.62 153.052 254.758 156.914 250 156.914 Z" fill="black"/>
  <path d="M 353.448 243.121 C 358.207 243.121 362.069 246.966 362.069 251.742 C 362.069 313.638 311.896 363.811 250 363.811 C 245.241 363.811 241.379 359.948 241.379 355.19 C 241.379 350.414 245.241 346.569 250 346.569 C 302.379 346.569 344.827 304.104 344.827 251.742 C 344.827 246.966 348.689 243.121 353.448 243.121 Z" fill="black"/>
</svg>