<?xml version="1.0" encoding="utf-8"?>
<svg viewBox="0 0 500 500" xmlns="http://www.w3.org/2000/svg">
  <defs/>
  <path fill-rule="evenodd" clip-rule="evenodd" d="M 185.185 250 C 185.185 214.204 214.204 185.185 250 185.185 C 285.797 185.185 314.815 214.204 314.815 250 C 314.815 285.796 285.797 314.815 250 314.815 C 214.204 314.815 185.185 285.796 185.185 250 Z M 250 203.704 C 224.426 203.704 203.704 224.426 203.704 250 C 203.704 275.574 224.426 296.296 250 296.296 C 275.574 296.296 296.297 275.574 296.297 250 C 296.297 224.426 275.574 203.704 250 203.704 Z" fill="black"/>
  <path fill-rule="evenodd" clip-rule="evenodd" d="M 129.63 250 C 129.63 183.519 183.519 129.63 250 129.63 C 316.482 129.63 370.371 183.519 370.371 250 C 370.371 316.482 316.482 370.371 250 370.371 C 183.519 370.371 129.63 316.482 129.63 250 Z M 250 148.148 C 193.741 148.148 148.148 193.741 148.148 250 C 148.148 306.241 193.741 351.852 250 351.852 C 306.241 351.852 351.852 306.241 351.852 250 C 351.852 193.741 306.241 148.148 250 148.148 Z" fill="black"/>
  <path fill-rule="evenodd" clip-rule="evenodd" d="M 250 92.593 C 167.797 92.593 105.593 117.908 63.797 150.056 C 42.926 166.13 27.093 183.908 16.426 201.148 C 5.852 218.241 0 235.352 0 250 C 0 265.037 7.167 282.334 18.963 299.259 C 30.908 316.426 48.222 334.111 69.982 350.056 C 113.556 381.982 175.63 407.408 250 407.408 C 324.352 407.408 386.426 381.982 430 350.056 C 451.778 334.111 469.093 316.426 481.037 299.259 C 492.834 282.334 500 265.037 500 250 C 500 235.352 494.148 218.241 483.556 201.148 C 472.889 183.908 457.074 166.13 436.204 150.056 C 394.389 117.908 332.204 92.593 250 92.593 Z M 18.519 250 C 18.519 239.945 22.704 226.204 32.167 210.889 C 41.574 195.722 55.834 179.556 75.093 164.741 C 113.537 135.167 171.704 111.111 250 111.111 C 328.278 111.111 386.463 135.167 424.908 164.741 C 444.167 179.556 458.426 195.722 467.815 210.889 C 477.297 226.204 481.482 239.945 481.482 250 C 481.482 259.648 476.611 273.204 465.834 288.685 C 455.204 303.945 439.426 320.204 419.056 335.13 C 378.371 364.926 320.074 388.889 250 388.889 C 179.908 388.889 121.611 364.926 80.926 335.13 C 60.574 320.204 44.778 303.945 34.167 288.685 C 23.389 273.204 18.519 259.648 18.519 250 Z" fill="black"/>
</svg>