<?xml version="1.0" encoding="utf-8"?>
<svg viewBox="0 0 500 500" xmlns="http://www.w3.org/2000/svg">
  <defs/>
  <path d="M 194.195 166.221 C 202.385 166.221 209.027 172.863 209.027 181.022 C 209.027 185.491 207.06 189.456 203.964 192.194 C 189.727 204.883 180.759 223.352 180.759 243.934 C 180.759 253.641 182.757 262.876 186.356 271.279 C 187.248 273.186 187.759 275.298 187.759 277.532 C 187.759 285.722 181.117 292.372 172.92 292.372 C 166.789 292.372 161.481 288.613 159.247 283.282 C 154.008 271.218 151.087 257.904 151.087 243.934 C 151.087 214.834 163.662 188.709 183.619 170.628 L 183.649 170.598 C 186.295 167.913 190.055 166.213 194.165 166.213 L 194.188 166.213 L 194.195 166.221 Z M 249.985 133.956 L 249.985 133.987 L 249.954 133.987 L 249.626 133.987 C 226.749 133.987 204.948 136.374 184.419 140.69 L 184.358 140.72 C 150.287 162.408 127.677 200.536 127.677 243.934 C 127.677 311.459 182.452 366.242 250.015 366.242 C 317.541 366.242 372.323 311.459 372.323 243.934 C 372.323 200.528 349.713 162.408 315.634 140.69 L 315.604 140.69 C 294.961 136.313 273.007 133.956 249.985 133.956 Z M 249.985 104.109 L 249.985 104.14 L 250.046 104.14 L 250.107 104.14 C 364.316 104.14 466.363 160.112 500 241.821 L 500 241.882 C 479.144 292.464 431.964 333.215 371.942 356.862 L 371.912 356.893 C 385.135 342.595 395.826 326.062 403.421 307.829 L 403.421 307.799 C 431.392 289.894 453.079 267.322 466.516 242.21 L 466.546 241.524 C 449.297 209.145 418.23 180.991 377.806 161.607 L 377.745 161.607 C 393.088 185.315 401.964 213.584 401.964 243.941 C 401.964 327.854 333.928 395.891 250.015 395.891 C 166.072 395.891 98.036 327.854 98.036 243.941 C 98.036 213.584 106.942 185.315 122.255 161.577 L 122.224 161.607 C 81.74 180.969 50.673 209.145 33.423 241.524 L 33.477 242.264 C 46.913 267.345 68.631 289.924 96.572 307.799 L 96.572 307.829 C 104.167 326.032 114.858 342.618 128.058 356.862 L 128.027 356.893 C 68.006 333.208 20.879 292.456 0 241.882 L 0 241.852 C 33.629 160.082 135.745 104.117 249.977 104.117 L 249.985 104.109 Z"/>
</svg>