<?xml version="1.0" encoding="utf-8"?>
<svg xmlns="http://www.w3.org/2000/svg" viewBox="0 0 500 500">
  <g transform="matrix(7.251553, 0, 0, 7.251553, -1955.345947, -667.651367)" style="">
    <path d="M 305.681 93.214 C 306.833 93.214 307.767 94.144 307.767 95.296 C 307.767 96.448 306.833 97.378 305.681 97.378 L 280.681 97.378 C 277.232 97.378 274.431 100.179 274.431 103.628 L 274.431 149.464 C 274.431 152.913 277.232 155.714 280.681 155.714 L 309.849 155.714 C 313.302 155.714 316.099 152.913 316.099 149.464 L 316.099 132.405 C 316.099 131.253 317.033 130.323 318.181 130.323 C 319.333 130.323 320.267 131.253 320.267 132.405 L 320.267 149.464 C 320.267 155.214 315.603 159.878 309.849 159.878 L 280.681 159.878 C 274.931 159.878 270.267 155.214 270.267 149.464 L 270.267 103.628 C 270.267 97.878 274.931 93.214 280.681 93.214 L 305.681 93.214 Z"/>
    <path d="M 308.337 106.069 C 308.978 106.174 309.599 106.335 310.196 106.549 C 310.485 106.655 310.767 106.772 311.044 106.901 C 313.196 107.913 314.939 109.655 315.95 111.811 C 316.079 112.085 316.196 112.37 316.302 112.655 C 316.517 113.253 316.681 113.874 316.782 114.514 C 316.802 114.628 316.817 114.745 316.829 114.858 C 316.919 115.557 317.478 116.128 318.181 116.128 C 318.884 116.128 319.446 115.557 319.532 114.858 C 319.548 114.745 319.564 114.628 319.583 114.514 C 319.685 113.874 319.845 113.253 320.064 112.655 C 320.165 112.37 320.282 112.085 320.415 111.811 C 321.423 109.655 323.165 107.913 325.321 106.901 C 325.599 106.772 325.88 106.655 326.169 106.549 C 326.763 106.335 327.384 106.174 328.028 106.069 C 328.142 106.053 328.255 106.038 328.368 106.022 C 329.067 105.936 329.642 105.374 329.642 104.67 C 329.642 103.967 329.067 103.405 328.368 103.319 C 328.255 103.303 328.142 103.288 328.028 103.272 C 327.384 103.166 326.763 103.006 326.169 102.791 C 325.88 102.686 325.599 102.569 325.321 102.44 C 323.165 101.428 321.423 99.686 320.415 97.53 C 320.282 97.256 320.165 96.971 320.064 96.686 C 319.845 96.088 319.685 95.467 319.583 94.827 C 319.564 94.713 319.548 94.596 319.532 94.483 C 319.446 93.784 318.884 93.213 318.181 93.213 C 317.478 93.213 316.919 93.784 316.829 94.483 C 316.817 94.596 316.802 94.713 316.782 94.827 C 316.681 95.467 316.517 96.088 316.302 96.686 C 316.196 96.971 316.079 97.256 315.95 97.53 C 314.939 99.686 313.196 101.428 311.044 102.44 C 310.767 102.569 310.485 102.686 310.196 102.791 C 309.599 103.006 308.978 103.166 308.337 103.272 C 308.224 103.288 308.11 103.303 307.993 103.319 C 307.298 103.405 306.724 103.967 306.724 104.67 C 306.724 105.374 307.298 105.936 307.993 106.022 C 308.11 106.038 308.224 106.053 308.337 106.069 Z M 318.181 107.487 C 317.38 106.421 316.431 105.475 315.368 104.671 C 316.431 103.866 317.38 102.921 318.181 101.854 C 318.985 102.921 319.935 103.866 320.997 104.671 C 319.935 105.475 318.985 106.421 318.181 107.487 Z" fill-rule="evenodd"/>
    <path d="M 282.767 117.171 C 281.615 117.171 280.681 118.104 280.681 119.253 C 280.681 120.405 281.615 121.339 282.767 121.339 L 308.806 121.339 C 309.958 121.339 310.892 120.405 310.892 119.253 C 310.892 118.105 309.958 117.171 308.806 117.171 L 282.767 117.171 Z"/>
    <path d="M 280.681 133.839 C 280.681 132.687 281.615 131.753 282.767 131.753 L 301.517 131.753 C 302.665 131.753 303.599 132.687 303.599 133.839 C 303.599 134.987 302.665 135.921 301.517 135.921 L 282.767 135.921 C 281.615 135.921 280.681 134.987 280.681 133.839 Z"/>
    <path d="M 328.599 111.964 C 329.751 111.964 330.681 112.894 330.681 114.046 L 330.681 119.327 C 331.908 118.62 333.329 118.214 334.849 118.214 L 335.892 118.214 C 337.04 118.214 337.974 119.143 337.974 120.296 C 337.974 121.448 337.04 122.378 335.892 122.378 L 334.849 122.378 C 332.548 122.378 330.681 124.245 330.681 126.546 L 330.681 127.589 C 330.681 128.737 329.751 129.671 328.599 129.671 C 327.447 129.671 326.517 128.737 326.517 127.589 L 326.517 126.546 C 326.517 125.026 326.923 123.604 327.63 122.378 L 322.349 122.378 C 321.197 122.378 320.267 121.448 320.267 120.296 C 320.267 119.143 321.197 118.214 322.349 118.214 L 326.517 118.214 L 326.517 114.046 C 326.517 112.894 327.447 111.964 328.599 111.964 Z"/>
  </g>
</svg>