<?xml version="1.0" encoding="utf-8"?>
<svg version="1.1" x="0px" y="0px" viewBox="0 0 100 100" enable-background="new 0 0 100 100" xmlns="http://www.w3.org/2000/svg">
  <defs/>
  <g transform="matrix(0.101462, 0, 0, 0.101462, -1.943442, -1.933522)">
    <g>
      <g>
        <path d="M701.8,361.9c0.5,9.3-0.5,18.8-1.7,28c0.4-2.7,0.7-5.3,1.1-8c-2.8,20-8.2,39.6-16,58.3c1-2.4,2-4.8,3-7.2     c-5,11.8-10.9,23.3-17.8,34.1c-3.7,5.8-7.7,11.3-11.7,16.8c5.8-8,1.4-1.8,0-0.1c-1,1.2-2,2.4-3,3.6c-2.6,3-5.2,6-7.9,8.9     c-5.5,5.9-11.4,11.5-17.4,16.9c-2.9,2.5-5.8,4.9-8.7,7.3c-1,0.8-6.2,4.9-1.9,1.6c4.2-3.2-1.4,1-2.6,1.9     c-11.9,8.8-24.3,16.7-37.2,24c-14.6,8.2-29.6,15.4-45,21.9c2.4-1,4.8-2,7.2-3c-48.3,20.4-99.1,31.9-149.1,47.1     c-10.7,3.2-21,7-31.2,11.4c-15.1,6.5-28.4,15.4-41,25.9C302.3,666.7,287,687.1,277,709c-5.6,12.1-11.3,25.2-13.4,38.5     c-1.3,8.2-1.3,15.7,3,23.1c3.6,6.2,10.8,12.2,17.9,13.8c7.7,1.7,16.3,1.4,23.1-3c6.2-4,12.6-10.4,13.8-17.9     c1.5-9.3,4.8-18.5,8.5-27.1c-1,2.4-2,4.8-3,7.2c2.8-6.5,6-12.8,9.6-18.9c2.2-3.6,4.5-7.1,6.9-10.5c0.6-0.9,1.3-1.8,2-2.7     c2.6-3.5-4.5,5.6-2.3,3c1.5-1.8,2.9-3.6,4.4-5.3c3-3.5,6.3-6.8,9.6-9.9c1.8-1.7,3.7-3.4,5.7-5c0.8-0.7,1.7-1.3,2.5-2     c2.4-2-6.8,5-1.9,1.5c9-6.5,18.6-12,28.8-16.4c-2.4,1-4.8,2-7.2,3c26.9-11.3,56.1-17.3,84.2-25.2c40.4-11.4,80.2-25,118.1-43.2     c41.3-19.9,81.2-46.8,111-81.9c26.3-31.1,46-67.5,56-107.1c3.8-15,6.2-30.4,7.3-45.8c0.4-5,0.6-10.1,0.4-15.1     c-0.9-15.6-13.2-30.8-30-30C716.3,332.6,700.8,345.1,701.8,361.9L701.8,361.9z"/>
      </g>
    </g>
    <g>
      <g>
        <path d="M322.3,830.1c0-21.2,0-42.4,0-63.6c0-50.6,0-101.1,0-151.7c0-61.1,0-122.3,0-183.4     c0-53.1,0-106.3,0-159.4c0-25.7,0.4-51.3,0-77c0-0.4,0-0.7,0-1.1c0-15.7-13.8-30.7-30-30c-16.3,0.7-30,13.2-30,30     c0,21.2,0,42.4,0,63.6c0,50.6,0,101.1,0,151.7c0,61.1,0,122.3,0,183.4c0,53.1,0,106.3,0,159.4c0,25.7-0.4,51.3,0,77     c0,0.4,0,0.7,0,1.1c0,15.7,13.8,30.7,30,30C308.6,859.4,322.3,846.9,322.3,830.1L322.3,830.1z"/>
      </g>
    </g>
    <g>
      <g>
        <path d="M774.2,289.5c0,3.3-0.2,6.5-0.6,9.7c0.4-2.7,0.7-5.3,1.1-8c-0.9,6.3-2.5,12.3-4.9,18.2c1-2.4,2-4.8,3-7.2     c-1.7,4.1-3.8,8-6.2,11.6c-0.1,0.2-2,3.3-2.2,3.2c-0.1,0,5-6.1,2.3-3c-1.6,1.8-3.1,3.6-4.8,5.3c-1.5,1.5-3.2,3-4.8,4.4     c-1.9,1.6-4.8,2.5,2.5-1.9c-0.9,0.6-1.8,1.3-2.7,1.9c-3.9,2.6-7.9,4.7-12.2,6.5c2.4-1,4.8-2,7.2-3c-5.9,2.4-11.9,4-18.2,4.9     c2.7-0.4,5.3-0.7,8-1.1c-6.5,0.8-12.9,0.8-19.4,0c2.7,0.4,5.3,0.7,8,1.1c-6.3-0.9-12.3-2.5-18.2-4.9c2.4,1,4.8,2,7.2,3     c-4.1-1.7-8-3.8-11.6-6.2c-0.2-0.1-3.3-2-3.2-2.2c0-0.1,6.1,5,3,2.3c-1.8-1.6-3.6-3.1-5.3-4.8c-1.5-1.5-3-3.2-4.4-4.8     c-1.6-1.9-2.5-4.8,1.9,2.5c-0.6-0.9-1.3-1.8-1.9-2.7c-2.6-3.9-4.7-7.9-6.5-12.2c1,2.4,2,4.8,3,7.2c-2.4-5.9-4-11.9-4.9-18.2     c0.4,2.7,0.7,5.3,1.1,8c-0.8-6.5-0.8-12.9,0-19.4c-0.4,2.7-0.7,5.3-1.1,8c0.9-6.3,2.5-12.3,4.9-18.2c-1,2.4-2,4.8-3,7.2     c1.7-4.1,3.8-8,6.2-11.6c0.1-0.2,2-3.3,2.2-3.2c0.1,0-5,6.1-2.3,3c1.6-1.8,3.1-3.6,4.8-5.3c1.5-1.5,3.2-3,4.8-4.4     c1.9-1.6,4.8-2.5-2.5,1.9c0.9-0.6,1.8-1.3,2.7-1.9c3.9-2.6,7.9-4.7,12.2-6.5c-2.4,1-4.8,2-7.2,3c5.9-2.4,11.9-4,18.2-4.9     c-2.7,0.4-5.3,0.7-8,1.1c6.5-0.8,12.9-0.8,19.4,0c-2.7-0.4-5.3-0.7-8-1.1c6.3,0.9,12.3,2.5,18.2,4.9c-2.4-1-4.8-2-7.2-3     c4.1,1.7,8,3.8,11.6,6.2c0.2,0.1,3.3,2,3.2,2.2c0,0.1-6.1-5-3-2.3c1.8,1.6,3.6,3.1,5.3,4.8c1.5,1.5,3,3.2,4.4,4.8     c1.6,1.9,2.5,4.8-1.9-2.5c0.6,0.9,1.3,1.8,1.9,2.7c2.6,3.9,4.7,7.9,6.5,12.2c-1-2.4-2-4.8-3-7.2c2.4,5.9,4,11.9,4.9,18.2     c-0.4-2.7-0.7-5.3-1.1-8C774,283,774.2,286.2,774.2,289.5c0.1,15.7,13.7,30.7,30,30c16.1-0.7,30.2-13.2,30-30     c-0.2-20.3-6.1-41.3-18.1-57.9c-13.1-18.1-30-31-51-38.8c-37.7-14.1-85.1-1.5-110.6,29.7c-14.6,17.8-22.9,37.8-24.9,60.8     c-1.7,20,3.8,41.5,14.2,58.7c10.1,16.7,25.3,31.3,43.1,39.5c21.3,9.8,43.5,12.5,66.6,8.1c46.9-9,80.2-53.3,80.7-100     c0.1-15.7-13.9-30.7-30-30C787.8,260.2,774.4,272.6,774.2,289.5z"/>
      </g>
    </g>
    <g>
      <g>
        <path d="M334.6,121.5c0,3.3-0.2,6.5-0.6,9.7c0.4-2.7,0.7-5.3,1.1-8c-0.9,6.3-2.5,12.3-4.9,18.2c1-2.4,2-4.8,3-7.2     c-1.7,4.1-3.8,8-6.2,11.6c-0.1,0.2-2,3.3-2.2,3.2c-0.1,0,5-6.1,2.3-3c-1.6,1.8-3.1,3.6-4.8,5.3c-1.5,1.5-3.2,3-4.8,4.4     c-1.9,1.6-4.8,2.5,2.5-1.9c-0.9,0.6-1.8,1.3-2.7,1.9c-3.9,2.6-7.9,4.7-12.2,6.5c2.4-1,4.8-2,7.2-3c-5.9,2.4-11.9,4-18.2,4.9     c2.7-0.4,5.3-0.7,8-1.1c-6.5,0.8-12.9,0.8-19.4,0c2.7,0.4,5.3,0.7,8,1.1c-6.3-0.9-12.3-2.5-18.2-4.9c2.4,1,4.8,2,7.2,3     c-4.1-1.7-8-3.8-11.6-6.2c-0.2-0.1-3.3-2-3.2-2.2c0-0.1,6.1,5,3,2.3c-1.8-1.6-3.6-3.1-5.3-4.8c-1.5-1.5-3-3.2-4.4-4.8     c-1.6-1.9-2.5-4.8,1.9,2.5c-0.6-0.9-1.3-1.8-1.9-2.7c-2.6-3.9-4.7-7.9-6.5-12.2c1,2.4,2,4.8,3,7.2c-2.4-5.9-4-11.9-4.9-18.2     c0.4,2.7,0.7,5.3,1.1,8c-0.8-6.5-0.8-12.9,0-19.4c-0.4,2.7-0.7,5.3-1.1,8c0.9-6.3,2.5-12.3,4.9-18.2c-1,2.4-2,4.8-3,7.2     c1.7-4.1,3.8-8,6.2-11.6c0.1-0.2,2-3.3,2.2-3.2c0.1,0-5,6.1-2.3,3c1.6-1.8,3.1-3.6,4.8-5.3c1.5-1.5,3.2-3,4.8-4.4     c1.9-1.6,4.8-2.5-2.5,1.9c0.9-0.6,1.8-1.3,2.7-1.9c3.9-2.6,7.9-4.7,12.2-6.5c-2.4,1-4.8,2-7.2,3c5.9-2.4,11.9-4,18.2-4.9     c-2.7,0.4-5.3,0.7-8,1.1c6.5-0.8,12.9-0.8,19.4,0c-2.7-0.4-5.3-0.7-8-1.1c6.3,0.9,12.3,2.5,18.2,4.9c-2.4-1-4.8-2-7.2-3     c4.1,1.7,8,3.8,11.6,6.2c0.2,0.1,3.3,2,3.2,2.2c0,0.1-6.1-5-3-2.3c1.8,1.6,3.6,3.1,5.3,4.8c1.5,1.5,3,3.2,4.4,4.8     c1.6,1.9,2.5,4.8-1.9-2.5c0.6,0.9,1.3,1.8,1.9,2.7c2.6,3.9,4.7,7.9,6.5,12.2c-1-2.4-2-4.8-3-7.2c2.4,5.9,4,11.9,4.9,18.2     c-0.4-2.7-0.7-5.3-1.1-8C334.4,115,334.6,118.2,334.6,121.5c0.1,15.7,13.7,30.7,30,30c16.1-0.7,30.2-13.2,30-30     c-0.2-20.3-6.1-41.3-18.1-57.9c-13.1-18.1-30-31-51-38.8c-37.7-14.1-85.1-1.5-110.6,29.7c-14.6,17.8-22.9,37.8-24.9,60.8     c-1.7,20,3.8,41.5,14.2,58.7c10.1,16.7,25.3,31.3,43.1,39.5c21.3,9.8,43.5,12.5,66.6,8.1c46.9-9,80.2-53.3,80.7-100     c0.1-15.7-13.9-30.7-30-30C348.2,92.2,334.8,104.7,334.6,121.5z"/>
      </g>
    </g>
    <g>
      <g>
        <path d="M334.9,902.5c0,3.3-0.2,6.5-0.6,9.7c0.4-2.7,0.7-5.3,1.1-8c-0.9,6.3-2.5,12.3-4.9,18.2c1-2.4,2-4.8,3-7.2     c-1.7,4.1-3.8,8-6.2,11.6c-0.1,0.2-2,3.3-2.2,3.2c-0.1,0,5-6.1,2.3-3c-1.6,1.8-3.1,3.6-4.8,5.3c-1.5,1.5-3.2,3-4.8,4.4     c-1.9,1.6-4.8,2.5,2.5-1.9c-0.9,0.6-1.8,1.3-2.7,1.9c-3.9,2.6-7.9,4.7-12.2,6.5c2.4-1,4.8-2,7.2-3c-5.9,2.4-11.9,4-18.2,4.9     c2.7-0.4,5.3-0.7,8-1.1c-6.5,0.8-12.9,0.8-19.4,0c2.7,0.4,5.3,0.7,8,1.1c-6.3-0.9-12.3-2.5-18.2-4.9c2.4,1,4.8,2,7.2,3     c-4.1-1.7-8-3.8-11.6-6.2c-0.2-0.1-3.3-2-3.2-2.2c0-0.1,6.1,5,3,2.3c-1.8-1.6-3.6-3.1-5.3-4.8c-1.5-1.5-3-3.2-4.4-4.8     c-1.6-1.9-2.5-4.8,1.9,2.5c-0.6-0.9-1.3-1.8-1.9-2.7c-2.6-3.9-4.7-7.9-6.5-12.2c1,2.4,2,4.8,3,7.2c-2.4-5.9-4-11.9-4.9-18.2     c0.4,2.7,0.7,5.3,1.1,8c-0.8-6.5-0.8-12.9,0-19.4c-0.4,2.7-0.7,5.3-1.1,8c0.9-6.3,2.5-12.3,4.9-18.2c-1,2.4-2,4.8-3,7.2     c1.7-4.1,3.8-8,6.2-11.6c0.1-0.2,2-3.3,2.2-3.2c0.1,0-5,6.1-2.3,3c1.6-1.8,3.1-3.6,4.8-5.3c1.5-1.5,3.2-3,4.8-4.4     c1.9-1.6,4.8-2.5-2.5,1.9c0.9-0.6,1.8-1.3,2.7-1.9c3.9-2.6,7.9-4.7,12.2-6.5c-2.4,1-4.8,2-7.2,3c5.9-2.4,11.9-4,18.2-4.9     c-2.7,0.4-5.3,0.7-8,1.1c6.5-0.8,12.9-0.8,19.4,0c-2.7-0.4-5.3-0.7-8-1.1c6.3,0.9,12.3,2.5,18.2,4.9c-2.4-1-4.8-2-7.2-3     c4.1,1.7,8,3.8,11.6,6.2c0.2,0.1,3.3,2,3.2,2.2c0,0.1-6.1-5-3-2.3c1.8,1.6,3.6,3.1,5.3,4.8c1.5,1.5,3,3.2,4.4,4.8     c1.6,1.9,2.5,4.8-1.9-2.5c0.6,0.9,1.3,1.8,1.9,2.7c2.6,3.9,4.7,7.9,6.5,12.2c-1-2.4-2-4.8-3-7.2c2.4,5.9,4,11.9,4.9,18.2     c-0.4-2.7-0.7-5.3-1.1-8C334.7,896,334.9,899.3,334.9,902.5c0.1,15.7,13.7,30.7,30,30c16.1-0.7,30.2-13.2,30-30     c-0.2-20.3-6.1-41.3-18.1-57.9c-13.1-18.1-30-31-51-38.8c-37.7-14.1-85.1-1.5-110.6,29.7c-14.6,17.8-22.9,37.8-24.9,60.8     c-1.7,20,3.8,41.5,14.2,58.7c10.1,16.7,25.3,31.3,43.1,39.5c21.3,9.8,43.5,12.5,66.6,8.1c46.9-9,80.2-53.3,80.7-100     c0.1-15.7-13.9-30.7-30-30C348.6,873.2,335.1,885.7,334.9,902.5z"/>
      </g>
    </g>
  </g>
</svg>