<?xml version="1.0" encoding="utf-8"?>
<svg viewBox="0 0 500 500" xmlns="http://www.w3.org/2000/svg">
  <defs/>
  <g transform="matrix(5.553658, 0, 0, 5.553658, -2762.692871, -27.682899)" style="">
    <g transform="matrix(1,0,0,1,492.47,0)">
      <path d="M 28.376 90.977 C 38.458 90.977 46.85 84.266 49.99 81.386 C 53.121 84.266 61.492 90.977 71.604 90.977 C 84.166 90.977 94.108 80.535 94.528 80.105 C 95.178 79.415 95.178 78.335 94.528 77.635 C 94.238 77.325 89.397 72.254 82.296 69.133 C 94.738 55.991 93.068 38.268 92.998 37.478 C 92.908 36.578 92.167 35.888 91.267 35.858 C 90.707 35.838 78.715 35.547 67.833 41.148 C 66.013 23.575 51.88 10.123 51.23 9.503 C 50.55 8.863 49.47 8.863 48.76 9.503 C 48.12 10.103 33.977 23.575 32.157 41.148 C 21.285 35.547 9.283 35.838 8.733 35.858 C 7.833 35.888 7.093 36.578 7.003 37.478 C 6.913 38.268 5.252 55.971 17.694 69.133 C 10.583 72.254 5.752 77.325 5.472 77.635 C 4.822 78.325 4.822 79.405 5.472 80.105 C 5.862 80.535 15.804 90.977 28.376 90.977 Z M 71.604 87.377 C 63.012 87.377 55.501 81.486 52.601 78.865 C 55.501 76.235 62.992 70.344 71.604 70.344 C 80.185 70.344 87.677 76.235 90.597 78.865 C 87.677 81.486 80.185 87.377 71.604 87.377 Z M 78.555 67.783 C 76.375 67.153 74.034 66.763 71.604 66.763 C 67.243 66.763 63.222 68.023 59.782 69.673 C 63.892 63.392 67.923 54.801 68.013 45.169 C 76.175 40.448 85.716 39.618 89.487 39.488 C 89.577 44.179 88.837 57.881 78.555 67.783 Z M 49.99 13.414 C 53.681 17.354 64.413 30.077 64.413 44.859 C 64.413 59.642 53.681 72.364 49.99 76.305 C 46.299 72.364 35.558 59.642 35.558 44.859 C 35.558 30.077 46.299 17.354 49.99 13.414 Z M 10.493 39.488 C 14.274 39.618 23.805 40.448 31.957 45.169 C 32.047 54.781 36.088 63.392 40.188 69.673 C 36.748 68.023 32.737 66.763 28.376 66.763 C 25.946 66.763 23.625 67.153 21.425 67.783 C 11.163 57.901 10.423 44.179 10.493 39.488 Z M 21.655 71.494 C 21.655 71.494 21.675 71.494 21.655 71.494 C 23.785 70.814 26.036 70.364 28.376 70.364 C 36.968 70.364 44.459 76.245 47.38 78.875 C 44.459 81.506 36.948 87.397 28.376 87.397 C 19.785 87.397 12.273 81.506 9.373 78.875 C 11.483 76.955 16.024 73.334 21.655 71.494 Z"/>
    </g>
  </g>
</svg>