<svg viewBox="0 0 500 500" xmlns="http://www.w3.org/2000/svg"
  xmlns:xlink="http://www.w3.org/1999/xlink">
  <g transform="matrix(1.109543, 0, 0, 1.109543, -138.340042, -60.672047)" style="">
    <path
      d="m575.31 205.62v-47.195-75.523-17.281c0-5.9062-5.0312-10.938-10.938-10.938h-47.414-75.414-17.172c-5.7422 0-11.211 5.0312-10.938 10.938s4.8125 10.938 10.938 10.938h47.414 75.414 17.172l-10.938-10.938v47.195 75.523 17.281c0 5.7422 5.0312 11.211 10.938 10.938s10.938-4.8125 10.938-10.938z"
      style="stroke-width: 0px; stroke-opacity: 0; stroke-miterlimit: 1;" />
    <path
      d="m553.44 354.38v47.414 75.414 17.172l10.938-10.938h-47.414-75.414-17.172c-5.7422 0-11.211 5.0312-10.938 10.938s4.8125 10.938 10.938 10.938h47.414 75.414 17.172c5.9062 0 10.938-5.0312 10.938-10.938v-47.414-75.414-17.172c0-5.7422-5.0312-11.211-10.938-10.938s-10.938 4.8125-10.938 10.938z"
      style="stroke-width: 0px; stroke-opacity: 0; stroke-miterlimit: 1;" />
    <path
      d="m146.56 205.62v-47.414-75.414-17.172l-10.938 10.938h47.414 75.414 17.172c5.7422 0 11.211-5.0312 10.938-10.938s-4.8125-10.938-10.938-10.938h-47.414-75.414-17.172c-5.9062 0-10.938 5.0312-10.938 10.938v47.414 75.414 17.172c0 5.7422 5.0312 11.211 10.938 10.938s10.938-4.8125 10.938-10.938z"
      style="stroke-width: 0px; stroke-opacity: 0; stroke-miterlimit: 1;" />
    <path
      d="m124.69 354.38v47.414 75.414 17.172c0 5.9062 5.0312 10.938 10.938 10.938h47.414 75.414 17.172c5.7422 0 11.211-5.0312 10.938-10.938s-4.8125-10.938-10.938-10.938h-47.414-75.414-17.172l10.938 10.938v-47.414-75.414-17.172c0-5.7422-5.0312-11.211-10.938-10.938s-10.938 4.8125-10.938 10.938z"
      style="stroke-width: 0px; stroke-opacity: 0; stroke-miterlimit: 1;" />
  </g>
</svg>