<?xml version="1.0" encoding="utf-8"?>
<svg xmlns="http://www.w3.org/2000/svg" viewBox="0 0 500 500">
  <g transform="matrix(5.038818, 0, 0, 5.038818, -1.943359, -1.940903)" style="">
    <path d="m18.688 78.512 9.6484-9.6484c0.50781-0.50781 0.55469-1.3125 0.10937-1.8789-3.8516-4.8789-5.8906-10.754-5.8906-16.984 0-13.918 10.41-25.633 24.215-27.254 0.71094-0.082032 1.25-0.6875 1.25-1.4062v-13.645c0-0.82422-0.70312-1.4766-1.5273-1.4102-5.918 0.46875-11.574 2.0977-16.816 4.8477-0.69141 0.36328-0.96094 1.2188-0.59766 1.9102 0.36328 0.69141 1.2188 0.96094 1.9102 0.59766 4.4492-2.332 9.2188-3.8008 14.199-4.3828v10.852c-14.602 2.3242-25.461 14.961-25.461 29.891 0 6.4492 1.9805 12.555 5.7383 17.734l-7.6719 7.6719c-5.6992-7.2148-8.8164-16.176-8.8164-25.406 0-13.293 6.4883-25.816 17.352-33.508 0.63672-0.45313 0.78906-1.3359 0.33594-1.9727-0.45312-0.63672-1.3359-0.78906-1.9727-0.33594-11.574 8.1914-18.547 21.465-18.547 35.816 0 10.414 3.7148 20.512 10.465 28.43 0.53516 0.62891 1.4961 0.66406 2.0781 0.082031z"/>
    <path d="m93.16 88.207c-2.2383 0-4.1367 1.4961-4.7461 3.5391h-12.941v-6.043c11.457-8.1953 18.383-21.371 18.383-35.703 0-10.414-3.7148-20.512-10.465-28.43-0.53906-0.63672-1.5-0.66016-2.0781-0.082031l-9.6484 9.6484c-0.50781 0.50781-0.55469 1.3125-0.10937 1.8789 9.7461 12.352 7 30.059-5.3125 39.109-0.62891 0.46094-0.76563 1.3477-0.30078 1.9766 0.46094 0.62891 1.3477 0.76563 1.9766 0.30078 13.418-9.8633 16.359-28.719 6.6211-42.141l7.6719-7.6719c5.6953 7.2188 8.8125 16.18 8.8125 25.41 0 20.742-15.785 38.348-36.215 40.742v-10.852c2.7734-0.44141 5.4609-1.2695 8.0039-2.457 0.70703-0.33203 1.0117-1.1719 0.68359-1.8828-0.33203-0.70703-1.1758-1.0117-1.8828-0.68359-2.6484 1.2383-5.4727 2.043-8.3867 2.3828-0.71094 0.082031-1.25 0.6875-1.25 1.4062v13.645c0 0.82422 0.70313 1.4766 1.5273 1.4102 6.8359-0.54297 13.367-2.6641 19.137-6.1484v5.5938c0 0.78125 0.63281 1.4141 1.4141 1.4141h14.359c0.60938 2.043 2.5078 3.5391 4.7461 3.5391 2.7305 0 4.9531-2.2227 4.9531-4.9531 0-2.7266-2.2227-4.9492-4.9531-4.9492zm0 7.0742c-1.1719 0-2.1211-0.95312-2.1211-2.1211 0-1.1719 0.95313-2.1211 2.1211-2.1211 1.1719 0 2.1211 0.94922 2.1211 2.1211s-0.94922 2.1211-2.1211 2.1211z"/>
    <path d="m69.812 50c0-10.926-8.8867-19.812-19.812-19.812s-19.812 8.8867-19.812 19.812 8.8867 19.812 19.812 19.812 19.812-8.8867 19.812-19.812zm-19.812 16.98c-9.3633 0-16.98-7.6172-16.98-16.98s7.6172-16.98 16.98-16.98 16.98 7.6172 16.98 16.98-7.6172 16.98-16.98 16.98z"/>
    <path d="m46.77 77.254c-5.0195-0.58984-9.7734-2.5586-13.754-5.6992-0.5625-0.44531-1.3711-0.39844-1.8789 0.10937l-9.6484 9.6484c-0.58203 0.58203-0.54688 1.543 0.082031 2.0781 0.95703 0.81641 1.9453 1.5859 2.957 2.3125v6.043h-12.941c-0.60938-2.043-2.5078-3.5391-4.7461-3.5391-2.7305 0-4.9531 2.2227-4.9531 4.9531 0 2.7305 2.2227 4.9531 4.9531 4.9531 2.2383 0 4.1367-1.4961 4.7461-3.5391h14.359c0.78125 0 1.4141-0.63281 1.4141-1.4141v-5.5938c5.7852 3.5039 12.289 5.6055 19.133 6.1484 0.82422 0.066406 1.5273-0.58594 1.5273-1.4102v-13.645c0-0.71875-0.53516-1.3242-1.25-1.4062zm-39.93 18.027c-1.1719 0-2.1211-0.94922-2.1211-2.1211s0.95312-2.1211 2.1211-2.1211c1.1719 0 2.1211 0.95313 2.1211 2.1211 0 1.1719-0.94922 2.1211-2.1211 2.1211zm38.352-4.5391c-7.5898-0.88281-14.652-3.832-20.598-8.5352l7.6758-7.6758c3.8359 2.7773 8.2578 4.6094 12.922 5.3555z"/>
    <path d="m53.23 22.746c5.0195 0.58984 9.7734 2.5586 13.754 5.6992 0.56641 0.44531 1.3711 0.39453 1.8789-0.10937l9.6484-9.6484c0.58203-0.58203 0.54688-1.5391-0.082031-2.0781-0.95703-0.81641-1.9453-1.5859-2.957-2.3125v-6.043h12.941c0.60938 2.043 2.5078 3.5391 4.7461 3.5391 2.7305 0 4.9531-2.2227 4.9531-4.9531 0-2.7305-2.2227-4.9531-4.9531-4.9531-2.2383 0-4.1367 1.4961-4.7461 3.5391h-14.359c-0.78125 0-1.4141 0.63281-1.4141 1.4141v5.5938c-5.7852-3.5039-12.289-5.6055-19.133-6.1484-0.82812-0.066406-1.5273 0.58984-1.5273 1.4102v13.645c0 0.71875 0.53516 1.3242 1.25 1.4062zm39.93-18.027c1.1719 0 2.1211 0.95312 2.1211 2.1211 0 1.1719-0.95312 2.1211-2.1211 2.1211-1.1719 0-2.1211-0.95313-2.1211-2.1211 0-1.1719 0.94922-2.1211 2.1211-2.1211zm-38.352 4.5391c7.6055 0.88672 14.664 3.8398 20.598 8.5352l-7.6758 7.6758c-3.8359-2.7773-8.2578-4.6094-12.922-5.3555z"/>
  </g>
</svg>