<?xml version="1.0" encoding="utf-8"?>
<svg viewBox="0 0 500 500" xmlns="http://www.w3.org/2000/svg">
  <defs/>
  <path d="M 250 0 C 112.156 0 0 112.156 0 250 C 0 387.844 112.156 500 250 500 C 387.844 500 500 387.844 500 250 C 500 112.156 387.844 0 250 0 Z M 250 482.764 C 210.088 482.764 174.247 436.75 154.352 369.422 C 184.57 375.866 216.571 379.315 250 379.315 C 283.429 379.315 315.452 375.844 345.648 369.422 C 325.758 436.772 289.912 482.764 250 482.764 Z M 250 17.242 C 298.514 17.242 340.991 85.259 356.142 176.901 C 290.668 193.304 209.332 193.304 143.853 176.901 C 159.003 85.242 201.481 17.225 249.994 17.225 L 250 17.242 Z M 362.067 250.006 C 362.067 285.824 357.929 320.048 350.625 350.696 C 319.159 358.156 285.41 362.078 250 362.078 C 214.612 362.078 180.863 358.178 149.375 350.718 C 142.071 320.053 137.933 285.824 137.933 250.006 C 137.933 230.844 139.135 212.162 141.359 194.231 C 174.959 202.507 212.267 206.904 250 206.904 C 287.76 206.904 325.046 202.507 358.641 194.231 C 360.859 212.184 362.067 230.872 362.067 250.006 Z M 375.623 189.597 C 392.562 184.554 408.407 178.518 422.669 171.561 C 436.744 164.664 449.053 156.989 459.503 148.691 C 474.394 179.34 482.758 213.713 482.758 250.006 C 482.758 262.982 477.997 275.716 468.579 287.876 C 450.344 311.794 414.763 332.506 369.808 345.742 C 375.927 316.384 379.331 284.102 379.331 249.989 C 379.331 229.078 378.04 208.863 375.646 189.58 L 375.623 189.597 Z M 451.183 133.155 C 441.224 141.431 429.202 149.149 415.105 156.046 C 402.366 162.275 388.275 167.704 373.163 172.338 C 362.387 106.495 338.189 53.286 306.436 24.188 C 368.054 39.598 419.972 79.62 451.177 133.155 L 451.183 133.155 Z M 193.575 24.21 C 161.828 53.286 137.624 106.517 126.848 172.361 C 111.764 167.726 97.645 162.297 84.911 156.09 C 70.815 149.171 58.787 141.48 48.812 133.204 C 80.017 79.67 131.957 39.647 193.575 24.238 L 193.575 24.21 Z M 40.491 148.691 C 50.947 156.989 63.272 164.664 77.347 171.561 C 91.615 178.54 107.455 184.554 124.393 189.597 C 122.004 208.885 120.708 229.1 120.708 250.006 C 120.708 284.102 124.09 316.384 130.236 345.758 C 85.275 332.528 49.694 311.816 31.421 287.827 C 22.047 275.716 17.28 262.977 17.28 250.006 C 17.28 213.713 25.644 179.334 40.536 148.691 L 40.491 148.691 Z M 23.984 305.57 C 47.107 331.132 85.794 351.888 134.694 364.837 C 147.411 413.439 168.057 452.446 193.575 475.829 C 110.214 454.99 44.519 389.08 23.984 305.592 L 23.984 305.57 Z M 306.42 475.807 C 331.937 452.424 352.583 413.411 365.301 364.815 C 414.222 351.866 452.932 331.088 475.989 305.57 C 455.448 389.064 389.781 454.968 306.398 475.807 L 306.42 475.807 Z"/>
</svg>