<?xml version="1.0" encoding="utf-8"?>
<svg viewBox="0 0 500 500" xmlns="http://www.w3.org/2000/svg">
  <path
    d="M 16.859 226.683 L 211.147 226.683 C 219.696 226.683 226.683 219.696 226.683 211.147 L 226.683 16.859 C 226.683 8.31 219.696 1.31 211.147 1.31 L 16.859 1.31 C 8.31 1.31 1.31 8.31 1.31 16.859 L 1.31 211.147 C 1.31 219.696 8.31 226.683 16.859 226.683 Z M 32.402 32.402 L 195.597 32.402 L 195.597 195.597 L 32.402 195.597 L 32.402 32.402 Z"
    style="" />
  <path
    d="M 483.141 1.31 L 288.853 1.31 C 280.304 1.31 273.317 8.31 273.317 16.859 L 273.317 211.147 C 273.317 219.696 280.304 226.683 288.853 226.683 L 483.141 226.683 C 491.691 226.683 498.69 219.696 498.69 211.147 L 498.69 16.859 C 498.69 8.31 491.691 1.31 483.141 1.31 Z M 467.598 195.597 L 304.403 195.597 L 304.403 32.402 L 467.598 32.402 L 467.598 195.597 Z"
    style="" />
  <path
    d="M 483.141 273.317 L 288.853 273.317 C 280.304 273.317 273.317 280.304 273.317 288.853 L 273.317 483.141 C 273.317 491.69 280.304 498.69 288.853 498.69 L 483.141 498.69 C 491.691 498.69 498.69 491.69 498.69 483.141 L 498.69 288.853 C 498.69 280.304 491.691 273.317 483.141 273.317 Z M 467.598 467.598 L 304.403 467.598 L 304.403 304.403 L 467.598 304.403 L 467.598 467.598 Z"
    style="" />
  <path
    d="M 1.31 483.141 C 1.31 491.69 8.31 498.69 16.859 498.69 L 211.147 498.69 C 219.696 498.69 226.683 491.69 226.683 483.141 L 226.683 288.853 C 226.683 280.304 219.696 273.317 211.147 273.317 L 16.859 273.317 C 8.31 273.317 1.31 280.304 1.31 288.853 L 1.31 483.141 Z M 32.402 304.403 L 195.597 304.403 L 195.597 467.598 L 32.402 467.598 L 32.402 304.403 Z"
    style="" />
</svg>