<?xml version="1.0" encoding="utf-8"?>
<svg viewBox="0 0 500 500" xmlns="http://www.w3.org/2000/svg">
  <defs/>
  <path d="M 354.639 43.628 C 422.539 43.628 477.778 98.867 477.778 166.772 C 477.778 200.367 464.467 231.767 440.294 255.189 L 440.139 255.344 L 439.983 255.5 L 250.039 446.989 C 209.394 405.783 101.461 296.461 59.867 255.344 C 35.589 231.35 22.222 199.894 22.222 166.772 C 22.222 98.872 77.467 43.628 145.367 43.628 C 178.961 43.628 210.361 56.939 233.789 81.111 L 249.5 97.322 L 249.911 96.911 L 250.417 97.422 L 266.217 81.122 C 289.639 56.944 321.039 43.628 354.639 43.628 M 354.639 21.406 C 313.667 21.406 276.678 38.383 250.25 65.656 L 249.994 65.4 L 249.744 65.65 C 223.317 38.383 186.333 21.411 145.367 21.411 C 65.083 21.406 0 86.483 0 166.772 C 0 207.744 17.239 244.456 44.244 271.15 C 96.194 322.5 249.994 478.594 249.994 478.594 L 455.755 271.15 C 483.022 244.728 500 207.739 500 166.772 C 500 86.483 434.917 21.406 354.639 21.406 Z"/>
</svg>