<?xml version="1.0" encoding="utf-8"?>
<svg xmlns="http://www.w3.org/2000/svg" viewBox="0 0 500 500">
  <path d="M 218.647 405.787 C 208.579 405.787 200.407 397.598 200.407 387.53 C 200.407 377.462 208.579 369.273 218.647 369.273 L 281.371 369.273 C 291.422 369.273 299.628 377.462 299.628 387.53 C 299.628 397.598 291.422 405.787 281.371 405.787 L 218.647 405.787 Z M 413.632 329.303 C 413.632 319.218 421.787 311.063 431.872 311.063 C 441.923 311.063 450.112 319.218 450.112 329.303 L 450.112 426.611 C 450.112 463.594 420.176 493.546 383.193 493.546 L 116.809 493.546 C 79.859 493.546 49.889 463.611 49.889 426.611 L 49.889 179.02 C 49.889 158.599 59.219 139.268 75.227 126.582 L 208.411 20.952 C 232.776 1.621 267.225 1.621 291.573 20.952 L 424.757 126.582 C 440.765 139.285 450.112 158.599 450.112 179.02 L 450.112 231.961 C 450.112 242.029 441.906 250.218 431.855 250.218 C 421.77 250.218 413.598 242.029 413.598 231.961 L 413.598 179.02 C 413.598 169.724 409.336 160.931 402.07 155.192 L 268.887 49.562 C 257.829 40.769 242.156 40.769 231.098 49.562 L 97.914 155.192 C 90.615 160.965 86.369 169.741 86.369 179.037 L 86.369 426.644 C 86.369 443.475 99.995 457.067 116.809 457.067 L 383.176 457.067 C 399.99 457.067 413.598 443.475 413.598 426.644 L 413.632 329.303 Z" fill-rule="evenodd" style=""/>
</svg>