<?xml version="1.0" encoding="utf-8"?>
<svg viewBox="0 0 500 500" xmlns="http://www.w3.org/2000/svg">
  <path d="M 173.026 342.773 C 175.502 347.73 178.007 351.721 180.633 356.565 C 185.22 365.029 184.714 361.46 180.834 370.228 C 177.192 378.45 178.861 379.787 175.086 380.82 C 170.636 382.027 157.326 385.295 154.979 386.495 L 155.047 414.215 C 158.404 416.012 171.797 418.689 175.766 420.069 C 178.443 421.011 178.067 424.212 180.834 430.465 C 184.76 439.346 185.286 435.747 180.435 444.364 C 178.747 447.368 173.834 455.042 173.071 457.892 L 192.456 477.322 C 194.733 476.665 200.151 473.284 202.519 471.903 C 215.498 464.342 210.086 465.37 221.156 470.086 C 223.307 470.982 228.128 471.971 229.643 473.463 C 231.462 475.613 234.073 491.595 236.133 495.39 L 263.852 495.323 C 265.996 491.511 268.476 475.743 270.341 473.463 C 271.918 471.903 276.853 470.944 279.155 469.934 C 289.505 465.392 285.054 464.45 297.51 471.865 C 299.919 473.284 305.206 476.641 307.53 477.297 L 326.958 457.892 C 326.076 454.844 321.165 447.435 319.368 444.102 C 314.654 435.484 315.248 439.323 319.172 430.443 C 322.809 422.243 321.143 420.883 324.96 419.828 C 329.365 418.62 342.568 415.467 345.022 414.191 L 344.961 386.479 C 342.413 385.12 332.105 382.79 328.514 381.762 C 327.261 381.409 325.42 381.017 324.191 380.602 C 322.484 380.007 322.524 379.613 322.002 377.879 C 316.473 359.793 313.182 367.422 319.566 356.33 L 326.936 342.817 L 307.53 323.396 C 305.335 324.052 296.192 329.507 293.715 330.934 C 285.559 335.603 288.629 334.993 280.096 331.176 C 271.851 327.471 270.559 329.25 269.503 325.365 C 268.387 321.223 265.009 307.453 263.847 305.371 L 236.133 305.371 C 234.027 309.159 231.486 324.995 229.643 327.229 C 228.263 328.586 221.88 330.277 219.579 331.31 C 212.276 334.577 213.657 335.144 210.344 333.218 C 207.409 331.53 194.757 324.029 192.456 323.371 L 173.026 342.773 Z M 249.992 210.901 L 267.557 210.901 L 267.557 217.351 C 267.557 218.295 267.361 219.215 267.006 220.046 C 266.659 220.905 266.131 221.69 265.474 222.348 C 264.812 223.01 264.048 223.532 263.172 223.887 C 262.337 224.234 261.415 224.437 260.473 224.437 L 239.467 224.437 C 238.525 224.437 237.604 224.234 236.767 223.887 C 235.912 223.532 235.123 223.01 234.465 222.348 L 234.443 222.332 C 233.809 221.669 233.282 220.905 232.933 220.024 C 232.58 219.193 232.383 218.295 232.383 217.351 L 232.383 210.924 L 249.992 210.901 Z M 211.377 181.891 L 289.988 181.891 C 289.988 183.981 290.099 186.26 289.988 188.319 C 289.877 189.722 289.573 191.081 289.068 192.354 C 288.563 193.646 287.839 194.875 286.964 195.926 C 286.126 196.957 285.143 197.878 284.005 198.625 C 282.904 199.372 281.697 199.961 280.383 200.355 L 279.991 200.421 C 259.968 200.355 239.995 200.339 219.995 200.421 L 219.596 200.355 C 218.304 199.961 217.075 199.372 215.981 198.649 C 214.864 197.9 213.853 196.982 213.023 195.947 C 212.119 194.853 211.394 193.6 210.872 192.244 C 210.367 190.907 210.058 189.504 209.974 188.054 L 209.991 181.869 L 211.377 181.869 L 211.377 181.891 Z M 239.03 153.28 L 289.988 153.87 L 289.988 171.327 L 209.997 171.327 L 209.997 152.95 L 234.948 153.235 L 235.363 153.303 C 235.628 153.387 235.912 153.454 236.199 153.5 C 236.463 153.544 236.746 153.567 237.053 153.567 C 237.318 153.567 237.604 153.544 237.844 153.5 C 238.131 153.454 238.373 153.387 238.614 153.324 L 239.03 153.28 Z M 267.995 88.002 L 267.995 80.329 C 267.995 79.1 268.236 77.936 268.674 76.858 C 269.133 75.743 269.792 74.731 270.627 73.924 C 271.458 73.087 272.446 72.432 273.541 71.969 C 274.619 71.532 275.804 71.291 277.005 71.291 C 278.166 71.291 279.266 71.509 280.271 71.909 C 281.349 72.3 282.293 72.912 283.1 73.636 L 283.387 73.946 C 284.223 74.777 284.902 75.764 285.361 76.883 C 285.801 77.959 286.042 79.121 286.042 80.345 C 286.042 81.49 285.823 82.608 285.446 83.612 C 285.032 84.69 284.442 85.632 283.695 86.441 L 283.387 86.729 C 282.555 87.563 281.569 88.244 280.451 88.681 C 279.794 88.967 279.109 89.141 278.391 89.27 L 278.391 89.405 L 267.95 89.405 L 267.995 88.002 Z M 230.368 89.383 L 221.313 89.383 L 221.313 89.248 C 220.65 89.141 220.016 88.989 219.427 88.749 C 218.372 88.328 217.407 87.739 216.598 86.991 L 216.312 86.684 C 215.476 85.875 214.795 84.865 214.335 83.746 C 213.899 82.674 213.657 81.508 213.657 80.283 C 213.657 79.075 213.899 77.892 214.335 76.82 C 214.795 75.698 215.476 74.715 216.289 73.879 C 217.121 73.047 218.106 72.386 219.225 71.924 C 220.303 71.486 221.465 71.246 222.695 71.246 C 223.918 71.246 225.079 71.486 226.158 71.924 C 227.275 72.386 228.285 73.069 229.093 73.879 C 229.93 74.715 230.587 75.698 231.047 76.82 C 231.486 77.892 231.726 79.075 231.726 80.283 L 231.726 89.359 L 230.368 89.383 Z M 242.32 141.436 L 242.32 99.908 L 257.403 99.908 L 257.403 142.952 L 242.32 142.778 L 242.32 141.436 Z M 182.39 49.781 C 178.815 58.396 176.838 67.85 176.838 77.741 C 176.838 82.737 177.342 87.647 178.31 92.409 C 179.297 97.275 180.767 101.968 182.653 106.397 C 184.58 110.938 186.971 115.254 189.754 119.268 C 192.54 123.327 195.744 127.076 199.276 130.472 L 199.36 130.563 C 201.116 132.315 202.649 134.093 203.961 135.867 C 205.259 137.625 206.353 139.421 207.251 141.218 L 207.823 142.401 L 231.771 142.687 L 231.771 99.929 L 221.684 99.929 C 219.511 99.819 217.428 99.336 215.476 98.573 C 213.15 97.65 211.047 96.27 209.25 94.581 L 208.85 94.204 C 207.033 92.385 205.584 90.235 204.602 87.851 C 203.66 85.543 203.131 83 203.131 80.351 C 203.131 77.696 203.66 75.153 204.625 72.851 C 205.607 70.459 207.078 68.287 208.875 66.47 C 210.699 64.651 212.843 63.201 215.234 62.214 C 217.535 61.249 220.079 60.726 222.734 60.726 C 225.389 60.726 227.91 61.249 230.211 62.214 C 232.601 63.201 234.752 64.671 236.57 66.47 C 238.39 68.287 239.86 70.459 240.848 72.851 C 241.808 75.153 242.334 77.696 242.334 80.329 L 242.334 89.383 L 257.425 89.383 L 257.425 80.329 C 257.425 77.65 257.946 75.13 258.912 72.829 C 259.901 70.438 261.348 68.287 263.167 66.47 L 263.213 66.447 C 265.03 64.651 267.181 63.179 269.572 62.19 C 271.873 61.249 274.393 60.704 277.05 60.704 C 279.614 60.704 282.044 61.187 284.263 62.085 C 286.586 63.006 288.69 64.386 290.487 66.076 L 290.887 66.447 C 292.705 68.266 294.154 70.438 295.136 72.806 C 296.079 75.108 296.606 77.65 296.606 80.304 C 296.606 82.871 296.124 85.301 295.225 87.542 C 294.304 89.865 292.923 91.971 291.234 93.768 L 290.864 94.165 C 289.045 95.985 286.895 97.432 284.503 98.421 C 282.466 99.251 280.271 99.756 277.947 99.863 L 267.971 99.863 L 267.971 143.041 L 291.762 143.322 L 292.728 141.178 C 293.58 139.421 294.66 137.67 295.927 135.934 C 297.223 134.182 298.712 132.449 300.424 130.715 L 300.665 130.472 C 304.195 127.076 307.396 123.305 310.203 119.245 C 312.986 115.238 315.379 110.916 317.309 106.376 C 319.195 101.944 320.66 97.275 321.649 92.385 C 322.614 87.633 323.118 82.737 323.118 77.718 C 323.118 67.827 321.143 58.381 317.571 49.758 C 313.86 40.793 308.428 32.744 301.691 26.013 C 294.962 19.283 286.918 13.844 277.947 10.137 C 269.33 6.585 259.877 4.609 249.988 4.609 C 240.101 4.609 230.649 6.585 222.033 10.162 C 213.061 13.865 205.016 19.304 198.282 26.034 C 191.528 32.765 186.095 40.815 182.384 49.781 L 182.39 49.781 Z M 389.957 413.996 C 392.568 416.606 392.568 420.838 389.957 423.426 C 387.347 426.038 383.138 426.038 380.527 423.426 L 362.238 405.139 C 360.969 403.932 360.178 402.202 360.178 400.316 C 360.178 398.408 360.992 396.696 362.238 395.488 L 380.527 377.205 C 383.138 374.596 387.347 374.596 389.957 377.205 C 392.568 379.81 392.568 384.042 389.957 386.63 L 382.962 393.623 L 414.493 393.623 L 414.493 101.439 L 348.446 101.439 C 344.764 101.439 341.756 98.435 341.756 94.753 C 341.756 91.072 344.764 88.069 348.446 88.069 L 421.156 88.069 C 424.839 88.069 427.842 91.051 427.842 94.753 L 427.842 400.316 C 427.842 403.998 424.862 407.002 421.156 407.002 L 382.958 407.002 L 389.957 413.996 Z M 151.539 88.085 C 155.221 88.085 158.224 91.068 158.224 94.778 C 158.224 98.46 155.245 101.464 151.539 101.464 L 85.513 101.439 L 85.513 393.648 L 133.092 393.648 C 136.781 393.648 139.785 396.627 139.785 400.338 C 139.785 404.021 136.803 407.024 133.092 407.024 L 78.845 407.024 C 75.163 407.024 72.159 404.021 72.159 400.338 L 72.159 94.778 C 72.159 91.089 75.139 88.085 78.845 88.085 L 151.539 88.085 Z M 249.992 357.794 C 273.496 357.794 292.531 376.851 292.531 400.333 C 292.531 423.841 273.474 442.871 249.992 442.871 C 226.483 442.871 207.431 423.819 207.431 400.333 C 207.431 376.851 226.483 357.794 249.992 357.794 Z" fill-rule="evenodd" style=""/>
</svg>