<?xml version="1.0" encoding="utf-8"?>
<svg height="100%" style="fill-rule:evenodd;clip-rule:evenodd;stroke-linejoin:round;stroke-miterlimit:2;" version="1.1" viewBox="0 0 512 512" width="100%" xmlns="http://www.w3.org/2000/svg">
  <g transform="matrix(6.103519, 0, 0, 6.103519, -2443.689941, -508.270447)" style="">
    <path d="M 462.317 85.217 L 422.317 85.217 C 411.318 85.217 402.317 94.218 402.317 105.217 L 402.317 145.219 C 402.317 156.215 411.318 165.219 422.317 165.219 L 462.317 165.219 C 473.316 165.219 482.317 156.215 482.317 145.219 L 482.317 105.217 C 482.317 94.218 473.316 85.217 462.317 85.217 Z M 475.65 145.219 C 475.65 152.569 469.671 158.552 462.317 158.552 L 422.317 158.552 C 414.966 158.552 408.984 152.569 408.984 145.219 L 408.984 105.217 C 408.984 97.865 414.966 91.884 422.317 91.884 L 462.317 91.884 C 469.671 91.884 475.65 97.865 475.65 105.217 L 475.65 145.219 Z"/>
    <circle cx="463.984" cy="103.55" r="5"/>
    <path d="M 442.317 105.217 C 431.269 105.217 422.317 114.17 422.317 125.217 C 422.317 136.26 431.269 145.219 442.317 145.219 C 453.362 145.219 462.317 136.26 462.317 125.217 C 462.317 114.17 453.362 105.217 442.317 105.217 Z M 442.317 138.552 C 434.954 138.552 428.984 132.582 428.984 125.217 C 428.984 117.852 434.954 111.884 442.317 111.884 C 449.68 111.884 455.65 117.852 455.65 125.217 C 455.65 132.582 449.68 138.552 442.317 138.552 Z"/>
  </g>
</svg>