<?xml version="1.0" encoding="utf-8"?>
<svg viewBox="0 0 500 500" xmlns="http://www.w3.org/2000/svg">
  <path class="cls-1" d="M 393.598 317.374 C 393.428 317.374 393.251 317.399 393.065 317.399 C 392.879 317.399 392.782 317.399 392.644 317.399 L 384.094 317.479 L 381.088 333.084 C 380.69 335.183 379.064 336.84 376.971 337.272 C 368.855 338.966 361.124 342.151 354.172 346.664 C 352.411 347.864 350.102 347.885 348.313 346.722 L 334.721 337.905 L 325.264 347.542 L 334.183 360.719 C 335.371 362.477 335.387 364.773 334.231 366.552 C 329.698 373.511 326.479 381.241 324.737 389.36 C 324.338 391.454 322.724 393.105 320.636 393.543 L 304.781 396.915 L 304.913 410.409 L 320.512 413.42 C 322.607 413.831 324.258 415.45 324.701 417.539 C 325.419 420.986 326.409 424.369 327.664 427.661 C 327.785 427.917 327.887 428.178 327.966 428.449 C 328.094 428.778 328.227 429.11 328.365 429.439 C 329.944 433.249 331.867 436.909 334.11 440.368 C 335.314 442.131 335.339 444.443 334.173 446.227 L 325.339 459.83 L 334.993 469.265 L 347.923 460.512 C 349.697 459.169 352.127 459.084 353.992 460.293 C 357.486 462.568 361.179 464.524 365.025 466.121 C 368.792 467.688 372.686 468.907 376.671 469.767 C 378.825 470.122 380.534 471.758 380.987 473.89 L 384.353 489.744 L 397.845 489.617 L 400.855 474.012 C 401.26 471.918 402.883 470.266 404.972 469.829 C 413.092 468.136 420.828 464.949 427.785 460.442 C 429.549 459.239 431.861 459.218 433.646 460.384 L 447.253 469.211 L 456.704 459.574 L 447.786 446.4 C 446.597 444.64 446.581 442.344 447.737 440.564 C 452.251 433.644 455.457 425.961 457.205 417.886 C 457.561 415.737 459.197 414.026 461.329 413.574 L 477.183 410.197 L 477.056 396.706 L 461.452 393.698 C 459.356 393.297 457.705 391.672 457.267 389.579 C 455.569 381.459 452.377 373.724 447.855 366.765 C 446.656 365.001 446.635 362.695 447.796 360.906 L 456.624 347.283 L 446.987 337.825 L 433.816 346.743 C 432.053 347.943 429.741 347.958 427.955 346.797 C 421.057 342.281 413.379 339.068 405.319 337.315 C 403.172 336.958 401.461 335.321 401.008 333.191 L 397.636 317.334 L 393.635 317.374 L 393.598 317.374 Z M 390.497 353.537 C 418.127 353.271 440.731 375.461 440.972 403.084 L 440.972 403.12 C 441.218 430.729 419.037 453.314 391.423 453.559 L 391.381 453.559 C 352.889 453.718 328.657 412.148 347.769 378.731 C 356.549 363.378 372.788 353.802 390.475 353.552 L 390.497 353.537 Z M 176.005 66.044 L 176.005 72.971 L 318.041 72.971 L 318.041 31.698 L 281.988 31.698 C 279.431 31.698 277.242 29.866 276.788 27.344 C 275.51 22.294 272.148 18.02 267.544 15.581 C 254.796 8.479 239.276 8.479 226.522 15.581 C 222.051 17.968 218.743 22.071 217.353 26.946 C 217.06 29.641 214.791 31.681 212.078 31.691 L 176.005 31.691 L 176.005 66.04 L 176.005 66.044 Z M 237.753 115.177 L 237.753 141.746 L 243.678 137.441 C 245.536 136.035 248.093 136.008 249.98 137.378 L 256.292 141.958 L 256.292 115.177 L 237.753 115.177 Z M 266.896 115.177 L 302.862 115.177 C 302.909 115.177 302.948 115.198 302.979 115.229 L 303.021 115.273 L 303.021 115.348 L 303.021 227.031 C 303.028 227.074 303.017 227.117 302.99 227.147 C 302.958 227.175 302.916 227.187 302.872 227.18 L 191.178 227.18 C 191.136 227.187 191.098 227.175 191.061 227.147 C 191.029 227.117 191.012 227.074 191.009 227.031 L 191.009 115.348 C 191.012 115.305 191.029 115.262 191.061 115.229 C 191.093 115.198 191.136 115.182 191.178 115.177 L 227.145 115.177 L 227.145 152.14 C 227.166 156.217 231.594 158.74 235.116 156.684 C 235.264 156.6 235.409 156.503 235.547 156.401 L 246.862 148.181 L 258.274 156.471 C 261.433 159.05 266.196 157.239 266.846 153.211 C 266.896 152.929 266.916 152.647 266.916 152.358 L 266.916 115.177 L 266.896 115.177 Z M 208.467 209.935 L 232.947 209.935 C 237.028 209.935 239.58 205.518 237.54 201.986 C 236.591 200.345 234.844 199.334 232.947 199.334 L 208.467 199.334 C 204.385 199.334 201.838 203.75 203.879 207.287 C 204.822 208.922 206.574 209.935 208.467 209.935 Z M 190.715 276.862 C 186.633 277.271 183.639 273.11 185.328 269.371 C 186.266 267.282 188.439 266.029 190.715 266.259 L 354.344 266.259 C 358.425 265.849 361.418 270.01 359.736 273.75 C 358.793 275.839 356.624 277.091 354.344 276.862 L 190.715 276.862 Z M 139.696 276.862 C 135.616 277.271 132.621 273.11 134.31 269.371 C 135.247 267.282 137.422 266.029 139.696 266.259 L 166.366 266.259 C 170.449 265.849 173.442 270.01 171.758 273.75 C 170.816 275.839 168.647 277.091 166.366 276.862 L 139.696 276.862 Z M 291.908 315.812 C 287.827 316.222 284.833 312.061 286.523 308.32 C 287.46 306.232 289.634 304.981 291.908 305.21 L 354.344 305.21 C 358.425 304.799 361.418 308.96 359.736 312.701 C 358.793 314.789 356.624 316.04 354.344 315.812 L 291.908 315.812 Z M 139.696 315.812 C 135.616 316.222 132.621 312.061 134.31 308.32 C 135.247 306.232 137.422 304.981 139.696 305.21 L 267.561 305.21 C 271.642 304.799 274.636 308.96 272.953 312.701 C 272.009 314.789 269.841 316.04 267.561 315.812 L 139.696 315.812 Z M 139.696 354.763 C 135.616 354.373 133.483 349.711 135.862 346.372 C 136.761 345.11 138.156 344.304 139.696 344.156 L 290.773 344.156 C 294.86 344.543 296.991 349.206 294.61 352.547 C 293.715 353.809 292.313 354.619 290.773 354.763 L 139.696 354.763 Z M 319.362 435.253 C 320.577 437.997 321.951 440.661 323.475 443.244 L 317.721 452.11 L 117.177 452.11 C 96.015 452.024 78.886 434.879 78.817 413.719 L 78.817 82.336 C 78.903 61.187 96.025 44.057 117.177 43.978 L 165.397 43.978 L 165.397 60.866 L 117.177 60.866 C 105.301 60.894 95.679 70.515 95.654 82.39 L 95.654 368.699 C 95.654 370.197 96.281 371.619 97.39 372.62 L 155.231 433.319 L 155.318 433.419 L 155.392 433.505 L 155.451 433.592 L 155.621 433.755 L 155.705 433.83 L 155.792 433.906 L 155.871 433.968 L 155.962 434.043 L 156.051 434.112 L 156.11 434.155 L 156.143 434.155 L 156.201 434.198 L 156.255 434.235 L 156.313 434.272 L 156.377 434.315 L 156.442 434.352 L 156.485 434.352 L 156.548 434.391 L 156.58 434.391 L 156.666 434.433 L 156.712 434.433 L 156.778 434.464 L 156.84 434.464 L 156.895 434.464 L 156.963 434.464 L 157.011 434.464 L 157.081 434.464 L 157.144 434.464 L 157.209 434.464 L 157.245 434.464 L 157.32 434.491 L 157.352 434.491 L 157.448 434.523 L 157.486 434.523 L 157.56 434.523 L 157.592 434.523 L 157.631 434.523 L 157.699 434.523 L 157.757 434.523 L 157.826 434.523 L 157.902 434.523 L 157.96 434.523 L 158.029 434.523 L 158.083 434.523 L 158.157 434.523 L 158.231 434.523 L 158.306 434.523 L 319.362 434.523 L 319.362 435.253 Z M 415.26 329.057 C 413.746 328.566 412.207 328.118 410.646 327.713 L 407.071 310.916 C 406.55 308.458 404.375 306.712 401.861 306.728 L 398.404 306.764 L 398.404 82.363 C 398.376 70.488 388.755 60.866 376.88 60.84 L 328.643 60.84 L 328.643 43.978 L 376.864 43.978 C 398.036 44.046 415.185 61.191 415.256 82.363 L 415.26 329.057 Z" style="fill-rule: evenodd;"/>
</svg>