<?xml version="1.0" encoding="utf-8"?>
<svg data-name="Layer 1" viewBox="0 0 100 100" x="0px" y="0px" xmlns="http://www.w3.org/2000/svg">
  <g transform="matrix(1.119825, 0, 0, 1.119825, -58.856514, -9.248828)" style="">
    <g transform="matrix(1.142364, 0, 0, 1.142364, -63.238281, 9.701932)" style="">
      <path d="M 166.128 13.307 L 166.132 13.304 L 148.073 -0.364 L 148.069 -0.36 C 147.843 -0.531 147.567 -0.636 147.264 -0.636 L 125.403 -0.636 C 119.246 -0.636 114.241 4.37 114.241 10.527 L 114.241 65.118 C 114.241 71.275 119.246 76.281 125.403 76.281 L 155.5 76.281 C 161.656 76.281 166.662 71.275 166.662 65.118 L 166.662 14.371 C 166.662 13.935 166.449 13.551 166.128 13.307 L 166.128 13.307 Z M 148.603 3.397 L 161.332 13.031 L 148.603 13.031 L 148.603 3.397 Z M 163.983 65.118 C 163.983 69.796 160.178 73.601 155.5 73.601 L 125.403 73.601 C 120.726 73.601 116.92 69.796 116.92 65.118 L 116.92 10.526 C 116.92 5.849 120.726 2.043 125.403 2.043 L 145.924 2.043 L 145.924 13.478 C 145.924 14.709 146.926 15.71 148.157 15.71 L 163.983 15.71 L 163.983 65.118 Z"/>
      <path d="M 139.36 42.197 C 144.373 44.161 145.084 44.888 144.438 47.375 C 143.948 49.247 143.106 49.822 142.524 50.082 C 141.925 50.351 141.224 50.45 140.48 50.443 C 140.463 50.443 140.456 50.435 140.439 50.435 C 140.422 50.435 140.413 50.443 140.399 50.443 C 138.124 50.392 135.523 49.346 134.549 48.848 C 133.02 48.054 131.122 48.651 130.32 50.189 C 129.519 51.727 130.115 53.623 131.663 54.425 C 132.088 54.647 134.392 55.791 137.305 56.381 L 137.305 58.661 C 137.305 60.397 138.713 61.802 140.446 61.802 C 142.181 61.802 143.588 60.397 143.588 58.661 L 143.588 56.347 C 144.086 56.215 144.586 56.062 145.067 55.849 C 146.957 55.014 149.435 53.142 150.525 48.994 C 152.7 40.693 145.788 37.986 141.656 36.373 C 137.713 34.837 136.307 34.001 136.25 32.439 C 136.194 30.64 136.756 30.239 136.945 30.11 C 138.607 28.929 143.458 29.872 146.32 31.001 C 147.923 31.637 149.754 30.861 150.401 29.241 C 151.048 27.63 150.254 25.805 148.643 25.16 C 147.938 24.884 145.986 24.153 143.588 23.687 L 143.588 21.339 C 143.588 19.605 142.181 18.198 140.446 18.198 C 138.713 18.198 137.305 19.605 137.305 21.339 L 137.305 23.441 C 135.882 23.663 134.516 24.128 133.339 24.955 C 131.728 26.094 129.832 28.35 129.977 32.653 C 130.175 38.597 135.482 40.678 139.36 42.197 Z" style=""/>
    </g>
  </g>
</svg>