<?xml version="1.0" encoding="utf-8"?>
<svg viewBox="0 0 500 500" xmlns="http://www.w3.org/2000/svg">
  <defs/>
  <title>Ethereum icon</title>
  <path d="M 417.751 174.574 C 421.762 174.574 425.589 172.991 428.418 170.157 C 431.247 167.328 432.858 163.478 432.858 159.472 L 432.858 125.954 C 432.678 122.22 431.136 118.667 428.51 115.994 L 319.206 4.533 C 316.371 1.635 312.504 0 308.447 0 L 118.296 0 C 90.012 0 67.096 22.922 67.096 51.2 L 67.096 159.536 C 67.096 167.872 73.844 174.643 82.18 174.643 C 90.533 174.643 97.281 167.872 97.281 159.536 L 97.281 51.2 C 97.281 39.588 106.678 30.186 118.296 30.186 L 291.235 30.186 L 291.235 90.58 C 291.444 118.707 314.313 141.42 342.458 141.42 L 402.852 141.42 L 402.852 159.536 L 402.829 159.536 C 402.875 167.803 409.56 174.504 417.82 174.574 L 417.751 174.574 Z M 342.458 111.235 C 330.841 111.235 321.444 101.814 321.444 90.22 L 321.444 49.82 L 381.884 111.235 L 342.458 111.235 Z M 433.038 448.8 L 433.038 448.777 C 433.038 477.061 410.099 500 381.815 500 L 118.296 500 C 90.018 500 67.096 477.061 67.096 448.777 L 67.096 416.238 C 67.096 407.901 73.849 401.13 82.18 401.13 C 90.533 401.13 97.287 407.901 97.287 416.238 L 97.287 449.026 C 97.287 460.643 106.684 470.041 118.302 470.041 L 381.71 470.041 C 387.275 470.041 392.62 467.82 396.562 463.884 C 400.504 459.942 402.725 454.597 402.725 449.026 L 402.725 416.238 C 402.725 407.901 409.473 401.13 417.826 401.13 C 426.162 401.13 432.91 407.901 432.91 416.238 L 433.038 448.8 Z"/>
  <path d="M 189.244 243.528 L 189.244 255.684 C 189.244 258.904 190.52 261.999 192.799 264.279 C 195.078 266.557 198.173 267.832 201.401 267.832 C 221.536 267.832 237.853 284.148 237.853 304.292 L 237.853 316.439 C 237.853 336.582 221.536 352.899 201.401 352.899 C 181.258 352.899 164.941 336.582 164.941 316.439 C 164.941 309.727 170.378 304.292 177.096 304.292 C 183.808 304.292 189.244 309.727 189.244 316.439 C 189.244 323.152 194.681 328.596 201.401 328.596 C 208.112 328.596 213.548 323.152 213.548 316.439 L 213.548 304.292 C 213.548 301.064 212.272 297.969 209.995 295.689 C 207.716 293.411 204.62 292.136 201.393 292.136 C 181.258 292.136 164.941 275.819 164.941 255.684 L 164.941 243.528 C 164.941 223.385 181.258 207.077 201.393 207.077 C 221.536 207.077 237.853 223.385 237.853 243.528 C 237.853 250.24 232.416 255.684 225.696 255.684 C 218.984 255.684 213.548 250.24 213.548 243.528 C 213.548 236.816 208.112 231.38 201.393 231.38 C 194.681 231.38 189.244 236.816 189.244 243.528 Z M 140.638 219.224 L 140.638 316.439 C 140.638 336.582 124.321 352.899 104.178 352.899 L 79.874 352.899 C 73.162 352.899 67.726 347.454 67.726 340.742 C 67.726 334.032 73.162 328.596 79.874 328.596 L 104.178 328.596 C 107.406 328.596 110.501 327.312 112.779 325.034 C 115.058 322.762 116.333 319.659 116.333 316.439 L 116.333 219.224 C 116.333 212.514 121.77 207.069 128.489 207.069 C 135.201 207.069 140.638 212.514 140.638 219.224 Z M 298.608 207.077 C 278.464 207.077 262.148 223.385 262.148 243.528 L 262.148 316.439 C 262.148 336.582 278.464 352.899 298.608 352.899 C 318.751 352.899 335.059 336.582 335.059 316.439 L 335.059 243.528 C 335.059 223.385 318.751 207.077 298.608 207.077 Z M 310.756 316.439 C 310.756 323.152 305.319 328.588 298.608 328.588 C 291.896 328.588 286.452 323.152 286.452 316.439 L 286.452 243.528 C 286.452 236.809 291.896 231.372 298.608 231.372 C 305.319 231.372 310.756 236.809 310.756 243.528 L 310.756 316.439 Z M 432.274 243.528 L 432.274 340.742 C 432.274 347.454 426.838 352.891 420.126 352.891 C 413.414 352.891 407.97 347.454 407.97 340.742 L 407.97 243.528 C 407.97 236.809 402.534 231.372 395.822 231.372 C 389.111 231.372 383.667 236.809 383.667 243.528 L 383.667 340.742 C 383.667 347.454 378.23 352.891 371.518 352.891 C 364.806 352.891 359.364 347.454 359.364 340.742 L 359.364 243.528 C 359.364 223.385 375.679 207.069 395.822 207.069 C 415.965 207.069 432.274 223.385 432.274 243.528 Z" style=""/>
</svg>