<?xml version="1.0" encoding="utf-8"?>
<svg viewBox="0 0 500 500" xmlns="http://www.w3.org/2000/svg">
  <defs/>
  <path d="M 107.326 500 L 90.94 430.601 L 90.94 500 L 62.961 500 L 62.961 356.222 L 90.76 356.222 L 90.76 430.601 L 106.592 356.222 L 133.65 356.222 L 117.084 430.416 L 135.125 500 L 107.326 500 Z" style=""/>
  <path d="M 168.813 500 L 168.813 356.222 L 230.299 356.222 L 230.299 380.706 L 199.377 380.706 L 199.377 412.19 L 219.621 412.19 L 219.621 440.538 L 199.377 440.538 L 199.377 474.781 L 230.299 474.781 L 230.299 500 L 168.813 500 Z" style=""/>
  <path d="M 135.49 35.162 L 62.591 35.162 L 62.591 328.058 L 135.49 328.058 L 135.49 35.162 Z" style=""/>
  <path d="M 437.409 64.801 L 364.505 64.801 L 364.505 328.058 L 437.409 328.058 L 437.409 64.801 Z" style=""/>
  <path d="M 336.711 0 L 263.807 0 L 263.807 328.058 L 336.711 328.058 L 336.711 0 Z" style=""/>
  <path d="M 236.008 113.955 L 163.109 113.955 L 163.109 328.058 L 236.008 328.058 L 236.008 113.955 Z" style=""/>
  <path d="M 309.462 500 L 299.704 455.086 L 288.292 500 L 261.968 500 L 284.058 428.576 L 263.807 356.222 L 291.791 356.222 L 301.179 403.722 L 312.406 356.222 L 338.551 356.222 L 317.01 424.892 L 337.995 500 C 337.81 500 309.462 500 309.462 500 Z" style=""/>
  <path d="M 409.61 445.877 L 398.747 445.877 L 398.747 500 L 370.948 500 L 370.948 356.222 L 409.61 356.222 C 424.152 356.222 436.854 364.875 436.854 384.946 L 436.854 417.158 C 436.854 437.224 424.152 445.877 409.61 445.877 Z M 410.715 386.045 C 410.715 381.261 408.69 379.607 405.746 379.607 L 398.932 379.607 L 398.932 424.522 L 405.746 424.522 C 408.875 424.522 410.715 422.867 410.715 418.263 L 410.715 386.045 Z" style=""/>
</svg>