<?xml version="1.0" encoding="utf-8"?>
<svg viewBox="0 0 500 500" xmlns="http://www.w3.org/2000/svg">
  <defs/>
  <path d="M 479.131 130.239 L 79.48 130.239 L 41.607 130.239 L 20.847 130.239 C 9.364 130.239 0 139.603 0 151.086 L 0 348.936 C 0 360.419 9.342 369.783 20.847 369.783 L 479.153 369.783 C 490.636 369.783 500 360.419 500 348.936 L 500 151.086 C 500 139.603 490.658 130.239 479.153 130.239 L 479.131 130.239 Z M 52.476 130.217 L 68.611 130.217 L 52.476 130.217 Z M 489.109 348.936 C 489.109 354.436 484.631 358.914 479.131 358.914 L 20.847 358.914 C 15.347 358.914 10.869 354.436 10.869 348.936 L 10.869 151.086 C 10.869 145.586 15.347 141.108 20.847 141.108 L 479.153 141.108 C 484.653 141.108 489.131 145.586 489.131 151.086 L 489.131 348.936 L 489.109 348.936 Z"/>
  <path d="M 474.463 149.462 L 26.2 149.462 C 23.205 149.462 20.765 151.88 20.765 154.896 L 20.765 341.432 C 20.765 344.448 23.205 346.866 26.2 346.866 L 474.441 346.866 C 477.435 346.866 479.875 344.448 479.875 341.432 L 479.875 154.896 C 479.875 151.88 477.435 149.462 474.441 149.462 L 474.463 149.462 Z M 378.086 298.7 L 378.086 272.272 L 407.786 272.272 L 407.786 298.7 L 378.086 298.7 Z M 398.363 261.381 L 398.363 234.953 L 469.034 234.953 L 469.034 261.381 L 398.363 261.381 Z M 357.794 261.381 L 357.794 234.953 L 387.494 234.953 L 387.494 261.381 L 357.794 261.381 Z M 337.518 298.7 L 337.518 272.272 L 367.217 272.272 L 367.217 298.7 L 337.518 298.7 Z M 296.97 298.7 L 296.97 272.272 L 326.67 272.272 L 326.67 298.7 L 296.97 298.7 Z M 256.407 298.7 L 256.407 272.272 L 286.101 272.272 L 286.101 298.7 L 256.407 298.7 Z M 215.86 298.7 L 215.86 272.272 L 245.554 272.272 L 245.554 298.7 L 215.86 298.7 Z M 175.291 298.7 L 175.291 272.272 L 204.991 272.272 L 204.991 298.7 L 175.291 298.7 Z M 134.744 298.7 L 134.744 272.272 L 164.444 272.272 L 164.444 298.7 L 134.744 298.7 Z M 31.634 261.381 L 31.634 234.953 L 101.881 234.953 L 101.881 261.381 L 31.634 261.381 Z M 123.875 197.65 L 123.875 224.078 L 94.175 224.078 L 94.175 197.65 L 123.875 197.65 Z M 164.422 197.65 L 164.422 224.078 L 134.722 224.078 L 134.722 197.65 L 164.422 197.65 Z M 204.991 197.65 L 204.991 224.078 L 175.291 224.078 L 175.291 197.65 L 204.991 197.65 Z M 245.538 197.65 L 245.538 224.078 L 215.838 224.078 L 215.838 197.65 L 245.538 197.65 Z M 286.101 197.65 L 286.101 224.078 L 256.407 224.078 L 256.407 197.65 L 286.101 197.65 Z M 326.648 197.65 L 326.648 224.078 L 296.949 224.078 L 296.949 197.65 L 326.648 197.65 Z M 367.217 197.65 L 367.217 224.078 L 337.518 224.078 L 337.518 197.65 L 367.217 197.65 Z M 407.764 197.65 L 407.764 224.078 L 378.065 224.078 L 378.065 197.65 L 407.764 197.65 Z M 317.247 261.381 L 317.247 234.953 L 346.946 234.953 L 346.946 261.381 L 317.247 261.381 Z M 276.678 261.381 L 276.678 234.953 L 306.378 234.953 L 306.378 261.381 L 276.678 261.381 Z M 236.131 261.381 L 236.131 234.953 L 265.83 234.953 L 265.83 261.381 L 236.131 261.381 Z M 195.562 261.381 L 195.562 234.953 L 225.262 234.953 L 225.262 261.381 L 195.562 261.381 Z M 155.02 261.381 L 155.02 234.953 L 184.714 234.953 L 184.714 261.381 L 155.02 261.381 Z M 112.75 234.953 L 144.129 234.953 L 144.129 261.381 L 112.75 261.381 L 112.75 234.953 Z M 418.634 224.084 L 418.634 197.65 L 469.012 197.65 L 469.012 224.084 L 418.634 224.084 Z M 396.662 186.781 L 396.662 160.353 L 426.361 160.353 L 426.361 186.781 L 396.662 186.781 Z M 385.793 186.781 L 356.093 186.781 L 356.093 160.353 L 385.793 160.353 L 385.793 186.781 Z M 345.245 186.781 L 315.551 186.781 L 315.551 160.353 L 345.245 160.353 L 345.245 186.781 Z M 304.682 186.781 L 274.982 186.781 L 274.982 160.353 L 304.682 160.353 L 304.682 186.781 Z M 264.113 186.781 L 234.413 186.781 L 234.413 160.353 L 264.113 160.353 L 264.113 186.781 Z M 223.566 186.781 L 193.866 186.781 L 193.866 160.353 L 223.566 160.353 L 223.566 186.781 Z M 182.997 186.781 L 153.297 186.781 L 153.297 160.353 L 182.997 160.353 L 182.997 186.781 Z M 142.45 186.781 L 112.75 186.781 L 112.75 160.353 L 142.45 160.353 L 142.45 186.781 Z M 101.881 186.781 L 72.187 186.781 L 72.187 160.353 L 101.881 160.353 L 101.881 186.781 Z M 83.306 197.65 L 83.306 224.084 L 31.639 224.084 L 31.639 197.65 L 83.306 197.65 Z M 31.639 272.25 L 123.858 272.25 L 123.858 298.684 L 31.639 298.705 L 31.639 272.25 Z M 101.886 309.575 L 101.886 336.003 L 72.187 336.003 L 72.187 309.575 L 101.886 309.575 Z M 112.756 309.575 L 142.45 309.575 L 142.45 336.003 L 112.756 336.003 L 112.756 309.575 Z M 153.319 309.575 L 356.326 309.575 L 356.326 336.003 L 153.319 336.003 L 153.319 309.575 Z M 367.196 309.575 L 396.895 309.575 L 396.895 336.003 L 367.196 336.003 L 367.196 309.575 Z M 418.634 272.25 L 469.012 272.25 L 469.012 298.684 L 418.634 298.684 L 418.634 272.25 Z M 469.034 186.781 L 437.231 186.781 L 437.231 160.353 L 469.034 160.353 L 469.034 186.781 Z M 61.334 160.331 L 61.334 186.759 L 31.634 186.759 L 31.634 160.331 L 61.334 160.331 Z M 31.634 309.569 L 61.334 309.569 L 61.334 335.997 L 31.634 335.997 L 31.634 309.569 Z M 407.764 336.019 L 407.764 309.591 L 469.028 309.591 L 469.028 336.019 L 407.764 336.019 Z"/>
</svg>