<?xml version="1.0" encoding="utf-8"?>
<svg data-name="Layer 1" viewBox="0 0 100 100" x="0px" y="0px" xmlns="http://www.w3.org/2000/svg">
  <path d="M 98.64 50 C 98.64 62.088 88.842 71.887 76.753 71.887 L 63.374 71.887 C 61.363 71.887 59.726 70.254 59.726 68.24 C 59.726 66.224 61.363 64.592 63.374 64.592 L 76.753 64.592 C 84.81 64.592 91.344 58.057 91.344 50 C 91.344 41.942 84.81 35.408 76.753 35.408 L 63.374 35.408 C 61.363 35.408 59.726 33.775 59.726 31.76 C 59.726 29.744 61.363 28.113 63.374 28.113 L 76.753 28.113 C 88.841 28.113 98.64 37.911 98.64 50 Z M 36.626 64.592 C 38.637 64.592 40.274 66.224 40.274 68.24 C 40.274 70.254 38.637 71.887 36.626 71.887 L 23.238 71.887 C 17.433 71.887 11.87 69.58 7.766 65.48 C 3.663 61.377 1.36 55.813 1.36 50.008 L 1.36 49.991 C 1.36 44.186 3.666 38.623 7.766 34.519 C 11.87 30.415 17.433 28.113 23.238 28.113 L 36.626 28.113 C 38.637 28.113 40.274 29.744 40.274 31.76 C 40.274 33.775 38.637 35.408 36.626 35.408 L 23.238 35.408 C 19.372 35.408 15.664 36.945 12.928 39.681 C 10.192 42.417 8.656 46.123 8.656 49.991 L 8.656 50.008 C 8.656 53.876 10.192 57.588 12.928 60.318 C 15.664 63.054 19.372 64.592 23.238 64.592 L 36.626 64.592 Z M 31.155 53.648 C 29.139 53.648 27.507 52.015 27.507 50 C 27.507 47.984 29.139 46.352 31.155 46.352 L 68.851 46.352 C 70.866 46.352 72.499 47.984 72.499 50 C 72.499 52.015 70.866 53.648 68.851 53.648 L 31.155 53.648 Z" fill-rule="evenodd" style=""/>
</svg>