<?xml version="1.0" encoding="utf-8"?>
<svg viewBox="0 0 500 500" xmlns="http://www.w3.org/2000/svg">
  <g transform="matrix(1.054021, 0, 0, 1.054021, 97.582153, -92.138039)" style="">
    <path d="M 270.277 223.22 L 304.549 223.22 C 306.436 223.22 308.256 222.475 309.583 221.126 C 310.932 219.793 311.683 217.973 311.683 216.07 L 311.683 181.798 C 311.683 179.912 310.932 178.091 309.583 176.764 C 308.256 175.415 306.436 174.664 304.549 174.664 L 270.277 174.664 C 266.34 174.664 263.127 177.855 263.127 181.798 L 263.127 216.07 C 263.127 217.973 263.873 219.793 265.227 221.126 C 266.554 222.475 268.375 223.22 270.277 223.22 Z M 277.411 188.948 L 297.399 188.948 L 297.399 208.936 L 277.411 208.936 L 277.411 188.948 Z" style=""/>
    <path d="M 190.295 223.22 L 224.567 223.22 C 226.475 223.22 228.295 222.475 229.622 221.126 C 230.971 219.793 231.723 217.973 231.723 216.07 L 231.723 181.798 C 231.723 179.912 230.971 178.091 229.622 176.764 C 228.295 175.415 226.475 174.664 224.567 174.664 L 190.295 174.664 C 186.358 174.664 183.166 177.855 183.166 181.798 L 183.166 216.07 C 183.166 217.973 183.912 219.793 185.261 221.126 C 186.593 222.475 188.414 223.22 190.295 223.22 Z M 197.429 188.948 L 217.416 188.948 L 217.416 208.936 L 197.429 208.936 L 197.429 188.948 Z" style=""/>
    <path d="M 270.277 303.181 L 304.549 303.181 C 306.436 303.181 308.256 302.435 309.583 301.086 C 310.932 299.754 311.683 297.933 311.683 296.053 L 311.683 261.781 C 311.683 259.872 310.932 258.052 309.583 256.725 C 308.256 255.376 306.436 254.625 304.549 254.625 L 270.277 254.625 C 266.34 254.625 263.127 257.838 263.127 261.781 L 263.127 296.053 C 263.127 297.933 263.873 299.754 265.227 301.086 C 266.554 302.435 268.375 303.181 270.277 303.181 Z M 277.411 268.909 L 297.399 268.909 L 297.399 288.897 L 277.411 288.897 L 277.411 268.909 Z" style=""/>
    <path d="M 190.295 303.181 L 224.567 303.181 C 226.475 303.181 228.295 302.435 229.622 301.086 C 230.971 299.754 231.723 297.933 231.723 296.053 L 231.723 261.781 C 231.723 259.872 230.971 258.052 229.622 256.725 C 228.295 255.376 226.475 254.625 224.567 254.625 L 190.295 254.625 C 186.358 254.625 183.166 257.838 183.166 261.781 L 183.166 296.053 C 183.166 297.933 183.912 299.754 185.261 301.086 C 186.593 302.435 188.414 303.181 190.295 303.181 Z M 197.429 268.909 L 217.416 268.909 L 217.416 288.897 L 197.429 288.897 L 197.429 268.909 Z" style=""/>
    <path d="M 270.277 383.142 L 304.549 383.142 C 306.436 383.142 308.256 382.396 309.583 381.069 C 310.932 379.715 311.683 377.894 311.683 376.013 L 311.683 341.741 C 311.683 339.855 310.932 338.034 309.583 336.685 C 308.256 335.358 306.436 334.607 304.549 334.607 L 270.277 334.607 C 266.34 334.607 263.127 337.799 263.127 341.741 L 263.127 376.013 C 263.127 377.894 263.873 379.715 265.227 381.069 C 266.554 382.396 268.375 383.142 270.277 383.142 Z M 277.411 348.87 L 297.399 348.87 L 297.399 368.857 L 277.411 368.857 L 277.411 348.87 Z" style=""/>
    <path d="M 190.295 383.142 L 224.567 383.142 C 226.475 383.142 228.295 382.396 229.622 381.069 C 230.971 379.715 231.723 377.894 231.723 376.013 L 231.723 341.741 C 231.723 339.855 230.971 338.034 229.622 336.685 C 228.295 335.358 226.475 334.607 224.567 334.607 L 190.295 334.607 C 186.358 334.607 183.166 337.799 183.166 341.741 L 183.166 376.013 C 183.166 377.894 183.912 379.715 185.261 381.069 C 186.593 382.396 188.414 383.142 190.295 383.142 Z M 197.429 348.87 L 217.416 348.87 L 217.416 368.857 L 197.429 368.857 L 197.429 348.87 Z" style=""/>
    <path d="M 270.277 463.124 L 304.549 463.124 C 306.436 463.124 308.256 462.379 309.583 461.03 C 310.932 459.697 311.683 457.877 311.683 455.974 L 311.683 421.702 C 311.683 419.816 310.932 417.995 309.583 416.668 C 308.256 415.319 306.436 414.568 304.549 414.568 L 270.277 414.568 C 266.34 414.568 263.127 417.759 263.127 421.702 L 263.127 455.974 C 263.127 457.877 263.873 459.697 265.227 461.03 C 266.554 462.379 268.375 463.124 270.277 463.124 Z M 277.411 428.852 L 297.399 428.852 L 297.399 448.84 L 277.411 448.84 L 277.411 428.852 Z" style=""/>
    <path d="M 190.295 463.124 L 224.567 463.124 C 226.475 463.124 228.295 462.379 229.622 461.03 C 230.971 459.697 231.723 457.877 231.723 455.974 L 231.723 421.702 C 231.723 419.816 230.971 417.995 229.622 416.668 C 228.295 415.319 226.475 414.568 224.567 414.568 L 190.295 414.568 C 186.358 414.568 183.166 417.759 183.166 421.702 L 183.166 455.974 C 183.166 457.877 183.912 459.697 185.261 461.03 C 186.593 462.379 188.414 463.124 190.295 463.124 Z M 197.429 428.852 L 217.416 428.852 L 217.416 448.84 L 197.429 448.84 L 197.429 428.852 Z" style=""/>
    <path d="M 373.093 500.242 L 357.372 500.242 L 357.372 107.551 C 357.372 105.648 356.621 103.828 355.294 102.501 C 353.945 101.146 352.124 100.401 350.238 100.401 L 64.645 100.401 C 60.708 100.401 57.495 103.614 57.495 107.551 L 57.495 160.632 L -47.229 123.662 C -49.417 122.889 -51.836 123.234 -53.722 124.561 C -55.608 125.91 -56.743 128.076 -56.743 130.39 L -56.743 488.831 L -83.881 488.831 C -87.824 488.831 -91.015 492.023 -91.015 495.96 L -91.015 541.648 C -91.015 543.557 -90.264 545.377 -88.915 546.704 C -87.588 548.053 -85.768 548.804 -83.881 548.804 L 373.093 548.804 C 374.98 548.804 376.8 548.053 378.127 546.704 C 379.476 545.377 380.227 543.557 380.227 541.648 L 380.227 507.376 C 380.227 505.496 379.476 503.675 378.127 502.343 C 376.8 500.994 374.98 500.248 373.093 500.248 L 373.093 500.242 Z M -76.725 503.094 L -56.738 503.094 L -56.738 534.514 L -76.725 534.514 L -76.725 503.094 Z M 3.235 534.514 L 3.235 457.405 L 40.359 457.405 L 40.359 534.514 L 3.235 534.514 Z M 54.643 534.514 L 54.643 457.405 L 91.767 457.405 L 91.767 534.514 L 54.643 534.514 Z M 365.943 534.514 L 151.746 534.514 L 151.746 198.928 C 151.746 195.913 149.843 193.209 146.991 192.206 L 98.435 175.07 C 96.653 174.428 94.684 174.51 92.951 175.327 C 91.235 176.161 89.93 177.62 89.288 179.418 C 88.647 181.195 88.773 183.163 89.584 184.88 C 90.423 186.591 91.898 187.923 93.681 188.543 L 137.461 204.006 L 137.483 534.514 L 106.057 534.514 L 106.057 450.271 C 106.057 448.368 105.311 446.548 103.962 445.215 C 102.63 443.866 100.809 443.121 98.928 443.121 L -3.888 443.121 C -7.83 443.121 -11.044 446.328 -11.044 450.271 L -11.044 534.514 L -42.448 534.514 L -42.448 140.474 L 62.063 177.362 L 62.063 177.384 C 63.839 178.003 65.813 177.894 67.524 177.082 C 69.219 176.271 70.546 174.812 71.165 173.013 L 71.187 172.86 C 71.577 171.982 71.79 171.023 71.79 170.036 L 71.79 114.685 L 343.115 114.685 L 343.115 500.242 L 178.889 500.242 C 174.946 500.242 171.755 503.434 171.755 507.376 C 171.755 511.314 174.946 514.527 178.889 514.527 L 365.948 514.527 L 365.943 534.514 Z" style=""/>
    <path d="M 21.803 240.356 L 4.667 240.356 C 0.729 240.356 -2.484 243.548 -2.484 247.491 L -2.484 264.627 C -2.484 268.569 0.729 271.761 4.667 271.761 C 8.609 271.761 11.801 268.569 11.801 264.627 L 11.801 254.625 L 21.803 254.625 C 25.745 254.625 28.937 251.433 28.937 247.491 C 28.937 243.548 25.745 240.356 21.803 240.356 Z" style=""/>
    <path d="M 66.06 247.491 L 66.06 264.627 C 66.06 268.569 69.273 271.761 73.216 271.761 C 77.159 271.761 80.35 268.569 80.35 264.627 L 80.35 254.625 L 90.352 254.625 C 94.295 254.625 97.486 251.433 97.486 247.491 C 97.486 243.553 94.295 240.362 90.352 240.362 L 73.216 240.362 C 69.273 240.362 66.06 243.553 66.06 247.491 Z" style=""/>
    <path d="M 21.803 308.9 L 4.667 308.9 C 0.729 308.9 -2.484 312.092 -2.484 316.035 L -2.484 333.171 C -2.484 337.113 0.729 340.305 4.667 340.305 C 8.609 340.305 11.801 337.113 11.801 333.171 L 11.801 323.169 L 21.803 323.169 C 25.745 323.169 28.937 319.977 28.937 316.035 C 28.937 312.092 25.745 308.9 21.803 308.9 Z" style=""/>
    <path d="M 90.347 308.9 L 73.211 308.9 C 69.273 308.9 66.06 312.092 66.06 316.035 L 66.06 333.171 C 66.06 337.113 69.273 340.305 73.211 340.305 C 77.153 340.305 80.345 337.113 80.345 333.171 L 80.345 323.169 L 90.347 323.169 C 94.289 323.169 97.481 319.977 97.481 316.035 C 97.481 312.092 94.289 308.9 90.347 308.9 Z" style=""/>
    <path d="M 21.803 377.444 L 4.667 377.444 C 0.729 377.444 -2.484 380.636 -2.484 384.579 L -2.484 401.714 C -2.484 405.657 0.729 408.849 4.667 408.849 C 8.609 408.849 11.801 405.657 11.801 401.714 L 11.801 391.713 L 21.803 391.713 C 25.745 391.713 28.937 388.521 28.937 384.579 C 28.937 380.636 25.745 377.444 21.803 377.444 Z" style=""/>
    <path d="M 90.347 377.444 L 73.211 377.444 C 69.273 377.444 66.06 380.636 66.06 384.579 L 66.06 401.714 C 66.06 405.657 69.273 408.849 73.211 408.849 C 77.153 408.849 80.345 405.657 80.345 401.714 L 80.345 391.713 L 90.347 391.713 C 94.289 391.713 97.481 388.521 97.481 384.579 C 97.481 380.636 94.289 377.444 90.347 377.444 Z" style=""/>
  </g>
</svg>