<?xml version="1.0" encoding="utf-8"?>
<svg xmlns="http://www.w3.org/2000/svg" viewBox="0 0 500 500">
  <path d="M 460.169 257.97 L 361.761 356.377 C 359.507 358.631 356.709 359.644 353.781 359.644 C 350.853 359.644 348.049 358.523 345.795 356.377 C 341.417 351.998 341.417 344.918 345.795 340.54 L 424.995 261.34 L 120.569 261.34 C 114.401 261.34 109.343 256.282 109.343 250.113 C 109.343 243.939 114.401 238.887 120.569 238.887 L 425.119 238.887 L 345.919 159.686 C 341.541 155.303 341.541 148.228 345.919 143.844 C 350.303 139.466 357.378 139.466 361.761 143.844 L 460.169 242.251 C 464.547 246.635 464.547 253.71 460.169 258.094 L 460.169 257.97 Z M 283.683 339.866 C 277.514 339.866 272.456 344.924 272.456 351.092 L 272.456 463.422 C 272.456 469.596 267.404 474.649 261.23 474.649 L 70.25 474.67 C 64.081 474.67 59.023 469.613 59.023 463.444 L 59.007 36.556 C 59.007 30.382 64.059 25.33 70.233 25.33 L 261.214 25.33 C 267.382 25.33 272.44 30.382 272.44 36.556 L 272.44 148.886 C 272.44 155.055 277.492 160.112 283.667 160.112 C 289.835 160.112 294.893 155.055 294.893 148.886 L 294.909 36.556 C 294.909 18.018 279.746 2.855 261.208 2.855 L 70.25 2.855 C 51.717 2.855 36.549 18.018 36.549 36.556 L 36.549 463.444 C 36.549 481.977 51.717 497.145 70.25 497.145 L 261.23 497.145 C 279.768 497.145 294.931 481.977 294.931 463.444 L 294.931 351.114 C 294.931 344.94 289.878 339.888 283.704 339.888 L 283.683 339.866 Z" style=""/>
</svg>