<?xml version="1.0" encoding="utf-8"?>
<svg viewBox="0 0 233.657 497.389" xmlns="http://www.w3.org/2000/svg">
  <g stroke="none" transform="matrix(3.371041, 0, 0, 3.371041, 81.447662, 256.454498)" style="">
    <g stroke-width="14">
      <g transform="matrix(4.733769, 0, 0, 4.733769, 12.129792, 5.306681)">
        <g transform="matrix(0.954325, 0, 0, 0.954325, -7.781097, -3.805385)" style="">
          <path d="M 8 18.195 C 8.076 18.195 8.151 18.169 8.213 18.118 L 14.894 12.652 L 14.468 12.129 L 8.337 17.145 L 8.337 10.569 L 7.663 10.569 L 7.663 17.145 L 1.532 12.129 L 1.106 12.652 L 7.787 18.118 C 7.849 18.169 7.924 18.195 8 18.195 Z" style=""/>
          <rect x="7.663" y="7.5" width="0.675" height="2.429" style=""/>
          <rect x="7.711" y="-6.759" width="0.675" height="10.051" rx="0.005" ry="0.005" style=""/>
          <rect x="7.672" y="-13.417" width="0.675" height="5.901" style=""/>
          <rect x="7.703" y="4.179" width="0.675" height="2.429" style=""/>
        </g>
      </g>
    </g>
  </g>
</svg>