<?xml version="1.0" encoding="utf-8"?>
<svg xmlns="http://www.w3.org/2000/svg" viewBox="0 0 500 500">
  <g transform="matrix(5.211078, 0, 0, 5.211078, -1917.62085, -1138.642822)" style="">
    <path d="M 383.993 313.354 L 447.938 313.354 C 453.626 313.354 458.254 308.725 458.254 303.038 C 458.254 297.351 453.626 292.722 447.938 292.722 L 436.395 292.722 L 436.395 268.687 L 448.438 256.644 C 449.048 256.035 449.048 255.046 448.438 254.433 C 447.829 253.824 446.841 253.824 446.228 254.433 L 434.185 266.476 L 397.74 266.476 L 385.818 254.554 C 385.208 253.945 384.22 253.945 383.607 254.554 C 382.997 255.163 382.997 256.152 383.607 256.765 L 395.529 268.687 L 395.529 292.722 L 384.83 292.722 C 384.771 292.722 384.72 292.749 384.662 292.757 C 384.439 292.741 384.216 292.722 383.99 292.722 C 378.302 292.722 373.674 297.351 373.674 303.038 C 373.674 308.725 378.303 313.354 383.99 313.354 L 383.993 313.354 Z M 408.583 295.846 C 406.771 297.705 405.65 300.24 405.65 303.037 C 405.65 305.834 406.771 308.369 408.583 310.229 L 391.372 310.229 C 393.185 308.369 394.306 305.834 394.306 303.037 C 394.306 300.24 393.185 297.705 391.372 295.846 L 408.583 295.846 Z M 440.556 295.846 C 438.744 297.705 437.623 300.24 437.623 303.037 C 437.623 305.834 438.744 308.369 440.556 310.229 L 423.345 310.229 C 425.158 308.369 426.279 305.834 426.279 303.037 C 426.279 300.24 425.158 297.705 423.345 295.846 L 440.556 295.846 Z M 423.158 303.037 C 423.158 307.002 419.932 310.229 415.967 310.229 C 412.002 310.229 408.776 307.002 408.776 303.037 C 408.776 299.073 412.002 295.846 415.967 295.846 C 419.932 295.846 423.158 299.073 423.158 303.037 Z M 455.131 303.037 C 455.131 307.002 451.905 310.229 447.94 310.229 C 443.975 310.229 440.749 307.002 440.749 303.037 C 440.749 299.073 443.975 295.846 447.94 295.846 C 451.909 295.846 455.131 299.073 455.131 303.037 Z M 398.662 269.603 L 433.275 269.603 L 433.275 292.72 L 398.662 292.72 L 398.662 269.603 Z M 383.994 295.845 C 387.959 295.845 391.186 299.072 391.186 303.037 C 391.186 307.002 387.959 310.228 383.994 310.228 C 380.026 310.228 376.803 307.002 376.803 303.037 C 376.803 299.072 380.03 295.845 383.994 295.845 Z"/>
    <path d="M 404.872 256.385 C 405.169 256.85 405.677 257.104 406.189 257.104 C 406.478 257.104 406.771 257.026 407.033 256.854 C 407.759 256.389 407.97 255.42 407.505 254.693 L 401.693 245.647 L 410.13 239.615 C 411.65 241.068 413.705 241.967 415.966 241.967 C 418.232 241.967 420.29 241.069 421.81 239.611 L 430.236 245.651 L 424.451 254.697 C 423.986 255.424 424.201 256.389 424.927 256.854 C 425.189 257.022 425.482 257.1 425.767 257.1 C 426.283 257.1 426.787 256.846 427.087 256.381 L 433.673 246.084 C 434.119 245.385 433.943 244.455 433.267 243.971 L 423.638 237.068 C 424.146 235.983 424.435 234.779 424.435 233.506 C 424.435 229.373 421.458 225.928 417.533 225.193 L 417.533 221.166 C 417.533 220.303 416.833 219.604 415.97 219.604 C 415.107 219.604 414.408 220.303 414.408 221.166 L 414.408 225.193 C 410.486 225.928 407.505 229.373 407.505 233.506 C 407.505 234.787 407.798 235.994 408.31 237.084 L 398.669 243.975 C 397.99 244.459 397.81 245.389 398.263 246.092 L 404.876 256.389 L 404.872 256.385 Z M 415.966 228.166 C 418.912 228.166 421.306 230.56 421.306 233.506 C 421.306 236.451 418.912 238.846 415.966 238.846 C 414.197 238.846 412.634 237.971 411.662 236.639 C 411.658 236.631 411.654 236.623 411.65 236.615 C 411.638 236.599 411.619 236.592 411.611 236.576 C 410.998 235.709 410.627 234.654 410.627 233.51 C 410.627 230.564 413.021 228.17 415.966 228.17 L 415.966 228.166 Z"/>
  </g>
</svg>