<?xml version="1.0" encoding="utf-8"?>
<svg xmlns="http://www.w3.org/2000/svg" viewBox="0 0 500 500">
  <g transform="matrix(5.262689, 0, 0, 5.262689, -1690.321777, -953.911133)" style="">
    <path d="M 352.024 209.251 C 350.922 209.251 350.024 210.15 350.024 211.251 L 350.024 254.481 C 350.024 255.583 350.922 256.481 352.024 256.481 C 353.125 256.481 354.024 255.583 354.024 254.481 L 354.024 211.251 C 354.024 210.15 353.125 209.251 352.024 209.251 L 352.024 209.251 Z"/>
    <path d="M 380.368 236.044 C 379.266 236.044 378.368 236.943 378.368 238.044 L 378.368 266.274 C 378.368 267.376 379.266 268.274 380.368 268.274 C 381.469 268.274 382.368 267.376 382.368 266.274 L 382.368 238.044 C 382.368 236.943 381.469 236.044 380.368 236.044 L 380.368 236.044 Z"/>
    <path d="M 415.696 203.763 C 415.696 191.634 405.825 181.763 393.696 181.763 C 381.567 181.763 371.696 191.634 371.696 203.763 C 371.696 205.544 371.926 207.552 372.356 209.693 L 354.485 202.251 C 352.934 201.603 351.145 201.603 349.563 202.251 L 325.012 212.47 C 322.993 213.31 321.692 215.142 321.692 217.131 L 321.692 269.053 C 321.692 270.693 322.532 272.193 323.993 273.162 C 325.711 274.31 327.981 274.521 329.934 273.713 L 351.094 264.893 C 351.672 264.654 352.375 264.654 352.946 264.893 L 377.907 275.284 C 378.688 275.604 379.516 275.764 380.356 275.764 C 381.196 275.764 382.036 275.604 382.817 275.284 L 407.368 265.065 C 409.387 264.225 410.688 262.393 410.688 260.404 L 410.688 221.884 C 413.86 215.744 415.688 208.806 415.688 203.763 L 415.696 203.763 Z M 393.696 185.763 C 403.626 185.763 411.696 193.833 411.696 203.763 C 411.696 214.294 402.977 231.763 393.696 231.763 C 384.415 231.763 375.696 214.294 375.696 203.763 C 375.696 193.833 383.766 185.763 393.696 185.763 Z M 406.696 260.404 C 406.696 260.764 406.356 261.154 405.837 261.365 L 381.298 271.584 C 380.719 271.822 380.016 271.822 379.446 271.584 L 354.485 261.193 C 352.934 260.545 351.145 260.545 349.563 261.193 L 328.391 270.013 C 327.52 270.373 326.672 270.142 326.2 269.834 C 325.961 269.674 325.68 269.412 325.68 269.045 L 325.68 217.123 C 325.68 216.763 326.02 216.373 326.539 216.162 L 351.078 205.943 C 351.657 205.704 352.36 205.704 352.93 205.943 L 373.629 214.564 C 376.957 224.853 384.301 235.763 393.68 235.763 C 398.7 235.763 403.129 232.634 406.68 228.142 L 406.68 260.404 L 406.696 260.404 Z"/>
    <path d="M 405.696 203.763 C 405.696 197.142 400.317 191.763 393.696 191.763 C 387.075 191.763 381.696 197.142 381.696 203.763 C 381.696 210.384 387.075 215.763 393.696 215.763 C 400.317 215.763 405.696 210.384 405.696 203.763 Z M 385.696 203.763 C 385.696 199.353 389.286 195.763 393.696 195.763 C 398.106 195.763 401.696 199.353 401.696 203.763 C 401.696 208.173 398.106 211.763 393.696 211.763 C 389.286 211.763 385.696 208.173 385.696 203.763 Z"/>
  </g>
</svg>