<?xml version="1.0" encoding="utf-8"?>
<svg xmlns="http://www.w3.org/2000/svg" viewBox="0 0 500 500">
  <path d="M 145.674 342.537 C 141.415 333.422 145.33 322.551 154.45 318.286 C 163.565 314.026 174.441 317.947 178.701 327.062 C 201.679 376.135 227.249 422.932 244.667 453.59 C 244.713 453.683 244.76 453.748 244.806 453.841 C 245.851 455.732 247.835 456.916 250 456.916 C 252.164 456.916 254.172 455.732 255.199 453.841 C 255.245 453.77 255.287 453.683 255.334 453.613 C 278.721 412.423 316.853 342.088 343.589 276.302 C 360.593 234.476 373.22 194.705 373.22 166.281 C 373.22 98.267 317.997 43.061 250 43.061 C 181.986 43.061 126.78 98.291 126.78 166.281 C 126.78 184.312 132.026 207.016 140.073 231.95 C 143.171 241.525 137.908 251.801 128.332 254.904 C 118.758 258.003 108.481 252.74 105.378 243.164 C 95.942 214.036 90.31 187.363 90.31 166.281 C 90.31 78.142 161.884 6.593 250 6.593 C 338.139 6.593 409.689 78.166 409.689 166.281 C 409.689 198.194 396.45 243.095 377.368 290.05 C 349.997 357.427 310.995 429.456 287.176 471.393 C 279.724 484.953 265.475 493.408 250 493.408 C 234.525 493.408 220.253 484.953 212.959 471.62 C 195.185 440.35 169.108 392.595 145.674 342.542 L 145.674 342.537 Z M 250 85.587 C 296.978 85.587 335.087 123.726 335.087 170.676 C 335.087 217.653 296.955 255.786 250 255.786 C 203.021 255.786 164.913 217.653 164.913 170.676 C 164.913 123.726 203.045 85.587 250 85.587 Z M 250 122.057 C 223.17 122.057 201.382 143.851 201.382 170.676 C 201.382 197.528 223.17 219.317 250 219.317 C 276.83 219.317 298.617 197.528 298.617 170.676 C 298.617 143.851 276.83 122.057 250 122.057 Z" fill-rule="evenodd" style=""/>
</svg>