<?xml version="1.0" encoding="utf-8"?>
<svg viewBox="0 0 500 500" xmlns="http://www.w3.org/2000/svg">
  <defs/>
  <path d="M 158.71 286.983 L 457.903 286.983 C 477.893 286.983 494.552 270.324 494.552 250.333 C 494.552 230.343 477.893 213.684 457.903 213.684 L 158.71 213.684 C 138.718 213.684 122.06 230.343 122.06 250.333 C 122.06 270.324 138.053 286.983 158.71 286.983 Z" style=""/>
  <path d="M 287.982 496.218 L 457.236 496.218 C 477.227 496.218 493.886 479.56 493.886 459.568 C 493.886 439.578 477.227 422.919 457.236 422.919 L 287.982 422.919 C 267.992 422.919 251.333 439.578 251.333 459.568 C 251.333 480.225 267.992 496.218 287.982 496.218 Z" style=""/>
  <path d="M 42.097 77.081 L 457.903 77.081 C 477.893 77.081 494.552 60.422 494.552 40.432 C 494.552 20.44 477.893 3.782 457.903 3.782 L 42.097 3.782 C 22.107 3.782 5.448 20.44 5.448 40.432 C 5.448 60.422 21.441 77.081 42.097 77.081 Z" style=""/>
</svg>