<?xml version="1.0" encoding="utf-8"?>
<svg viewBox="0 0 500 500" xmlns="http://www.w3.org/2000/svg">
  <defs/>
  <path d="M 250 0 C 196.393 0 152.937 43.457 152.937 97.062 L 152.937 239.428 C 152.937 314.148 233.823 360.847 298.531 323.488 C 328.562 306.149 347.062 274.106 347.062 239.428 L 347.062 97.062 C 347.062 43.457 303.605 0 250 0 Z M 314.708 239.428 C 314.708 289.241 260.784 320.374 217.646 295.468 C 197.625 283.909 185.292 262.547 185.292 239.428 L 185.292 97.062 C 185.292 47.25 239.215 16.117 282.354 41.023 C 302.374 52.583 314.708 73.945 314.708 97.062 L 314.708 239.428 Z"/>
  <path d="M 233.818 400.398 L 233.818 467.646 L 169.11 467.646 C 156.656 467.952 149.204 481.625 155.695 492.256 C 158.561 496.948 163.612 499.865 169.11 500 L 330.89 500 C 343.343 499.694 350.795 486.022 344.303 475.39 C 341.438 470.698 336.386 467.782 330.89 467.646 L 266.182 467.646 L 266.182 400.398 C 350.353 392.234 416.361 321.1 416.361 234.829 C 416.666 222.376 403.377 214.262 392.439 220.223 C 387.112 223.126 383.857 228.764 384.006 234.829 C 384.006 308.717 323.888 368.835 250 368.835 C 176.112 368.835 115.993 308.727 115.993 234.839 C 116.299 222.386 103.01 214.272 92.072 220.233 C 86.745 223.136 83.49 228.774 83.639 234.839 C 83.639 321.11 149.656 392.244 233.818 400.398 Z"/>
</svg>