<?xml version="1.0" encoding="utf-8"?>
<svg viewBox="0 0 500 500" xmlns="http://www.w3.org/2000/svg">
  <defs/>
  <title>Ethereum icon</title>
  <path d="M 227.277 91.388 L 227.277 79.548 C 227.277 73.264 222.193 68.181 215.917 68.181 L 136.369 68.181 C 117.562 68.181 102.275 52.923 102.275 34.094 C 102.275 15.258 117.562 0 136.369 0 L 386.365 0 C 392.642 0 397.725 5.113 397.725 11.367 C 397.725 17.643 392.642 22.727 386.365 22.727 L 136.369 22.727 C 130.093 22.727 125.002 27.811 125.002 34.094 L 125.002 34.261 C 125.089 40.458 130.144 45.454 136.369 45.454 L 215.917 45.454 C 234.724 45.454 250.004 60.712 250.004 79.548 L 250.004 91.395 C 282.025 94.064 312.192 107.984 335.057 130.849 C 360.628 156.42 375.005 191.11 375.005 227.269 L 375.005 363.631 C 375.005 399.798 360.628 434.488 335.057 460.052 C 309.494 485.651 274.803 500 238.637 500 C 202.477 500 167.787 485.651 142.216 460.052 C 116.653 434.488 102.275 399.798 102.275 363.631 L 102.275 227.269 C 102.275 191.11 116.653 156.42 142.216 130.849 C 165.089 107.984 195.284 94.064 227.269 91.395 L 227.277 91.388 Z M 238.644 113.635 C 208.499 113.635 179.612 125.598 158.274 146.929 C 136.994 168.208 125.009 197.124 125.009 227.269 L 125.009 363.631 C 125.009 393.776 136.994 422.692 158.274 443.972 C 179.612 465.31 208.499 477.266 238.644 477.266 C 268.789 477.266 297.676 465.31 319.014 443.972 C 340.293 422.692 352.279 393.776 352.279 363.631 L 352.279 227.269 C 352.279 197.132 340.293 168.208 319.014 146.929 C 297.676 125.598 268.789 113.635 238.644 113.635 Z M 215.917 159.089 C 215.917 146.529 226.084 136.362 238.644 136.362 C 251.204 136.362 261.371 146.529 261.371 159.089 L 261.371 249.996 C 261.371 262.527 251.204 272.723 238.644 272.723 C 226.084 272.723 215.917 262.527 215.917 249.996 L 215.917 159.089 Z" fill-rule="evenodd"/>
</svg>