<?xml version="1.0" encoding="utf-8"?>
<svg viewBox="0 0 500 500" xmlns="http://www.w3.org/2000/svg">
  <g data-name="Layer 2" transform="matrix(22.699883, 0, 0, 22.699883, -22.39871, -22.414377)">
    <path d="M21.5,22.75a.75.75,0,0,0,.75-.75V2a.75.75,0,0,0-1.5,0V22A.75.75,0,0,0,21.5,22.75Z" />
    <path
      d="M3.2,22.688a2.745,2.745,0,0,0,2.823-.137l12.4-8.263a2.749,2.749,0,0,0,0-4.576L6.025,1.449A2.75,2.75,0,0,0,1.75,3.737V20.263A2.748,2.748,0,0,0,3.2,22.688ZM3.25,3.737a1.232,1.232,0,0,1,.66-1.1A1.253,1.253,0,0,1,4.5,2.484a1.237,1.237,0,0,1,.691.213l12.4,8.263a1.249,1.249,0,0,1,0,2.08L5.193,21.3a1.25,1.25,0,0,1-1.943-1.04Z" />
  </g>
</svg>