<?xml version="1.0" encoding="utf-8"?>
<svg xmlns="http://www.w3.org/2000/svg" viewBox="0 0 500 500">
  <path d="M 402.191 496.573 L 97.763 496.573 C 74.226 496.573 55.161 477.484 55.161 453.947 L 55.161 46.028 C 55.161 22.486 74.249 3.426 97.763 3.426 L 402.191 3.426 C 425.727 3.426 444.792 22.509 444.792 46.028 L 444.792 179.977 C 444.792 190.065 436.621 198.242 426.527 198.242 C 416.463 198.242 408.263 190.065 408.263 179.977 L 408.263 46.028 C 408.263 42.673 405.545 39.956 402.191 39.956 L 97.763 39.956 C 94.409 39.956 91.69 42.667 91.69 46.028 L 91.69 453.947 C 91.69 457.302 94.409 460.043 97.763 460.043 L 128.22 460.043 L 128.22 399.154 C 128.22 387.85 132.72 377.007 140.71 369.018 C 148.699 361.022 159.542 356.528 170.845 356.528 L 329.154 356.528 C 340.458 356.528 351.301 361.022 359.29 369.018 C 367.28 377.007 371.78 387.85 371.78 399.154 L 371.78 460.043 L 402.237 460.043 C 405.591 460.043 408.31 457.302 408.31 453.947 L 408.31 277.397 C 408.31 267.302 416.504 259.132 426.574 259.132 C 436.662 259.132 444.839 267.302 444.839 277.397 L 444.839 453.947 C 444.839 477.484 425.751 496.573 402.237 496.573 L 402.191 496.573 Z M 335.204 460.043 L 335.204 399.154 C 335.204 397.529 334.567 396.003 333.421 394.834 C 332.282 393.695 330.733 393.058 329.131 393.058 L 170.822 393.058 C 169.203 393.058 167.671 393.695 166.532 394.834 C 165.387 395.98 164.749 397.529 164.749 399.154 L 164.749 460.043 L 335.204 460.043 Z M 146.485 125.183 C 136.396 125.183 128.22 117.006 128.22 106.918 C 128.22 96.825 136.396 88.654 146.485 88.654 L 189.087 88.654 C 199.18 88.654 207.351 96.825 207.351 106.918 C 207.351 117.006 199.18 125.183 189.087 125.183 L 146.485 125.183 Z M 310.866 125.183 C 300.779 125.183 292.602 117.006 292.602 106.918 C 292.602 96.825 300.779 88.654 310.866 88.654 L 353.469 88.654 C 363.562 88.654 371.734 96.825 371.734 106.918 C 371.734 117.006 363.562 125.183 353.469 125.183 L 310.866 125.183 Z M 146.485 216.506 C 136.396 216.506 128.22 208.33 128.22 198.242 C 128.22 188.148 136.396 179.977 146.485 179.977 L 189.087 179.977 C 199.18 179.977 207.351 188.148 207.351 198.242 C 207.351 208.33 199.18 216.506 189.087 216.506 L 146.485 216.506 Z M 310.866 216.506 C 300.779 216.506 292.602 208.33 292.602 198.242 C 292.602 188.148 300.779 179.977 310.866 179.977 L 353.469 179.977 C 363.562 179.977 371.734 188.148 371.734 198.242 C 371.734 208.33 363.562 216.506 353.469 216.506 L 310.866 216.506 Z M 146.485 307.83 C 136.396 307.83 128.22 299.653 128.22 289.566 C 128.22 279.471 136.396 271.301 146.485 271.301 L 189.087 271.301 C 199.18 271.301 207.351 279.471 207.351 289.566 C 207.351 299.653 199.18 307.83 189.087 307.83 L 146.485 307.83 Z M 310.866 307.83 C 300.779 307.83 292.602 299.653 292.602 289.566 C 292.602 279.471 300.779 271.301 310.866 271.301 L 353.469 271.301 C 363.562 271.301 371.734 279.471 371.734 289.566 C 371.734 299.653 363.562 307.83 353.469 307.83 L 310.866 307.83 Z" fill-rule="evenodd" style=""/>
</svg>