<?xml version="1.0" encoding="utf-8"?>
<svg viewBox="0 0 500 500" xmlns="http://www.w3.org/2000/svg">
  <defs/>
  <g transform="matrix(13.462212, 0, 0, 13.462212, -423.113434, -423.104004)">
    <path d="m42.602 68.57h-2.3516c-1.7891 0-3.25-1.4609-3.25-3.25v-30.641c0-1.7891 1.4609-3.25 3.25-3.25h2.3516c1.7891 0 3.25 1.4609 3.25 3.25v30.641c0 1.7891-1.4531 3.25-3.25 3.25zm-2.3516-34.641c-0.41016 0-0.75 0.33984-0.75 0.75v30.641c0 0.41016 0.33984 0.75 0.75 0.75h2.3516c0.41016 0 0.75-0.33984 0.75-0.75v-30.641c0-0.41016-0.33984-0.75-0.75-0.75z"/>
    <path d="m59.75 68.57h-2.3516c-1.7891 0-3.25-1.4609-3.25-3.25v-30.641c0-1.7891 1.4609-3.25 3.25-3.25h2.3516c1.7891 0 3.25 1.4609 3.25 3.25v30.641c0 1.7891-1.4609 3.25-3.25 3.25zm-2.3516-34.641c-0.41016 0-0.75 0.33984-0.75 0.75v30.641c0 0.41016 0.33984 0.75 0.75 0.75h2.3516c0.41016 0 0.75-0.33984 0.75-0.75v-30.641c0-0.41016-0.33984-0.75-0.75-0.75z"/>
  </g>
</svg>