<?xml version="1.0" encoding="utf-8"?>
<svg viewBox="0 0 500 500" xmlns="http://www.w3.org/2000/svg">
  <path d="M 178.816 155.398 C 186.43 143.59 184.832 127.961 174.786 117.907 L 150.451 93.58 C 144.818 87.947 137.181 84.768 129.205 84.768 C 121.228 84.768 113.592 87.947 107.962 93.58 C 92.08 109.459 73.629 127.915 59.701 142.196 C 59.66 142.242 59.591 142.311 59.545 142.357 C 50.94 150.985 48.437 163.984 53.234 175.179 C 73.6 221.66 98.677 263.29 128.484 300.08 C 134.746 307.81 133.552 319.166 125.825 325.423 C 118.102 331.687 106.747 330.493 100.482 322.771 C 68.691 283.521 41.93 239.119 20.187 189.575 L 20.141 189.46 C 9.482 164.746 14.961 136.041 33.931 116.984 C 47.918 102.636 66.505 84.047 82.458 68.071 C 94.847 55.683 111.654 48.72 129.182 48.72 C 146.708 48.72 163.515 55.683 175.909 68.071 L 200.243 92.404 C 223.313 115.475 226.082 151.902 206.795 178.219 L 200.693 186.56 C 193.506 196.358 192.918 209.537 199.228 219.924 L 199.251 219.97 C 220.902 255.745 244.127 279.11 279.725 300.086 C 279.794 300.126 279.835 300.149 279.904 300.196 C 290.13 306.368 303.066 305.808 312.71 298.73 C 313.337 298.28 313.989 297.853 314.664 297.467 C 317.012 296.165 319.198 294.498 321.424 292.877 C 347.741 273.59 384.168 276.382 407.24 299.428 L 431.572 323.763 C 443.966 336.157 450.928 352.964 450.928 370.49 C 450.928 388.018 443.966 404.825 431.572 417.213 L 382.842 465.948 C 363.781 485.028 335.059 490.592 310.23 480.049 L 310.074 479.98 C 257.671 457.136 211.011 428.436 170.079 393.871 C 162.482 387.453 161.515 376.074 167.933 368.483 C 174.359 360.888 185.732 359.919 193.327 366.343 C 231.646 398.693 275.335 425.529 324.383 446.91 C 335.647 451.685 348.693 449.135 357.343 440.485 L 406.074 391.756 C 411.702 386.126 414.857 378.483 414.857 370.513 C 414.857 362.537 411.679 354.9 406.074 349.266 L 381.741 324.932 C 371.266 314.458 354.686 313.195 342.74 321.963 C 339.564 324.282 336.391 326.576 333.19 328.404 C 311.943 343.475 283.763 344.577 261.389 331.127 C 220.296 306.91 193.442 279.987 168.435 238.669 C 154.535 215.806 155.798 186.808 171.636 165.247 C 171.636 165.247 178.435 155.922 178.775 155.426 L 178.816 155.398 Z M 273.957 51.31 C 264.043 52.147 255.323 44.759 254.493 34.845 C 253.656 24.93 261.049 16.21 270.958 15.379 C 276.437 14.929 281.998 14.681 287.609 14.681 C 396.672 14.681 485.239 103.225 485.239 212.311 C 485.239 215.892 485.146 219.451 484.945 222.987 C 484.408 232.923 475.913 240.561 465.998 240.017 C 456.061 239.482 448.425 230.985 448.967 221.072 C 449.123 218.164 449.192 215.257 449.192 212.334 C 449.192 123.162 376.781 50.751 287.609 50.751 C 283.013 50.751 278.462 50.929 273.98 51.31 L 273.957 51.31 Z M 415.85 238.352 C 415.082 248.265 406.432 255.699 396.516 254.955 C 386.603 254.188 379.151 245.537 379.913 235.629 C 380.115 232.877 380.23 230.085 380.23 227.288 C 380.23 167.584 331.747 119.101 272.042 119.101 C 267.648 119.101 263.299 119.373 259.042 119.869 C 249.151 121.04 240.189 113.992 238.995 104.125 C 237.819 94.232 244.871 85.264 254.741 84.093 C 260.415 83.418 266.183 83.055 272.019 83.055 C 351.617 83.055 416.253 147.691 416.253 227.288 C 416.253 231.008 416.121 234.7 415.826 238.375 L 415.85 238.352 Z" fill-rule="evenodd" style=""/>
</svg>