<?xml version="1.0" encoding="utf-8"?>
<svg viewBox="0 0 500 500" xmlns="http://www.w3.org/2000/svg">
  <defs/>
  <path d="M 266.647 83.816 L 0.293 83.816 L 0.293 50.522 L 266.647 50.522 L 266.647 83.816 Z M 266.647 167.052 L 0.293 167.052 L 0.293 200.346 L 266.647 200.346 L 266.647 167.052 Z M 0.293 316.876 L 150.117 316.876 L 150.117 283.582 L 0.293 283.582 L 0.293 316.876 Z M 499.707 0 L 499.707 128.995 L 366.53 174.776 L 366.53 416.764 C 366.53 462.646 321.729 500 266.647 500 C 211.565 500 166.764 462.646 166.764 416.764 C 166.764 370.877 211.565 333.529 266.647 333.529 C 290.555 333.3 313.925 340.811 333.236 354.896 L 333.236 55.141 L 499.707 0 Z M 333.236 416.759 C 333.236 389.229 303.372 366.818 266.647 366.818 C 229.917 366.818 200.059 389.229 200.059 416.759 C 200.059 444.289 229.917 466.7 266.647 466.7 C 303.372 466.7 333.236 444.289 333.236 416.759 Z M 466.413 46.111 L 366.53 79.198 L 366.53 139.564 L 466.413 105.226 L 466.413 46.111 Z"/>
</svg>