<?xml version="1.0" encoding="utf-8"?>
<svg viewBox="0 0 500 500" xmlns="http://www.w3.org/2000/svg">
  <defs/>
  <path d="M 84.493 38.319 C 87.941 38.319 91.381 39.246 94.614 41.161 L 425.853 232.327 C 435.04 237.621 436.029 246.425 436.029 249.958 C 436.029 253.49 435.04 262.286 425.853 267.589 L 94.614 458.846 C 91.381 460.67 87.941 461.689 84.493 461.689 C 74.677 461.689 64.027 453.873 64.027 441.215 L 64.05 58.792 C 64.05 46.127 74.616 38.319 84.493 38.319 M 84.493 0.008 C 53.844 0.008 25.715 24.519 25.715 58.792 L 25.715 441.215 C 25.715 475.45 53.844 500 84.493 500 C 94.316 500 104.253 497.479 113.77 492.031 L 444.925 300.774 C 484.071 278.239 484.071 221.699 444.925 199.157 L 113.77 7.992 C 104.276 2.551 94.254 0 84.493 0 L 84.493 0.008 Z"/>
</svg>