<?xml version="1.0" encoding="utf-8"?>
<svg xmlns="http://www.w3.org/2000/svg" viewBox="0 0 500 500">
  <g transform="matrix(1.163302, 0, 0, 1.163302, -97.844803, 133.620438)" style="">
    <path d="M 488.895 3.44 C 486.388 0.444 482.692 -1.292 478.768 -1.292 C 389.185 -1.207 208.903 -1.346 119.32 -1.292 C 111.364 -1.467 104.725 6.4 106.336 14.231 L 157.722 300.059 C 158.844 306.347 164.329 310.922 170.707 310.922 C 170.743 310.94 232.656 310.904 232.674 310.922 C 265.771 310.868 332.331 310.953 365.427 310.922 L 427.363 310.922 C 433.741 310.922 439.222 306.347 440.343 300.059 L 491.73 14.231 C 492.416 10.374 491.38 6.432 488.877 3.44 L 488.895 3.44 Z M 285.869 284.536 L 244.713 284.536 L 220.322 25.095 L 285.882 25.095 L 285.882 284.536 L 285.869 284.536 Z M 312.251 25.095 L 377.811 25.095 L 353.425 284.536 L 312.269 284.536 L 312.251 25.095 Z M 135.122 25.095 L 193.815 25.095 L 218.205 284.536 L 181.763 284.536 L 135.122 25.095 Z M 416.356 284.536 L 379.914 284.536 L 404.305 25.095 L 462.998 25.095 L 416.356 284.536 Z" style=""/>
    <path d="M 172.322 -12.433 C 178.942 -9.809 186.755 -13.083 189.401 -19.95 C 198.354 -44.076 228.194 -59.249 255.854 -54.8 C 274.674 -52.154 267.946 -83.568 312.322 -84.846 C 355.703 -83.514 349.868 -53.715 367.809 -55.307 C 386.557 -57.303 403.147 -42.834 407.79 -21.915 C 409.35 -14.801 416.392 -10.298 423.506 -11.859 C 430.619 -13.415 435.122 -20.461 433.561 -27.57 C 426.73 -58.653 402.255 -80.621 373.572 -81.85 C 346.908 -120.52 277.508 -120.52 251.001 -81.783 C 213.298 -83.869 177.345 -62.281 164.782 -29.522 C 162.14 -22.74 165.504 -15.084 172.299 -12.437 L 172.322 -12.433 Z" style=""/>
  </g>
</svg>