<?xml version="1.0" encoding="utf-8"?>
<svg xmlns="http://www.w3.org/2000/svg" viewBox="0 0 500 500">
  <g transform="matrix(1.046921, 0, 0, 1.046921, -7.762618, -2.10965)" style="">
    <g transform="matrix(1.103463, 0, 0, 1.103463, -45.964317, -53.368786)" style="">
      <path d="M 427.25 273.394 L 389.969 191.408 L 427.25 109.422 L 211.484 109.422 C 215.905 103.584 218.491 96.411 218.491 88.905 C 218.491 70.056 203.144 54.709 184.295 54.709 C 165.446 54.709 150.1 70.056 150.1 88.905 C 150.1 99.581 155.27 109.673 163.778 116.094 L 163.778 384.237 C 127.247 389.492 102.309 408.091 102.309 430.61 C 102.309 457.466 138.339 478.484 184.295 478.484 C 230.251 478.484 266.281 457.466 266.281 430.61 C 266.281 408.091 241.26 389.575 204.812 384.237 L 204.812 273.394 L 427.25 273.394 Z M 374.956 191.408 L 405.982 259.716 L 204.812 259.716 L 204.812 123.017 L 406.066 123.017 L 374.956 191.408 Z M 184.295 68.387 C 195.638 68.387 204.812 77.562 204.812 88.905 C 204.812 103 191.134 108.505 191.134 108.505 L 191.134 423.771 L 177.456 423.771 L 177.456 108.505 C 177.456 108.505 163.778 103.083 163.778 88.905 C 163.778 77.562 173.035 68.387 184.295 68.387 Z M 252.603 430.526 C 252.603 449.042 221.327 464.722 184.295 464.722 C 147.264 464.722 115.988 449.042 115.988 430.526 C 115.988 415.848 136.088 402.586 163.861 397.999 L 163.861 437.366 L 204.896 437.366 L 204.896 397.999 C 232.502 402.586 252.603 415.931 252.603 430.526 Z" style=""/>
      <g transform="matrix(0.682496, 0, 0, 0.682496, 325.684998, 277.237946)" style=""/>
    </g>
  </g>
</svg>