<?xml version="1.0" encoding="utf-8"?>
<svg viewBox="0 0 500 500" xmlns="http://www.w3.org/2000/svg">
  <defs/>
  <g stroke="none" stroke-width="1" fill="none" fill-rule="evenodd" transform="matrix(8.838835, 0, 0, 8.838835, -191.941696, -136.86293)">
    <g stroke-width="14" stroke="#000000"/>
  </g>
  <path class="a" d="M 47.363 341.373 C 48.079 353.191 48.796 367.157 49.87 381.124 C 50.228 387.212 47.363 393.3 41.992 396.523 C 35.545 400.462 29.457 399.746 22.653 396.523 C 11.91 391.867 8.687 382.914 5.822 372.887 C -0.624 349.61 -2.415 325.616 4.031 301.622 C 5.822 294.46 10.836 287.656 15.849 281.926 C 20.146 276.554 26.593 274.764 33.397 277.271 C 39.843 279.777 43.782 284.791 44.498 291.595 C 45.573 300.906 45.931 310.575 46.289 320.244 C 46.647 326.69 47.005 332.778 47.363 341.373 Z" style="vector-effect: non-scaling-stroke;"/>
  <path class="a" d="M 453.465 320.244 C 454.182 310.575 454.54 300.906 455.614 291.595 C 456.33 284.791 459.911 279.777 466.716 277.271 C 473.52 274.764 479.966 276.554 484.263 281.926 C 488.919 287.656 493.932 294.46 496.081 301.622 C 502.527 325.616 500.378 349.61 494.291 372.887 C 491.426 382.914 488.203 391.867 477.459 396.523 C 470.655 399.746 464.925 400.462 458.837 396.881 C 452.391 393.3 449.884 387.928 450.242 381.124 C 450.959 367.157 452.033 353.191 452.749 341.373 C 453.107 332.778 453.107 326.69 453.465 320.244 Z" style="vector-effect: non-scaling-stroke;"/>
  <path class="a" d="M 450.601 271.183 C 447.736 313.082 445.229 354.623 442.364 396.165 C 441.29 413.712 429.472 426.963 411.924 429.469 C 397.6 431.618 381.842 422.307 376.471 407.983 C 375.038 403.685 374.322 399.03 374.68 394.732 C 375.038 380.766 376.113 366.799 376.829 352.833 C 386.498 350.684 393.302 342.089 393.302 331.704 C 393.302 322.751 387.93 314.873 380.052 311.65 C 379.812 311.65 379.694 311.65 379.694 311.65 C 380.768 297.683 381.842 283.359 382.559 269.392 C 383.991 248.621 395.451 237.162 418.37 233.939 C 419.086 221.047 413.715 194.904 408.343 186.309 C 407.269 188.458 406.91 189.891 406.194 191.681 C 402.971 197.769 396.883 201.35 390.079 200.992 C 382.917 200.634 376.471 196.337 374.68 189.532 C 364.653 149.782 336.362 129.011 299.118 118.626 C 260.083 108.24 221.049 108.957 183.089 123.639 C 154.081 135.099 133.669 155.512 126.148 186.668 C 123.284 198.127 117.196 203.141 107.168 202.783 C 98.216 202.066 92.844 196.337 91.411 183.803 C 84.607 200.634 81.384 217.465 80.31 235.371 C 89.263 234.655 97.499 236.446 104.303 242.533 C 113.256 250.054 116.837 260.081 117.554 271.899 C 118.506 284.791 119.344 297.801 120.061 310.933 C 111.108 313.798 104.303 322.035 104.303 332.062 C 104.303 343.164 112.182 352.117 122.567 353.907 C 122.804 353.907 122.925 353.907 122.925 353.907 C 124 367.516 125.074 381.124 125.79 394.374 C 126.148 405.476 121.851 414.787 114.331 420.875 C 107.168 427.321 97.141 430.902 87.83 429.469 C 81.026 428.395 74.938 425.888 70.641 421.949 C 63.12 416.577 58.823 408.699 58.107 398.672 C 55.242 365.009 53.451 331.346 51.302 297.683 C 50.586 289.447 50.228 281.21 49.512 272.973 C 48.079 257.574 54.167 246.473 67.776 239.31 C 68.968 238.594 70.161 237.996 71.357 237.52 C 73.864 141.545 154.798 72.429 245.043 70.28 C 341.375 67.773 424.816 140.113 428.039 236.087 C 429.83 236.804 431.62 237.878 433.411 238.952 C 445.229 246.473 451.675 256.5 450.601 271.183 Z" style="vector-effect: non-scaling-stroke;"/>
  <path class="b" d="M 248.624 374.678 C 241.82 393.658 231.792 409.415 218.542 423.023 C 212.096 429.828 203.859 428.753 200.994 421.233 C 199.204 416.219 200.994 412.638 204.218 409.415 C 220.691 392.584 231.076 372.529 234.657 349.252 C 239.671 314.396 230.718 283.957 207.799 257.932 C 206.366 256.142 204.934 254.351 203.143 252.919 C 199.204 248.263 199.204 242.533 203.143 238.594 C 207.082 234.655 213.17 234.655 217.826 239.31 C 230.238 251.963 239.789 266.527 246.475 283 C 247.191 284.791 247.549 286.223 248.266 287.298 C 253.637 277.271 258.651 267.243 264.739 257.574 C 269.036 251.128 274.408 245.398 279.422 239.669 C 284.077 234.655 290.165 234.655 294.462 238.594 C 298.402 242.892 298.044 248.621 293.388 253.277 C 270.827 276.912 260.083 304.845 261.516 337.434 C 262.948 365.367 273.692 389.002 292.672 409.415 C 294.821 411.564 297.327 415.145 296.969 418.01 C 296.611 421.233 293.746 424.814 291.239 426.604 C 287.3 429.111 283.003 427.321 279.78 424.098 C 268.08 412.398 258.887 398.911 252.205 383.631 C 251.131 381.124 250.056 378.617 248.624 374.678 Z" style="vector-effect: non-scaling-stroke;"/>
  <path class="b" d="M 219.616 327.765 C 219.258 358.563 209.589 381.482 190.251 400.104 C 187.744 402.611 182.731 404.043 179.149 403.327 C 176.643 402.969 173.062 398.313 172.703 395.448 C 172.703 392.225 174.852 387.928 177.359 385.421 C 192.042 370.38 199.92 352.833 199.92 331.704 C 199.92 310.575 192.042 292.311 177.001 277.629 C 172.703 273.689 170.913 269.392 173.778 264.02 C 176.643 257.932 184.163 257.216 189.893 262.588 C 203.859 275.838 212.812 291.595 217.11 310.217 C 218.542 317.021 219.258 324.184 219.616 327.765 Z" style="vector-effect: non-scaling-stroke;"/>
  <path class="b" d="M 164.109 331.704 C 163.869 320.484 159.811 311.052 151.933 303.413 C 150.5 302.339 148.71 301.264 147.635 299.832 C 143.338 295.893 142.98 290.163 146.203 286.223 C 149.784 281.926 155.156 281.21 159.811 284.791 C 172.345 293.744 180.224 305.92 182.731 320.602 C 186.312 343.164 179.508 362.502 161.602 377.185 C 155.872 382.198 150.142 381.84 146.203 377.185 C 142.264 372.529 143.338 367.157 149.068 362.144 C 159.453 353.191 164.109 343.88 164.109 331.704 Z" style="vector-effect: non-scaling-stroke;"/>
  <path class="b" d="M 313.801 328.481 C 314.159 313.082 321.321 297.683 335.646 286.223 C 341.734 281.21 347.105 281.568 351.045 286.223 C 354.984 291.237 353.91 296.967 348.18 301.622 C 328.125 317.379 328.125 346.029 348.18 362.144 C 353.91 366.799 354.984 372.171 351.403 376.827 C 347.463 381.84 341.734 382.198 336.004 377.543 C 322.037 366.799 313.443 349.252 313.801 328.481 Z" style="vector-effect: non-scaling-stroke;"/>
  <path class="b" d="M 147.635 332.062 C 147.635 344.238 137.966 354.265 125.79 354.265 C 113.614 354.265 103.587 344.238 103.587 332.062 C 103.587 319.886 113.614 310.217 125.79 310.217 C 137.966 310.217 147.635 319.886 147.635 332.062 Z" style="vector-effect: non-scaling-stroke;"/>
  <path class="b" d="M 280.496 310.217 C 284.435 291.595 293.746 275.838 307.355 262.588 C 313.084 257.216 320.605 257.932 323.828 264.02 C 326.693 269.392 324.902 273.689 320.605 277.629 C 305.206 292.311 297.327 310.575 297.327 331.704 C 297.327 352.833 305.206 370.38 319.889 385.421 C 322.395 387.928 324.902 392.225 324.544 395.448 C 324.544 398.313 320.963 402.969 318.098 403.327 C 314.875 404.043 309.861 402.611 307.355 400.104 C 287.658 381.482 277.989 358.563 277.631 327.765 C 278.347 324.184 278.705 317.021 280.496 310.217 Z" style="vector-effect: non-scaling-stroke;"/>
  <path class="b" d="M 393.66 331.704 C 393.66 343.88 383.991 353.907 371.815 353.907 C 359.639 353.907 349.612 343.88 349.612 331.704 C 349.612 319.528 359.639 309.859 371.815 309.859 C 383.991 309.859 393.66 319.528 393.66 331.704 Z" style="vector-effect: non-scaling-stroke;"/>
</svg>