<?xml version="1.0" encoding="utf-8"?>
<svg viewBox="0 0 500 500" xmlns="http://www.w3.org/2000/svg">
  <defs/>
  <path d="M 249.99 181.461 C 268.902 181.461 286.045 189.155 298.457 201.547 C 310.855 213.944 318.548 231.087 318.548 250.014 C 318.548 268.927 310.855 286.069 298.457 298.482 C 286.06 310.879 268.923 318.573 249.99 318.573 C 231.077 318.573 213.94 310.879 201.522 298.482 C 189.125 286.089 181.437 268.947 181.437 250.014 C 181.437 231.102 189.125 213.965 201.522 201.547 C 213.92 189.155 231.057 181.461 249.99 181.461 Z M 133.107 153.998 C 137.214 149.019 144.545 148.299 149.55 152.406 C 154.529 156.488 155.249 163.844 151.162 168.844 C 141.959 180.027 134.622 192.879 129.602 206.889 C 124.776 220.342 122.169 234.852 122.169 249.999 C 122.169 265.141 124.796 279.651 129.602 293.104 C 134.622 307.135 141.974 319.986 151.162 331.149 C 155.269 336.128 154.55 343.485 149.55 347.587 C 144.566 351.694 137.214 350.98 133.107 345.995 C 122.128 332.644 113.419 317.456 107.521 300.977 C 101.817 285.054 98.71 267.871 98.71 249.999 C 98.71 232.122 101.817 214.96 107.521 199.016 C 113.419 182.558 122.128 167.349 133.107 153.998 Z M 348.817 168.824 C 344.71 163.844 345.43 156.488 350.435 152.386 C 355.414 148.279 362.771 148.998 366.873 153.978 C 377.857 167.329 386.566 182.517 392.464 198.996 C 398.162 214.919 401.269 232.102 401.269 249.979 C 401.269 267.85 398.162 285.013 392.464 300.956 C 386.566 317.415 377.857 332.623 366.873 345.975 C 362.771 350.959 355.435 351.674 350.435 347.567 C 345.45 343.485 344.731 336.128 348.817 331.128 C 358.026 319.945 365.358 307.094 370.383 293.084 C 375.204 279.631 377.816 265.121 377.816 249.979 C 377.816 234.831 375.184 220.322 370.383 206.868 C 365.358 192.838 358.006 179.987 348.817 168.824 Z M 102.634 422.12 C 107.536 426.308 108.113 433.701 103.929 438.604 C 99.746 443.507 92.353 444.083 87.451 439.9 C 60.186 416.543 38.004 387.407 22.821 354.423 C 8.168 322.593 0 287.222 0 250.014 C 0 212.786 8.168 177.415 22.821 145.605 C 38.004 112.622 60.186 83.485 87.451 60.129 C 92.348 55.941 99.746 56.502 103.929 61.425 C 108.113 66.328 107.557 73.7 102.634 77.904 C 77.92 99.072 57.814 125.494 44.044 155.406 C 30.81 184.145 23.417 216.21 23.417 250.03 C 23.417 283.85 30.79 315.915 44.044 344.653 C 57.814 374.586 77.925 400.993 102.634 422.155 L 102.634 422.12 Z M 412.55 439.9 C 407.647 444.083 400.254 443.527 396.071 438.604 C 391.882 433.701 392.443 426.329 397.366 422.12 C 422.075 400.957 442.186 374.53 455.956 344.618 C 469.185 315.884 476.583 283.814 476.583 249.994 C 476.583 216.174 469.205 184.109 455.956 155.37 C 442.181 125.438 422.075 99.031 397.366 77.868 C 392.464 73.685 391.882 66.292 396.071 61.389 C 400.254 56.487 407.647 55.91 412.55 60.094 C 439.814 83.45 461.997 112.586 477.18 145.57 C 491.827 177.395 500 212.771 500 249.979 C 500 287.207 491.827 322.578 477.18 354.388 C 461.997 387.371 439.814 416.508 412.55 439.864 L 412.55 439.9 Z"/>
</svg>