<?xml version="1.0" encoding="utf-8"?>
<svg viewBox="0 0 500 500" xmlns="http://www.w3.org/2000/svg">
  <defs/>
  <path d="M 127.184 82.413 C 122.923 78.152 117.147 75.758 111.111 75.758 C 105.093 75.758 99.318 78.152 95.057 82.413 L 6.659 170.811 C -2.22 179.665 -2.22 194.059 6.659 202.937 C 15.538 211.816 29.931 211.816 38.81 202.937 L 88.384 153.363 L 88.384 325.753 C 88.384 380.134 132.487 424.236 186.867 424.236 L 224.745 424.236 C 237.315 424.236 247.472 414.054 247.472 401.509 C 247.472 388.964 237.315 378.782 224.745 378.782 L 186.867 378.782 C 157.583 378.782 133.838 355.037 133.838 325.753 L 133.838 153.363 L 183.431 202.937 C 192.31 211.816 206.703 211.816 215.557 202.937 C 224.436 194.059 224.436 179.665 215.557 170.811 L 127.184 82.413 Z M 372.821 417.587 C 377.081 421.848 382.857 424.242 388.893 424.242 C 394.905 424.242 400.681 421.848 404.947 417.587 L 493.345 329.189 C 502.218 320.335 502.218 305.941 493.345 297.063 C 484.467 288.184 470.073 288.184 461.195 297.063 L 411.62 346.637 L 411.62 174.247 C 411.62 119.866 367.518 75.764 313.137 75.764 L 275.259 75.764 C 262.714 75.764 252.532 85.946 252.532 98.491 C 252.532 111.036 262.714 121.218 275.259 121.218 L 313.137 121.218 C 342.421 121.218 366.166 144.963 366.166 174.247 L 366.166 346.637 L 316.574 297.063 C 307.695 288.184 293.301 288.184 284.447 297.063 C 275.568 305.941 275.568 320.335 284.447 329.189 L 372.821 417.587 Z" fill-rule="evenodd"/>
</svg>