<?xml version="1.0" encoding="utf-8"?>
<svg viewBox="0 0 500 500" xmlns="http://www.w3.org/2000/svg">
  <defs/>
  <title>Ethereum icon</title>
  <path d="M 455.019 365.171 C 370.902 510.214 161.307 509.804 77.741 364.427 C -5.813 219.051 99.343 37.747 267.027 38.067 C 331.002 38.196 391.698 66.448 432.981 115.317 L 330.477 115.317 L 330.477 140.943 L 458.607 140.943 C 465.693 140.943 471.42 135.203 471.42 128.13 L 471.42 0 L 445.794 0 L 445.794 91.741 C 319.086 -46.332 90.413 4.549 34.202 183.316 C -22.022 362.095 136.373 534.687 319.304 493.98 C 385.906 479.168 443.231 437.077 477.314 377.984 L 455.019 365.171 Z"/>
  <path d="M 252.061 154.781 L 252.061 257.285 C 252.049 260.693 253.381 263.961 255.777 266.382 L 307.029 317.634 L 325.096 299.568 L 277.687 252.032 L 277.687 154.781 L 252.061 154.781 Z"/>
</svg>