<?xml version="1.0" encoding="utf-8"?>
<svg viewBox="0 0 500 500" xmlns="http://www.w3.org/2000/svg">
  <circle cx="208.192" cy="464.262" r="10.452" style=""/>
  <path d="M 361.834 471.578 C 363.926 469.488 364.97 467.398 364.97 464.262 L 364.97 443.358 C 364.97 431.862 355.564 422.455 344.066 422.455 L 323.164 422.455 C 323.164 399.46 304.349 380.646 281.354 380.646 L 281.354 324.209 C 323.164 312.71 355.564 277.173 362.88 234.322 C 392.144 231.185 418.274 213.418 430.817 186.242 C 432.906 181.016 430.817 174.746 425.591 172.655 C 420.364 170.564 414.094 172.655 412.002 177.881 C 403.642 196.695 385.874 210.283 364.97 213.418 L 364.97 77.544 L 417.228 77.544 L 417.228 98.447 C 417.228 103.673 422.454 108.899 427.68 108.899 C 432.906 108.899 438.132 103.673 438.132 98.447 L 438.132 67.092 C 438.132 63.955 437.089 61.866 434.996 59.776 C 432.906 57.685 430.817 56.64 427.68 56.64 L 364.97 56.64 L 364.97 35.737 C 364.97 29.465 360.79 25.285 354.518 25.285 L 145.482 25.285 C 139.209 25.285 135.03 29.465 135.03 35.737 L 135.03 56.64 L 72.319 56.64 C 66.047 56.64 61.867 60.822 61.867 67.092 L 61.867 150.706 C 61.867 193.559 95.313 229.096 137.119 234.322 C 144.435 277.173 176.836 312.71 218.645 324.209 L 218.645 380.646 C 195.65 380.646 176.836 399.46 176.836 422.455 L 155.934 422.455 C 144.435 422.455 135.03 431.862 135.03 443.358 L 135.03 464.262 C 135.03 467.398 136.075 469.488 138.165 471.578 C 140.256 473.668 142.345 474.714 145.482 474.714 L 166.386 474.714 C 171.612 474.714 176.836 469.488 176.836 464.262 C 176.836 459.036 171.612 453.81 166.386 453.81 L 155.934 453.81 L 155.934 443.358 L 187.288 443.358 L 201.922 443.358 L 285.537 443.358 L 312.711 443.358 L 344.066 443.358 L 344.066 453.81 L 250 453.81 C 244.774 453.81 239.548 459.036 239.548 464.262 C 239.548 469.488 244.774 474.714 250 474.714 L 354.518 474.714 C 357.654 474.714 359.744 473.668 361.834 471.578 Z M 82.771 150.706 L 82.771 77.544 L 135.03 77.544 L 135.03 212.374 C 105.765 207.148 82.771 182.063 82.771 150.706 Z M 155.934 213.418 L 155.934 46.187 L 344.066 46.187 L 344.066 213.418 C 344.066 265.677 302.259 307.484 250 307.484 C 197.74 307.484 155.934 265.677 155.934 213.418 Z M 239.548 327.342 C 242.682 327.342 246.865 328.388 250 328.388 C 253.134 328.388 257.317 328.388 260.45 327.342 L 260.45 380.646 L 239.548 380.646 L 239.548 327.342 Z M 285.537 422.455 L 201.922 422.455 L 197.74 422.455 C 197.74 410.956 207.147 401.551 218.645 401.551 L 281.354 401.551 C 292.853 401.551 302.259 410.956 302.259 422.455 L 285.537 422.455 Z" style=""/>
  <circle cx="427.68" cy="140.254" r="10.452" style=""/>
</svg>