<?xml version="1.0" encoding="utf-8"?>
<svg viewBox="0 0 500 500" xmlns="http://www.w3.org/2000/svg">
  <g transform="matrix(5.595568, 0, 0, 5.595568, -29.778381, -5364.381348)" style="">
    <path style="text-indent:0;text-transform:none;direction:ltr;block-progression:tb;baseline-shift:baseline;color:#000000;enable-background:accumulate;" d="m 40.8125,963.3622 c -0.983166,0.0927 -1.816756,1.01248 -1.8125,1.99999 l 0,6.09376 c -10.70824,2.61271 -17.152051,9.56759 -20.71875,16.03125 -1.814886,3.28896 -2.921935,6.45107 -3.5625,8.93749 -0.298318,1.15795 -0.475353,2.11478 -0.59375,2.9375 -1.985684,0.005 -4.2071869,-0.0182 -6.15625,0 -1.0366944,0.0163 -1.9687564,0.96311 -1.96875,2.00001 l 0,8 c 7.59e-5,1.0472 0.9528127,1.9999 2,2 28,0 56,0 84,0 1.047187,-10e-5 1.999924,-0.9528 2,-2 l 0,-8 c 6e-6,-1.0369 -0.932056,-1.98371 -1.96875,-2.00001 -1.949064,-0.0182 -4.170567,0.005 -6.15625,0 -0.119358,-0.82234 -0.325331,-1.78014 -0.625,-2.9375 -0.643349,-2.4847 -1.745673,-5.65019 -3.5625,-8.93749 C 78.116986,981.02682 71.691251,974.07798 61,971.45595 l 0,-6.09376 c -1.07e-4,-1.04716 -0.952833,-1.99989 -2,-1.99999 -6.056726,0 -12.144727,0 -18.1875,0 z m 2.1875,4 14,0 0,12.78125 c -0.01492,1.05661 0.943284,2.02844 2,2.02844 1.056716,0 2.014921,-0.97183 2,-2.02844 l 0,-4.56251 c 8.901819,2.47801 14.103974,8.26452 17.1875,13.84375 1.623609,2.93771 2.649608,5.8019 3.21875,8 0.284571,1.09905 0.440446,2.04993 0.53125,2.71871 0.0908,0.6689 -0.02567,1.3422 0.09375,0.7812 -0.258174,1.1508 0.727244,2.4108 1.90625,2.4376 1.776907,0.048 4.00686,0.011 6.0625,0 l 0,4 c -26.666667,0 -53.333333,0 -80,0 l 0,-4 c 2.055639,0.011 4.285591,0.048 6.0625,0 1.126933,-0.024 2.096148,-1.1653 1.9375,-2.2813 0.04167,0.1302 -0.01183,-0.4161 0.0625,-0.9687 0.09006,-0.66952 0.247937,-1.5878 0.53125,-2.68751 0.566625,-2.19941 1.566144,-5.06175 3.1875,-8 C 24.860495,983.84442 30.082308,978.05222 39,975.58094 l 0,4.56251 c -0.01492,1.05661 0.943284,2.02844 2,2.02844 1.056716,0 2.014921,-0.97183 2,-2.02844 z m -25.1875,47 c -0.983153,0.093 -1.816736,1.0124 -1.8125,2 l 0,2.9999 c -1.719931,0 -3.482912,0 -5.1875,0 -0.983186,0.093 -1.8167854,1.0126 -1.8125,2.0001 l 0,8 c 1.282e-4,1.0471 0.952846,1.9999 2,2 l 5,0 0,1 c -7.2e-5,0.3371 0.08683,0.6738 0.25,0.9687 l 5,9.0001 c 0.344038,0.6213 1.03982,1.0313 1.75,1.0312 l 18,0 c 0.618197,0 1.226685,-0.3151 1.59375,-0.8125 l 6,-8 c 0.213106,-0.2705 0.354571,-0.5971 0.40625,-0.9376 l 0.78125,-6.2499 0.4375,0 0.78125,6.2499 c 0.05168,0.3405 0.193144,0.6671 0.40625,0.9376 l 6,8 c 0.367065,0.4974 0.975553,0.8076 1.59375,0.8125 l 18,0 c 0.71018,10e-5 1.405962,-0.4099 1.75,-1.0312 l 5,-9.0001 c 0.163174,-0.2949 0.250072,-0.6316 0.25,-0.9687 l 0,-1 5,0 c 1.047154,-10e-5 1.999872,-0.9529 2,-2 l 0,-8 c -7.6e-5,-1.0472 -0.952813,-2 -2,-2.0001 l -5,0 0,-2.9999 c -1.28e-4,-1.0472 -0.952846,-1.9999 -2,-2 -21.391846,0 -42.808901,0 -64.1875,0 z m 2.1875,4 60,0 0,13.4687 -4.1875,7.5313 -15.8125,0 -5.0625,-6.75 -0.9375,-7.5 c -0.121143,-0.9613 -1.031144,-1.7575 -2,-1.75 l -4,0 c -0.968856,-0.01 -1.878857,0.7887 -2,1.75 l -0.9375,7.5 -5.0625,6.75 -15.8125,0 L 20,1031.8309 z m 11.875,2.9687 c -1.386734,0.069 -2.332927,1.8873 -1.59375,3.0626 l 6,10 c 0.539976,0.8999 1.850093,1.2274 2.750028,0.6875 0.899935,-0.54 1.227448,-1.8502 0.687472,-2.7501 l -6,-10 c -0.366898,-0.638 -1.108898,-1.0404 -1.84375,-1 z m -18.875,2.0313 3,0 0,4 -3,0 z m 71,0 3,0 0,4 -3,0 z m -58.21875,0.9688 c -1.372562,0.1442 -2.221143,1.9889 -1.4375,3.125 l 4,5.9999 c 0.536139,0.9629 1.945047,1.3021 2.860672,0.6887 0.915624,-0.6132 1.138154,-2.0452 0.451828,-2.9074 l -4,-6 c -0.395866,-0.6135 -1.148346,-0.9771 -1.875,-0.9062 z" fill="#000000" fill-opacity="1" fill-rule="nonzero" stroke="none" marker="none" visibility="visible" display="inline" overflow="visible"/>
  </g>
</svg>