<?xml version="1.0" encoding="utf-8"?>
<svg viewBox="0 0 500 500" xmlns="http://www.w3.org/2000/svg">
  <defs/>
  <title>Ethereum icon</title>
  <title>Ethereum icon</title>
  <path d="M 480.755 102.788 L 397.185 19.218 L 397.212 19.245 C 384.904 6.891 368.199 -0.053 350.765 0 L 65.665 0 C 29.424 0.053 0.046 29.424 0 65.665 L 0 434.335 C 0.046 470.576 29.424 499.954 65.665 500 L 434.335 500 C 470.576 499.954 499.947 470.576 500 434.335 L 500 149.235 C 500.053 131.801 493.109 115.096 480.755 102.788 Z M 160.243 18.807 L 345.612 18.807 L 345.612 146.284 L 160.243 146.284 L 160.243 18.807 Z M 385.017 481.2 L 120.845 481.2 L 120.845 302.979 L 385.017 302.979 L 385.017 481.2 Z M 481.199 434.342 C 481.199 460.218 460.217 481.2 434.341 481.2 L 403.823 481.2 L 403.823 302.72 C 403.823 292.335 395.401 283.887 384.99 283.887 L 121.13 283.887 C 110.586 283.887 102.038 292.442 102.038 302.979 L 102.038 481.2 L 65.671 481.2 C 39.795 481.2 18.807 460.218 18.807 434.342 L 18.807 65.672 C 18.807 39.796 39.795 18.814 65.671 18.814 L 141.443 18.814 L 141.443 146.728 C 141.443 156.961 149.759 165.27 159.991 165.27 L 344.664 165.27 C 349.923 165.27 354.923 163.201 358.623 159.494 C 362.33 155.794 364.426 150.767 364.426 145.508 L 364.426 20.83 C 371.787 23.085 378.465 27.097 383.909 32.541 L 467.479 116.111 L 467.479 116.084 C 476.259 124.891 481.206 136.808 481.206 149.242 L 481.199 434.342 Z"/>
</svg>