<?xml version="1.0" encoding="utf-8"?>
<svg xmlns="http://www.w3.org/2000/svg" viewBox="0 0 500 500">
  <path d="M 482.347 17.689 C 470.527 5.891 453.419 2.154 437.818 8.13 L 32.414 161.904 C 16.584 167.902 6.232 182.131 5.38 199.031 C 4.528 215.932 13.404 231.101 28.53 238.655 L 183.757 316.257 L 261.359 471.484 C 268.592 485.949 282.782 494.678 298.765 494.678 C 299.514 494.678 300.257 494.678 301.005 494.634 C 317.906 493.76 332.09 483.415 338.067 467.601 L 491.884 62.24 C 497.816 46.623 494.146 29.553 482.325 17.711 L 482.347 17.689 Z M 39.476 200.741 C 39.564 199.206 40.203 195.47 44.491 193.831 L 427.254 48.654 L 193.125 282.784 L 43.785 208.126 C 39.82 206.138 39.394 202.664 39.476 200.741 Z M 306.188 455.546 C 304.61 459.686 301.196 460.478 299.3 460.56 C 297.826 460.582 293.964 460.325 291.916 456.25 L 217.257 306.912 L 451.387 72.782 L 306.188 455.524 L 306.188 455.546 Z" style=""/>
</svg>