<?xml version="1.0" encoding="utf-8"?>
<svg xmlns="http://www.w3.org/2000/svg" viewBox="0 0 500 500">
  <g transform="matrix(16.505371, 0, 0, 16.505371, -4224.714355, -2107.357666)" style="">
    <g transform="matrix(1, 0, 0, 1, 255.105835, 126.804794)">
      <path d="M27.08154,30.71484c-.80918.23029-8.31514-3.09654-9.22074-3.35439a5.06007,5.06007,0,0,0-3.72164-.0001l-7.8291,3.08789a3.778,3.778,0,0,1-4.744-5.18172L12.4668,3.46436a3.97571,3.97571,0,0,1,7.0664,0h0L30.43408,25.2666A3.79119,3.79119,0,0,1,27.08154,30.71484ZM17,25.07666c1.08233.02686,8.27429,3.13073,9.42337,3.51115A1.76156,1.76156,0,0,0,28.645,26.16113L17.74414,4.35889a1.95025,1.95025,0,0,0-3.48828,0L3.355,26.16113a1.76162,1.76162,0,0,0,2.22168,2.42676c1.195-.39581,8.31466-3.476,9.42334-3.51123V15.39893a1,1,0,0,1,2,0Z"/>
    </g>
  </g>
</svg>