<?xml version="1.0" encoding="utf-8"?>
<svg viewBox="0 0 500 500" xmlns="http://www.w3.org/2000/svg">
  <defs />
  <g transform="matrix(5.553658, 0, 0, 5.553658, -2762.692871, -27.682899)" style="">
    <g transform="matrix(1,0,0,1,492.47,0)">
      <path d="M 9.186 55.234 L 16.193 56.779 C 16.965 56.94 17.582 57.529 17.771 58.296 C 18.16 59.807 18.655 61.291 19.255 62.73 C 19.849 64.175 20.555 65.57 21.355 66.909 C 21.766 67.587 21.766 68.437 21.355 69.109 L 17.454 75.194 L 24.828 82.568 L 30.835 78.695 L 30.829 78.7 C 31.507 78.245 32.38 78.217 33.08 78.628 C 34.425 79.434 35.825 80.134 37.275 80.729 C 38.653 81.306 40.076 81.784 41.526 82.168 C 42.371 82.312 43.043 82.957 43.226 83.79 L 44.766 90.797 L 55.234 90.797 L 56.774 83.79 C 56.94 83.018 57.529 82.407 58.296 82.212 C 59.808 81.823 61.286 81.329 62.725 80.729 C 64.17 80.134 65.57 79.434 66.909 78.628 C 67.587 78.217 68.432 78.217 69.11 78.628 L 75.189 82.529 L 82.568 75.155 L 78.689 69.148 L 78.695 69.154 C 78.245 68.476 78.217 67.604 78.628 66.903 C 79.428 65.559 80.129 64.153 80.729 62.708 C 81.301 61.324 81.784 59.908 82.168 58.457 C 82.312 57.613 82.951 56.94 83.79 56.757 L 90.792 55.218 L 90.792 44.81 L 83.79 43.271 C 83.013 43.104 82.401 42.515 82.212 41.748 C 81.823 40.237 81.329 38.753 80.729 37.319 C 80.129 35.869 79.428 34.474 78.628 33.135 C 78.217 32.457 78.217 31.613 78.628 30.935 L 82.524 24.85 L 75.15 17.476 L 69.149 21.349 L 69.154 21.349 C 68.476 21.8 67.598 21.827 66.898 21.416 C 65.553 20.61 64.153 19.91 62.708 19.316 C 61.325 18.738 59.902 18.26 58.452 17.876 C 57.613 17.732 56.94 17.093 56.751 16.254 L 55.212 9.252 L 44.805 9.252 L 43.265 16.254 C 43.104 17.026 42.51 17.643 41.748 17.832 C 40.231 18.221 38.753 18.716 37.314 19.316 C 35.869 19.91 34.475 20.61 33.13 21.416 C 32.457 21.827 31.607 21.827 30.929 21.416 L 24.85 17.515 L 17.477 24.895 L 21.35 30.896 L 21.344 30.89 C 21.8 31.568 21.827 32.441 21.416 33.141 C 20.611 34.486 19.91 35.891 19.31 37.336 C 18.738 38.72 18.255 40.137 17.871 41.587 C 17.727 42.432 17.088 43.104 16.254 43.287 L 9.247 44.827 L 9.247 55.234 L 9.186 55.234 Z M 14.12 60.597 L 6.647 58.968 C 5.696 58.763 5.013 57.935 4.996 56.968 L 4.996 43.126 C 4.974 42.093 5.713 41.192 6.735 41.02 L 14.115 39.409 L 14.12 39.409 C 14.493 38.136 14.932 36.886 15.443 35.664 C 15.948 34.441 16.521 33.246 17.149 32.085 L 12.998 25.667 C 12.47 24.845 12.587 23.761 13.281 23.066 L 23.022 13.32 C 23.761 12.592 24.917 12.503 25.756 13.114 L 32.091 17.115 C 34.419 15.859 36.87 14.854 39.414 14.115 L 41.043 6.641 L 41.048 6.641 C 41.248 5.691 42.076 5.007 43.049 4.985 L 56.913 4.985 C 57.952 4.968 58.852 5.713 59.024 6.735 L 60.636 14.12 L 60.636 14.126 C 61.903 14.492 63.158 14.937 64.381 15.443 C 65.603 15.948 66.792 16.526 67.959 17.154 L 74.372 13.003 C 75.2 12.47 76.278 12.586 76.978 13.281 L 86.719 23.028 C 87.452 23.761 87.541 24.917 86.93 25.761 L 82.879 32.091 C 84.135 34.419 85.141 36.875 85.88 39.414 L 93.354 41.042 L 93.354 41.048 C 94.304 41.254 94.987 42.082 95.004 43.048 L 95.004 56.918 C 95.026 57.94 94.309 58.83 93.304 59.03 L 85.924 60.635 L 85.919 60.635 C 85.546 61.908 85.107 63.158 84.596 64.381 C 84.091 65.603 83.518 66.798 82.89 67.959 L 87.041 74.377 C 87.569 75.2 87.452 76.283 86.758 76.978 L 77.033 86.735 C 76.3 87.463 75.144 87.552 74.305 86.941 L 67.97 82.89 C 65.642 84.146 63.186 85.157 60.647 85.896 L 59.019 93.365 L 59.013 93.365 C 58.807 94.315 57.979 94.998 57.013 95.015 L 43.126 95.015 C 42.098 95.037 41.204 94.315 41.015 93.309 L 39.403 85.924 L 39.403 85.919 C 38.136 85.552 36.881 85.107 35.658 84.602 C 34.436 84.096 33.247 83.524 32.08 82.89 L 25.667 87.041 C 24.839 87.574 23.761 87.458 23.061 86.763 L 13.309 77.039 C 12.576 76.3 12.487 75.144 13.098 74.305 L 17.104 67.976 C 15.843 65.642 14.837 63.192 14.104 60.652 L 14.12 60.597 Z M 62.386 37.658 C 66.215 41.498 68.043 46.905 67.331 52.284 C 66.615 57.663 63.436 62.402 58.735 65.114 C 54.034 67.82 48.339 68.187 43.326 66.109 C 38.32 64.025 34.558 59.735 33.158 54.495 C 31.752 49.25 32.869 43.654 36.175 39.353 C 39.476 35.047 44.593 32.524 50.022 32.524 C 54.662 32.518 59.113 34.363 62.386 37.658 Z M 50.022 28.329 C 56.763 28.329 63.125 31.463 67.226 36.814 C 71.338 42.165 72.721 49.122 70.971 55.634 C 69.226 62.152 64.553 67.481 58.318 70.065 C 52.089 72.644 45.01 72.182 39.176 68.809 C 33.335 65.436 29.396 59.541 28.512 52.85 C 27.634 46.171 29.913 39.453 34.68 34.686 C 38.748 30.612 44.266 28.329 50.017 28.334 L 50.022 28.329 Z" fill-rule="evenodd"/>
    </g>
  </g>
</svg>