<?xml version="1.0" encoding="utf-8"?>
<svg viewBox="0 0 500 500" xmlns="http://www.w3.org/2000/svg">
  <defs/>
  <title>Ethereum icon</title>
  <path d="M 417.751 174.574 C 421.762 174.574 425.589 172.991 428.418 170.157 C 431.247 167.328 432.858 163.478 432.858 159.472 L 432.858 125.954 C 432.678 122.22 431.136 118.667 428.51 115.994 L 319.206 4.533 C 316.371 1.635 312.504 0 308.447 0 L 118.296 0 C 90.012 0 67.096 22.922 67.096 51.2 L 67.096 159.536 C 67.096 167.872 73.844 174.643 82.18 174.643 C 90.533 174.643 97.281 167.872 97.281 159.536 L 97.281 51.2 C 97.281 39.588 106.678 30.186 118.296 30.186 L 291.235 30.186 L 291.235 90.58 C 291.444 118.707 314.313 141.42 342.458 141.42 L 402.852 141.42 L 402.852 159.536 L 402.829 159.536 C 402.875 167.803 409.56 174.504 417.82 174.574 L 417.751 174.574 Z M 342.458 111.235 C 330.841 111.235 321.444 101.814 321.444 90.22 L 321.444 49.82 L 381.884 111.235 L 342.458 111.235 Z M 433.038 448.8 L 433.038 448.777 C 433.038 477.061 410.099 500 381.815 500 L 118.296 500 C 90.018 500 67.096 477.061 67.096 448.777 L 67.096 416.238 C 67.096 407.901 73.849 401.13 82.18 401.13 C 90.533 401.13 97.287 407.901 97.287 416.238 L 97.287 449.026 C 97.287 460.643 106.684 470.041 118.302 470.041 L 381.71 470.041 C 387.275 470.041 392.62 467.82 396.562 463.884 C 400.504 459.942 402.725 454.597 402.725 449.026 L 402.725 416.238 C 402.725 407.901 409.473 401.13 417.826 401.13 C 426.162 401.13 432.91 407.901 432.91 416.238 L 433.038 448.8 Z"/>
  <path d="M 229.566 226.113 L 229.566 246.554 C 229.566 251.967 231.712 257.171 235.543 261.004 C 239.374 264.835 244.579 266.98 250.006 266.98 C 283.863 266.98 311.298 294.413 311.298 328.284 L 311.298 348.709 C 311.298 382.579 283.863 410.015 250.006 410.015 C 216.136 410.015 188.701 382.579 188.701 348.709 C 188.701 337.423 197.844 328.284 209.138 328.284 C 220.425 328.284 229.566 337.423 229.566 348.709 C 229.566 359.996 238.707 369.15 250.006 369.15 C 261.291 369.15 270.432 359.996 270.432 348.709 L 270.432 328.284 C 270.432 322.856 268.286 317.653 264.456 313.819 C 260.625 309.989 255.419 307.845 249.993 307.845 C 216.136 307.845 188.701 280.409 188.701 246.554 L 188.701 226.113 C 188.701 192.243 216.136 164.823 249.993 164.823 C 283.863 164.823 311.298 192.243 311.298 226.113 C 311.298 237.4 302.157 246.554 290.857 246.554 C 279.571 246.554 270.432 237.4 270.432 226.113 C 270.432 214.827 261.291 205.688 249.993 205.688 C 238.707 205.688 229.566 214.827 229.566 226.113 Z" style=""/>
</svg>