<?xml version="1.0" encoding="utf-8"?>
<svg version="1.1" x="0px" y="0px" viewBox="0 0 100 100" enable-background="new 0 0 100 100" xmlns="http://www.w3.org/2000/svg">
  <defs/>
  <g transform="matrix(1.379739, 0, 0, 1.379739, -18.984642, -18.986168)">
    <path d="m55.391 33.191-12.98 7.4922c0.91406 1.1523 1.6562 2.4297 2.1992 3.7969l12.98-7.4922v-0.003906c-0.91406-1.1484-1.6562-2.4297-2.1992-3.793z"/>
    <path d="m44.609 55.52c-0.54297 1.3672-1.2852 2.6445-2.1992 3.7969l12.98 7.4922c0.54297-1.3633 1.2852-2.6445 2.1992-3.793l-12.98-7.4922z"/>
    <path d="m30.66 39.859c4.1016 0 7.7969 2.4727 9.3672 6.2617 1.5703 3.7891 0.70312 8.1484-2.1953 11.047-2.9023 2.9023-7.2617 3.7695-11.051 2.1992-3.7891-1.5703-6.2578-5.2656-6.2578-9.3672 0.003906-5.5977 4.5391-10.133 10.137-10.141m0-3.7695c-5.625 0-10.695 3.3906-12.848 8.5859-2.1562 5.1992-0.96484 11.18 3.0117 15.16 3.9805 3.9766 9.9609 5.168 15.16 3.0156 5.1953-2.1562 8.5859-7.2266 8.5859-12.852 0-3.6875-1.4648-7.2266-4.0742-9.8359-2.6094-2.6094-6.1445-4.0742-9.8359-4.0742z"/>
    <path d="m69.34 17.531c4.1016 0 7.7969 2.4688 9.3672 6.2578 1.5703 3.7891 0.70312 8.1484-2.1992 11.051-2.8984 2.8984-7.2617 3.7656-11.047 2.1953-3.7891-1.5664-6.2617-5.2656-6.2617-9.3672 0.007812-5.5977 4.543-10.133 10.141-10.137m0-3.7695c-5.625 0-10.699 3.3867-12.852 8.5859-2.1523 5.1953-0.96094 11.18 3.0156 15.156 3.9766 3.9766 9.9609 5.168 15.156 3.0156 5.1992-2.1523 8.5859-7.2266 8.5859-12.852 0.003906-3.6875-1.4648-7.2266-4.0703-9.8359-2.6094-2.6055-6.1484-4.0703-9.8359-4.0703z"/>
    <path d="m69.34 62.191c4.1016 0 7.7969 2.4727 9.3672 6.2578 1.5703 3.7891 0.70312 8.1523-2.1992 11.051-2.8984 2.8984-7.2617 3.7656-11.047 2.1992-3.7891-1.5703-6.2617-5.2656-6.2617-9.3672 0.007812-5.5977 4.543-10.133 10.141-10.141m0-3.7695c-5.625 0-10.699 3.3867-12.852 8.5859-2.1523 5.1992-0.96094 11.18 3.0156 15.156 3.9766 3.9805 9.9609 5.168 15.156 3.0156 5.1992-2.1523 8.5859-7.2227 8.5859-12.848 0-7.6836-6.2266-13.91-13.906-13.91z"/>
  </g>
</svg>