<?xml version="1.0" encoding="utf-8"?>
<svg data-name="Layer 1" viewBox="0 0 100 100" x="0px" y="0px" xmlns="http://www.w3.org/2000/svg">
  <path
    d="M 89.048 93.392 C 88.707 93.777 88.219 93.995 87.706 93.995 L 12.295 93.995 C 11.782 93.995 11.293 93.777 10.952 93.392 C 10.61 93.01 10.448 92.499 10.506 91.99 L 17.688 29.148 C 17.791 28.239 18.561 27.552 19.478 27.552 L 25.696 27.552 C 26.692 27.552 27.498 28.358 27.498 29.352 C 27.498 30.348 26.692 31.153 25.696 31.153 L 21.083 31.153 L 14.312 90.393 L 85.687 90.393 L 78.917 31.153 L 73.275 31.153 C 72.281 31.153 71.475 30.348 71.475 29.352 C 71.475 28.358 72.281 27.552 73.275 27.552 L 80.523 27.552 C 81.439 27.552 82.209 28.239 82.312 29.148 L 89.494 91.99 C 89.552 92.499 89.39 93.01 89.048 93.392 Z" />
  <path
    d="M 60.713 29.352 C 60.713 30.348 59.908 31.153 58.913 31.153 L 41.406 31.153 C 40.412 31.153 39.605 30.348 39.605 29.352 C 39.605 28.358 40.412 27.552 41.406 27.552 L 58.913 27.552 C 59.908 27.552 60.713 28.358 60.713 29.352 Z" />
  <path
    d="M 69.75 38.33 C 69.75 40.313 68.143 41.921 66.159 41.921 C 64.176 41.921 62.568 40.313 62.568 38.33 C 62.568 37.003 63.288 35.844 64.358 35.223 L 64.358 23.965 C 64.358 16.048 57.917 9.607 50 9.607 C 42.083 9.607 35.642 16.048 35.642 23.965 L 35.642 35.223 C 36.712 35.844 37.432 37.003 37.432 38.33 C 37.432 40.313 35.824 41.921 33.841 41.921 C 31.857 41.921 30.25 40.313 30.25 38.33 C 30.25 37.003 30.969 35.844 32.039 35.223 L 32.039 23.965 C 32.039 14.063 40.097 6.006 50 6.006 C 59.903 6.006 67.961 14.063 67.961 23.965 L 67.961 35.223 C 69.031 35.844 69.75 37.003 69.75 38.33 Z" />
</svg>