<?xml version="1.0" encoding="utf-8"?>
<svg version="1.1" x="0px" y="0px" viewBox="0 0 100 100" enable-background="new 0 0 100 100" xmlns="http://www.w3.org/2000/svg">
  <defs/>
  <path d="M 81.389 20.353 L 86.109 20.353 L 81.718 24.848 C 80.132 26.471 80.162 29.082 81.785 30.668 C 82.586 31.446 83.625 31.842 84.658 31.842 C 85.69 31.842 86.797 31.431 87.597 30.6 L 98.817 19.119 C 100.395 17.503 100.373 14.922 98.78 13.329 L 87.56 2.124 C 85.952 0.516 83.349 0.524 81.741 2.124 C 80.132 3.733 80.14 6.336 81.741 7.944 L 85.929 12.125 L 81.374 12.125 C 74.829 12.125 68.823 15.416 65.3 20.929 L 30.989 74.635 C 28.985 77.769 25.566 79.639 21.849 79.639 L 4.114 79.639 C 1.84 79.639 0 81.479 0 83.753 C 0 86.027 1.84 87.867 4.114 87.867 L 21.849 87.867 C 28.394 87.867 34.4 84.575 37.923 79.063 L 72.234 25.357 C 74.238 22.223 77.656 20.353 81.374 20.353 L 81.389 20.353 Z"/>
  <path d="M 4.129 20.353 L 21.864 20.353 C 25.581 20.353 29 22.223 31.004 25.357 L 39 37.871 C 39.786 39.098 41.117 39.771 42.471 39.771 C 43.226 39.771 43.997 39.561 44.685 39.12 C 46.6 37.893 47.161 35.35 45.934 33.435 L 37.938 20.921 C 34.415 15.409 28.409 12.118 21.864 12.118 L 4.129 12.118 C 1.855 12.118 0.015 13.958 0.015 16.231 C 0.015 18.505 1.855 20.345 4.129 20.345 L 4.129 20.353 Z"/>
  <path d="M 87.605 69.391 C 86.019 67.768 83.416 67.738 81.785 69.324 C 80.162 70.91 80.132 73.52 81.718 75.143 L 86.109 79.639 L 81.389 79.639 C 77.671 79.639 74.253 77.769 72.249 74.635 L 63.624 61.133 C 62.405 59.219 59.854 58.658 57.939 59.884 C 56.025 61.103 55.464 63.654 56.69 65.569 L 65.315 79.07 C 68.838 84.583 74.844 87.874 81.389 87.874 L 85.944 87.874 L 81.755 92.055 C 80.147 93.664 80.147 96.267 81.755 97.875 C 82.556 98.683 83.61 99.079 84.665 99.079 C 85.72 99.079 86.767 98.675 87.575 97.875 L 98.795 86.67 C 100.388 85.077 100.403 82.496 98.832 80.88 L 87.612 69.399 L 87.605 69.391 Z"/>
</svg>