<?xml version="1.0" encoding="utf-8"?>
<svg data-name="Layer 1" viewBox="0 0 100 100" x="0px" y="0px" xmlns="http://www.w3.org/2000/svg">
  <g transform="matrix(1.048907, 0, 0, 1.048907, -50.918003, 9.885585)" style="">
    <path d="M 51.255 21.959 L 99.146 21.959 C 99.236 21.959 99.318 21.939 99.396 21.927 C 100.568 27.877 105.806 32.368 112.107 32.368 C 118.408 32.368 123.646 27.88 124.818 21.927 C 124.896 21.927 124.99 21.959 125.068 21.959 L 141.17 21.959 C 142.569 21.959 143.709 20.818 143.709 19.42 C 143.709 18.021 142.569 16.88 141.17 16.88 L 125.068 16.88 C 124.978 16.88 124.896 16.9 124.818 16.912 C 123.646 10.963 118.408 6.471 112.107 6.471 C 105.806 6.471 100.568 10.959 99.396 16.912 C 99.318 16.912 99.236 16.88 99.146 16.88 L 51.255 16.877 C 49.857 16.877 48.716 18.017 48.716 19.416 C 48.716 20.814 49.857 21.955 51.255 21.955 L 51.255 21.959 Z M 112.107 11.549 C 116.447 11.549 119.978 15.08 119.978 19.42 C 119.978 23.76 116.447 27.291 112.107 27.291 C 107.767 27.291 104.236 23.76 104.236 19.42 C 104.236 15.08 107.767 11.549 112.107 11.549 L 112.107 11.549 Z"/>
    <path d="M 141.177 54.529 L 93.286 54.529 C 93.196 54.529 93.114 54.548 93.036 54.56 C 91.864 48.611 86.626 44.119 80.325 44.119 C 74.024 44.119 68.794 48.607 67.614 54.56 C 67.536 54.56 67.454 54.529 67.364 54.529 L 51.255 54.529 C 49.857 54.529 48.716 55.669 48.716 57.068 C 48.716 58.466 49.857 59.607 51.255 59.607 L 67.357 59.607 C 67.447 59.607 67.529 59.587 67.607 59.576 C 68.779 65.525 74.017 70.017 80.318 70.017 C 86.619 70.017 91.857 65.528 93.029 59.576 C 93.107 59.576 93.201 59.607 93.279 59.607 L 141.17 59.607 C 142.569 59.607 143.709 58.466 143.709 57.068 C 143.709 55.669 142.569 54.529 141.17 54.529 L 141.177 54.529 Z M 80.318 64.947 C 75.978 64.947 72.447 61.415 72.447 57.076 C 72.447 52.736 75.978 49.204 80.318 49.204 C 84.658 49.204 88.189 52.736 88.189 57.076 C 88.189 61.415 84.658 64.947 80.318 64.947 Z"/>
  </g>
</svg>