<?xml version="1.0" encoding="utf-8"?>
<svg viewBox="0 0 500 500" xmlns="http://www.w3.org/2000/svg">
  <defs/>
  <path d="M 499.353 249.995 C 499.278 183.708 472.915 120.179 426.045 73.308 C 379.165 26.428 315.645 0.075 249.358 0 C -82.294 13.713 -82.219 486.325 249.358 500 C 315.645 499.925 379.174 473.562 426.045 426.692 C 472.915 379.812 499.278 316.292 499.353 250.005 L 499.353 249.995 Z M 249.358 470.588 C 190.864 470.513 134.798 447.275 93.442 405.92 C 52.078 364.555 28.849 308.489 28.774 250.005 C 40.868 -42.645 457.894 -42.569 469.951 250.005 C 469.875 308.499 446.638 364.565 405.282 405.92 C 363.918 447.275 307.852 470.513 249.367 470.588 L 249.358 470.588 Z"/>
  <title>Ethereum icon</title>
  <path fill-rule="evenodd" clip-rule="evenodd" d="M 155.29 119.433 C 157.063 116.755 160.087 115.136 163.305 115.136 L 375.233 115.136 C 378.778 115.136 382.054 117.082 383.73 120.223 C 385.406 123.363 385.213 127.159 383.248 130.106 L 344.715 187.905 C 342.924 190.583 339.919 192.201 336.701 192.201 L 124.772 192.201 C 121.208 192.201 117.952 190.255 116.276 187.115 C 114.6 183.975 114.773 180.179 116.758 177.231 L 155.29 119.433 Z M 168.449 134.403 L 142.767 172.935 L 331.537 172.935 L 357.219 134.403 L 168.449 134.403 Z" style=""/>
  <path fill-rule="evenodd" clip-rule="evenodd" d="M 155.29 312.095 C 157.063 309.417 160.087 307.798 163.305 307.798 L 375.233 307.798 C 378.778 307.798 382.054 309.764 383.73 312.885 C 385.406 316.025 385.213 319.821 383.248 322.769 L 344.715 380.567 C 342.924 383.245 339.919 384.864 336.701 384.864 L 124.772 384.864 C 121.208 384.864 117.952 382.917 116.276 379.777 C 114.6 376.637 114.773 372.841 116.758 369.894 L 155.29 312.095 Z M 168.449 327.065 L 142.767 365.597 L 331.537 365.597 L 357.219 327.065 L 168.449 327.065 Z" style=""/>
  <path fill-rule="evenodd" clip-rule="evenodd" d="M 155.29 284.236 C 157.063 286.914 160.087 288.532 163.305 288.532 L 375.233 288.532 C 378.778 288.532 382.054 286.587 383.73 283.446 C 385.406 280.306 385.213 276.51 383.248 273.563 L 344.715 215.764 C 342.924 213.086 339.919 211.468 336.701 211.468 L 124.772 211.468 C 121.208 211.468 117.952 213.433 116.276 216.554 C 114.6 219.694 114.773 223.49 116.758 226.437 L 155.29 284.236 Z M 168.449 269.266 L 142.767 230.734 L 331.537 230.734 L 357.219 269.266 L 168.449 269.266 Z" style=""/>
</svg>