<?xml version="1.0" encoding="utf-8"?>
<svg xmlns="http://www.w3.org/2000/svg" viewBox="0 0 500 500">
  <g transform="matrix(3.952382, 0, 0, 3.952382, -2.952408, -2.952408)" style="">
    <path d="M 81.952 7.325 C 73.202 7.325 65.993 14.004 65.133 22.524 C 61.583 22.374 58.013 22.684 54.493 23.454 C 36.763 27.354 24.172 42.135 22.182 59.235 C 11.712 63.855 0.053 70.655 1.583 77.605 C 2.833 83.265 12.583 85.624 25.913 85.624 C 26.583 85.624 27.274 85.614 27.964 85.605 C 35.434 97.835 48.883 105.524 63.413 105.524 C 66.353 105.524 69.343 105.216 72.323 104.556 C 90.053 100.656 102.643 85.874 104.633 68.774 C 106.163 68.104 107.622 67.425 109.012 66.735 C 117.172 62.705 126.603 56.595 125.243 50.405 C 123.713 43.455 110.263 42.174 98.823 42.374 C 97.443 40.114 95.853 37.994 94.053 36.034 C 97.123 32.894 98.852 28.695 98.852 24.235 C 98.852 14.915 91.272 7.325 81.952 7.325 Z M 81.964 10.825 C 89.354 10.825 95.362 16.845 95.362 24.235 C 95.362 28.265 93.583 32.035 90.473 34.585 C 88.083 36.555 85.064 37.636 81.964 37.636 C 74.644 37.636 68.623 31.686 68.553 24.386 L 68.553 24.235 C 68.553 16.845 74.574 10.825 81.964 10.825 Z M 62.669 26.019 C 63.497 26.005 64.325 26.018 65.153 26.056 C 66.073 34.506 73.284 41.136 81.964 41.136 C 85.314 41.136 88.592 40.125 91.362 38.265 C 95.912 43.205 99.094 49.235 100.544 55.835 C 101.324 59.385 101.562 62.926 101.342 66.386 C 91.532 70.536 79.363 74.285 66.303 77.165 C 52.073 80.295 39.764 81.756 29.964 82.056 C 28.324 79.016 27.062 75.705 26.282 72.165 C 21.782 51.695 34.783 31.374 55.243 26.874 C 57.703 26.334 60.185 26.059 62.669 26.019 Z M 100.743 45.855 C 115.373 45.825 121.273 48.625 121.833 51.155 C 122.343 53.485 118.843 57.975 107.473 63.595 C 106.653 64.005 105.793 64.406 104.923 64.806 C 104.983 61.606 104.683 58.345 103.973 55.085 C 103.263 51.865 102.163 48.775 100.743 45.855 Z M 58.442 57.274 C 54.732 57.274 51.714 60.295 51.714 64.005 C 51.714 67.715 54.732 70.735 58.442 70.735 C 62.152 70.735 65.173 67.715 65.173 64.005 C 65.173 60.295 62.152 57.274 58.442 57.274 Z M 58.442 60.774 C 60.222 60.774 61.673 62.225 61.673 64.005 C 61.673 65.785 60.222 67.235 58.442 67.235 C 56.662 67.235 55.214 65.785 55.214 64.005 C 55.214 62.225 56.662 60.774 58.442 60.774 Z M 21.913 63.194 C 21.853 66.394 22.142 69.655 22.862 72.925 C 23.582 76.175 24.663 79.244 26.063 82.114 C 13.283 82.094 5.663 79.895 4.993 76.855 C 4.433 74.325 8.623 69.304 21.913 63.194 Z M 100.874 70.364 C 98.344 85.174 87.123 97.716 71.573 101.136 C 56.013 104.546 40.544 97.856 32.044 85.466 C 42.804 84.956 55.173 83.195 67.053 80.585 C 79.513 77.845 91.194 74.304 100.874 70.364 Z M 104.124 102.835 C 98.924 102.835 94.692 107.065 94.692 112.265 C 94.692 117.465 98.924 121.694 104.124 121.694 C 109.324 121.694 113.553 117.465 113.553 112.265 C 113.553 107.065 109.324 102.835 104.124 102.835 Z M 104.124 106.335 C 107.394 106.335 110.053 108.995 110.053 112.265 C 110.053 115.535 107.394 118.194 104.124 118.194 C 100.854 118.194 98.192 115.535 98.192 112.265 C 98.192 108.995 100.854 106.335 104.124 106.335 Z"/>
  </g>
</svg>