<?xml version="1.0" encoding="utf-8"?>
<svg width="700pt" height="700pt" version="1.1" viewBox="0 0 700 700" xmlns="http://www.w3.org/2000/svg" xmlns:xlink="http://www.w3.org/1999/xlink">
  <g transform="matrix(1.212748, 0, 0, 1.212748, -74.474648, 10.434618)" style="">
    <path d="m558.95 192.53 35.234-42c3.4375-4.0781 2.8906-10.168-1.1758-13.598l-28.414-23.855c-4.0898-3.4062-10.168-2.8789-13.586 1.2109l-32.816 39.098c-27.125-19.824-59.125-33.176-93.957-37.957l0.003906-34.652h41.91c4.7031 0 8.5117-3.8203 8.5117-8.5352v-32.727c0-4.7148-3.8086-8.5117-8.5117-8.5117h-140.38c-4.7031 0-8.5117 3.7969-8.5117 8.5117v32.727c0 4.7148 3.8086 8.5352 8.5117 8.5352h41.91v34.52c-34.496 4.7031-66.695 17.922-94.102 37.902l-32.637-38.898c-3.4375-4.0898-9.4961-4.6133-13.586-1.2109l-28.414 23.855c-4.0898 3.4258-4.6133 9.5195-1.1992 13.598l35.113 41.844c-11.355 14.414-21 30.387-28.371 47.836-3.6523 8.5781 0.37109 18.48 8.9492 22.121 8.6016 3.6523 18.48-0.39062 22.121-8.9727 27.305-64.602 90.281-106.33 160.43-106.33 96.008 0 174.12 78.098 174.12 174.12 0 95.984-78.121 174.09-174.12 174.09-28.066 0-54.836-6.4609-79.598-19.195-8.2656-4.2891-18.434-1.0312-22.703 7.2578-4.2891 8.2773-1.0312 18.434 7.2578 22.715 29.164 15.031 62.035 22.961 95.043 22.961 114.6 0 207.86-93.23 207.86-207.84-0.023438-48.555-16.891-93.188-44.891-128.62z"/>
    <path d="m431.64 327.59c56.828-67.602 60.223-87.148 56.371-91-3.8516-3.832-23.387-0.46094-90.977 56.391-32.176 27.035-22.055 42.547-15.008 49.594 7.043 7.0664 22.578 17.191 49.613-14.984z"/>
    <path d="m294.76 302.32c0-7.9844-6.4531-14.461-14.461-14.461l-169.66 0.003906c-8.0078 0-14.461 6.4727-14.461 14.461 0 7.9844 6.4531 14.461 14.461 14.461h169.66c8.0078-0.003906 14.461-6.4766 14.461-14.465z"/>
    <path d="m280.3 360.96h-98.258c-7.9844 0-14.48 6.4727-14.48 14.461 0 7.9844 6.4961 14.461 14.48 14.461h98.258c8.0078 0 14.461-6.4727 14.461-14.461s-6.4531-14.461-14.461-14.461z"/>
    <path d="m280.3 434.08h-141.63c-8.0078 0-14.48 6.4609-14.48 14.461 0 7.9844 6.4727 14.461 14.48 14.461h141.64c8.0078 0 14.461-6.4727 14.461-14.461-0.003906-8-6.457-14.461-14.465-14.461z"/>
    <use transform="matrix(1, 0, 0, 1, 70, 728)" xlink:href="#l"/>
    <use transform="matrix(1, 0, 0, 1, 111.09765625, 728)" xlink:href="#h"/>
    <use transform="matrix(1, 0, 0, 1, 138.71484375, 728)" xlink:href="#b"/>
    <use transform="matrix(1, 0, 0, 1, 176.6953125, 728)" xlink:href="#g"/>
    <use transform="matrix(1, 0, 0, 1, 214.484375, 728)" xlink:href="#f"/>
    <use transform="matrix(1, 0, 0, 1, 241.25390625, 728)" xlink:href="#b"/>
    <use transform="matrix(1, 0, 0, 1, 279.234375, 728)" xlink:href="#e"/>
    <use transform="matrix(1, 0, 0, 1, 338.81640625, 728)" xlink:href="#d"/>
    <use transform="matrix(1, 0, 0, 1, 378.90234375, 728)" xlink:href="#a"/>
    <use transform="matrix(1, 0, 0, 1, 434.90234375, 728)" xlink:href="#c"/>
    <use transform="matrix(1, 0, 0, 1, 475.9453125, 728)" xlink:href="#k"/>
    <use transform="matrix(1, 0, 0, 1, 495.140625, 728)" xlink:href="#j"/>
    <use transform="matrix(1, 0, 0, 1, 535.0078125, 728)" xlink:href="#i"/>
    <use transform="matrix(1, 0, 0, 1, 572.25, 728)" xlink:href="#a"/>
  </g>
</svg>