<?xml version="1.0" encoding="utf-8"?>
<svg viewBox="0 0 500 500" xmlns="http://www.w3.org/2000/svg">
  <defs/>
  <path d="M 250 0.005 C 111.931 0.005 0 111.935 0 250 C 0 388.074 111.931 499.995 250 499.995 C 388.08 499.995 500 388.074 500 250 C 500 111.945 388.08 0.015 249.995 0.015 L 250 0.005 Z M 364.646 360.57 C 360.16 367.925 350.555 370.235 343.21 365.735 C 284.515 329.879 210.626 321.76 123.601 341.645 C 115.21 343.55 106.86 338.299 104.945 329.91 C 103.02 321.52 108.27 313.16 116.665 311.255 C 211.895 289.495 293.585 298.865 359.48 339.135 C 366.825 343.645 369.155 353.225 364.646 360.57 Z M 395.245 292.5 C 389.605 301.67 377.606 304.565 368.44 298.925 C 301.24 257.62 198.805 245.66 119.32 269.785 C 109.01 272.9 98.125 267.09 94.995 256.795 C 91.89 246.495 97.7 235.625 107.995 232.49 C 198.785 204.94 311.66 218.285 388.825 265.705 C 397.995 271.349 400.89 283.349 395.245 292.5 Z M 397.875 221.615 C 317.3 173.76 184.365 169.36 107.435 192.705 C 95.085 196.455 82.02 189.48 78.275 177.125 C 74.525 164.765 81.5 151.71 93.86 147.96 C 182.17 121.149 328.97 126.33 421.735 181.394 C 432.86 187.98 436.525 202.335 429.915 213.44 C 423.351 224.55 408.96 228.215 397.885 221.615 L 397.875 221.615 Z" style=""/>
</svg>