<?xml version="1.0" encoding="utf-8"?>
<svg viewBox="0 0 500 500" xmlns="http://www.w3.org/2000/svg">
  <path d="M 403.027 289.38 L 378.377 289.38 C 374.111 289.38 370.657 285.9 370.657 281.66 C 370.657 277.393 374.136 273.907 378.377 273.907 L 403.001 273.907 C 403.125 276.476 403.176 279.065 403.176 281.66 C 403.176 284.248 403.125 286.843 403.027 289.38 Z M 370.911 321.673 C 366.312 339.533 368.191 341.745 354.37 346.219 C 345.883 348.957 344.081 353.607 335.873 348.834 L 323.02 341.413 L 311.386 353.048 C 313.947 357.549 320.478 367.429 320.556 372.079 C 320.608 376.274 316.745 381.25 314.709 388.138 C 312.198 396.677 310.592 396.163 301.22 398.584 C 298.123 399.396 294.286 400.385 291.411 401.171 L 291.463 418.017 L 307.19 422.134 C 314.559 424.723 313.59 430.109 318.878 441.061 C 322.663 448.885 319.542 451.91 314.201 460.879 C 313.265 462.453 312.146 464.307 311.229 465.907 L 317.076 471.754 L 323.047 477.744 C 327.847 474.927 336.712 468.827 340.855 468.423 C 346.318 467.89 348.653 471.24 355.463 473.38 C 368.348 477.393 366.695 480.898 370.988 497.562 L 387.879 497.516 C 388.289 495.909 388.744 493.985 389.206 492.079 L 389.18 492.053 C 392.276 478.992 392.582 476.651 403.43 473.328 C 414.175 470.024 414.026 464.358 426.93 472.333 L 435.827 477.698 L 447.613 465.907 C 445.024 461.464 438.286 451.806 438.241 447.032 C 438.188 443.019 442.175 437.634 444.133 431 C 446.598 422.642 447.996 422.999 457.954 420.431 C 461.005 419.643 464.659 418.701 467.431 417.939 L 467.379 401.119 L 451.704 396.983 C 442.91 393.985 446.748 390.349 440.296 378.74 C 436.842 372.515 437.856 369.92 441.641 363.37 C 443.625 359.936 445.479 356.456 447.385 352.977 L 435.82 341.393 C 431.15 344.06 421.746 350.564 416.972 350.668 C 412.653 350.74 407.547 346.779 400.842 344.795 C 392.685 342.408 392.965 341.113 390.449 331.559 C 389.635 328.456 388.647 324.522 387.834 321.628 L 370.911 321.673 Z M 379.346 366.771 C 403.027 366.771 422.208 385.952 422.208 409.607 C 422.208 433.283 403.021 452.443 379.346 452.443 C 355.69 452.443 336.511 433.257 336.511 409.607 C 336.511 385.952 355.69 366.771 379.346 366.771 Z M 213.974 25.641 L 263.112 25.641 L 263.112 2.438 L 207.041 2.438 L 207.041 25.641 L 213.974 25.641 Z M 221.72 41.115 L 221.72 64.133 L 248.426 64.133 L 248.426 41.115 L 221.72 41.115 Z M 214.937 80.165 C 112.648 89.843 32.569 176.991 32.569 281.66 C 32.569 420.203 168.166 516.469 297.74 474.29 C 291.235 467.76 294.488 463.669 300.842 453.074 C 181.48 498.83 51.477 411.025 51.477 281.66 C 51.477 180.262 133.669 98.07 235.067 98.07 C 357.603 98.07 445.024 215.65 411.541 332.32 L 416.699 334.733 L 432.783 325.64 C 462.305 192.333 354.071 66.974 214.95 80.165 L 214.937 80.165 Z M 242.605 265.426 C 248.732 268.268 252.946 274.467 252.946 281.66 C 252.946 291.539 244.921 299.572 235.034 299.572 C 233.356 299.572 231.756 299.338 230.234 298.909 C 229.876 299.572 229.421 300.177 228.861 300.736 L 183.692 345.913 C 180.667 348.931 175.788 348.931 172.764 345.913 C 169.74 342.889 169.74 338.011 172.764 334.986 L 217.935 289.816 C 218.189 289.563 218.468 289.302 218.748 289.1 C 217.707 286.843 217.148 284.327 217.148 281.66 C 217.148 274.467 221.389 268.268 227.49 265.426 C 227.359 264.892 227.314 264.333 227.314 263.748 L 227.333 170.356 C 227.333 166.089 230.793 162.629 235.06 162.629 C 239.326 162.629 242.78 166.089 242.78 170.356 L 242.78 263.774 C 242.78 264.333 242.735 264.892 242.605 265.426 Z M 242.787 113.752 L 242.787 138.369 C 242.787 142.636 239.326 146.09 235.06 146.09 C 230.793 146.09 227.34 142.61 227.34 138.369 L 227.34 113.752 C 229.902 113.621 232.472 113.569 235.06 113.569 C 237.649 113.543 240.244 113.621 242.787 113.752 Z M 91.743 273.939 C 96.01 273.939 99.464 277.419 99.464 281.686 C 99.464 285.952 96.01 289.406 91.743 289.406 L 67.119 289.406 C 66.995 286.843 66.943 284.275 66.943 281.686 C 66.943 279.098 67.021 276.502 67.119 273.939 L 91.743 273.939 Z M 227.34 424.983 C 227.34 420.709 230.793 417.257 235.06 417.257 C 239.326 417.257 242.787 420.709 242.787 424.983 L 242.787 449.627 C 240.217 449.724 237.649 449.802 235.06 449.802 C 232.472 449.802 229.876 449.724 227.34 449.627 L 227.34 424.983 Z" fill-rule="evenodd" style=""/>
</svg>