<?xml version="1.0" encoding="utf-8"?>
<svg viewBox="0 0 500 500" xmlns="http://www.w3.org/2000/svg">
  <path d="M 422.075 297.27 L 396.823 297.27 C 392.452 297.27 388.886 293.725 388.886 289.353 C 388.886 284.981 392.425 281.416 396.823 281.416 L 422.048 281.416 C 422.181 284.041 422.235 286.701 422.235 289.353 C 422.261 292.005 422.208 294.664 422.075 297.27 Z M 263.69 42.853 L 236.333 42.853 L 236.333 66.438 L 263.69 66.438 L 263.69 42.853 Z M 228.389 26.998 L 278.738 26.998 L 278.738 3.227 L 221.285 3.227 L 221.285 26.998 L 228.389 26.998 Z M 242.084 477.28 C 141.886 473.142 61.887 390.564 61.887 289.353 C 61.887 185.456 146.105 101.239 250.002 101.239 C 386.96 101.239 477.342 243.036 421.501 366.666 C 410.519 391.004 394.451 412.61 374.725 430.13 C 370.866 433.749 365.248 432.943 362.535 428.884 L 352.826 414.276 L 334.112 471.389 L 394.038 476.101 L 382.402 458.634 C 379.903 455.015 380.682 450.563 383.808 447.937 C 476.382 369.945 482.86 228.741 396.717 142.604 C 353.559 99.439 293.526 76.767 229.382 82.859 C 124.572 92.775 42.521 182.071 42.521 289.32 C 42.521 401.26 131.163 492.502 242.084 496.667 C 243.337 496.72 244.583 496.747 245.863 496.774 L 257.939 496.774 L 257.939 477.4 L 250.835 477.4 C 250.575 477.427 250.288 477.454 250.028 477.454 C 247.342 477.454 244.717 477.4 242.084 477.274 L 242.084 496.667 L 242.084 477.28 Z M 257.732 272.719 C 264.003 275.631 268.328 281.982 268.328 289.353 C 268.328 299.476 260.098 307.707 249.975 307.707 C 248.255 307.707 246.616 307.467 245.05 307.027 C 244.69 307.707 244.217 308.326 243.67 308.899 L 197.387 355.19 C 194.288 358.282 189.263 358.282 186.191 355.19 C 183.092 352.091 183.092 347.066 186.191 343.967 L 232.481 297.683 C 232.741 297.423 233.027 297.184 233.314 296.95 C 232.241 294.638 231.675 292.059 231.675 289.326 C 231.675 281.956 236.02 275.604 242.264 272.692 C 242.138 272.146 242.084 271.573 242.084 270.973 L 242.084 175.306 C 242.084 170.934 245.623 167.389 250.022 167.389 C 254.4 167.389 257.939 170.934 257.939 175.306 L 257.939 271.026 C 257.939 271.599 257.859 272.146 257.732 272.719 Z M 103.153 281.409 C 107.525 281.409 111.09 284.975 111.09 289.353 C 111.09 293.725 107.551 297.264 103.153 297.264 L 77.928 297.264 C 77.795 294.638 77.742 292.005 77.742 289.353 C 77.742 286.694 77.795 284.041 77.928 281.409 L 103.153 281.409 Z M 242.091 436.175 C 242.091 431.803 245.63 428.264 250.028 428.264 C 254.4 428.264 257.945 431.803 257.945 436.175 L 257.945 461.533 L 246.043 461.559 C 244.717 461.533 243.417 461.479 242.091 461.426 L 242.091 436.175 Z M 242.091 477.28 Z M 257.945 117.273 L 257.945 142.504 C 257.945 146.876 254.4 150.415 250.028 150.415 C 245.656 150.415 242.091 146.85 242.091 142.504 L 242.091 117.273 C 244.717 117.147 247.349 117.093 250.028 117.093 C 252.661 117.093 255.313 117.147 257.945 117.273 Z" fill-rule="evenodd" style=""/>
</svg>