<?xml version="1.0" encoding="utf-8"?>
<svg xmlns="http://www.w3.org/2000/svg" viewBox="0 0 500 500">
  <g transform="matrix(1.068917, 0, 0, 1.068917, 7.346807, -29.902224)" style="">
    <g transform="matrix(6.087613, 0, 0, 6.087613, -1109.71875, -33.40892)" style="">
      <path d="M 234.907 70.234 L 204.546 70.234 C 204.064 70.234 203.611 69.985 203.348 69.576 C 203.085 69.167 203.055 68.655 203.26 68.217 C 205.292 63.89 206.33 59.154 206.461 53.701 C 206.564 49.71 203.64 46.363 199.664 45.91 C 199.006 45.837 198.48 45.31 198.422 44.653 C 196.346 25.095 204.678 17.07 209.838 14.029 C 217.498 9.512 227.701 10.272 235.814 15.959 C 236.179 16.207 236.398 16.616 236.413 17.07 C 236.428 17.523 236.238 17.932 235.901 18.224 L 230.625 22.566 L 240.448 33.324 C 241.807 34.815 242.45 36.818 242.202 38.806 C 241.953 40.823 240.842 42.636 239.132 43.761 C 237.334 44.945 235.361 45.282 233.49 44.785 C 231.589 44.288 230.04 43.016 229.104 41.218 L 227.511 38.134 L 223.477 38.938 L 221.693 42.709 C 231.911 50.266 236.706 58.832 236.34 68.875 C 236.296 69.635 235.668 70.234 234.907 70.234 L 234.907 70.234 Z M 206.695 67.398 L 233.504 67.398 C 233.372 58.554 228.753 51.187 219.076 44.317 C 218.521 43.922 218.316 43.177 218.623 42.548 L 220.172 39.288 C 216.591 39.054 213.478 36.526 212.63 32.871 L 212.206 31.088 C 212.03 30.328 212.498 29.568 213.258 29.378 C 214.018 29.202 214.778 29.67 214.968 30.43 L 215.392 32.213 C 216.079 35.108 218.886 36.935 221.824 36.35 L 222.204 36.277 C 222.233 36.277 222.248 36.262 222.277 36.262 L 228.022 35.122 C 228.65 35.005 229.264 35.298 229.557 35.868 L 231.632 39.902 C 232.188 40.984 233.109 41.744 234.22 42.022 C 235.316 42.314 236.471 42.109 237.48 41.452 C 238.59 40.721 239.248 39.639 239.394 38.44 C 239.541 37.271 239.161 36.087 238.357 35.21 L 227.525 23.34 C 227.262 23.048 227.13 22.668 227.16 22.287 C 227.189 21.893 227.379 21.542 227.671 21.293 L 232.612 17.244 C 225.683 13.151 217.498 12.801 211.271 16.47 C 203.597 21.001 200.015 30.503 201.141 43.293 C 205.979 44.389 209.429 48.702 209.298 53.774 C 209.181 58.788 208.333 63.275 206.696 67.397 L 206.695 67.398 Z"/>
      <path d="M 242.406 80.423 C 241.617 80.423 240.988 79.794 240.988 79.005 L 240.988 74.868 C 240.988 72.31 238.913 70.234 236.355 70.234 L 203.772 70.234 C 201.214 70.234 199.138 72.31 199.138 74.868 L 199.138 79.005 C 199.138 79.794 198.51 80.423 197.72 80.423 C 196.931 80.423 196.303 79.794 196.303 79.005 L 196.303 74.868 C 196.303 70.746 199.65 67.398 203.772 67.398 L 236.355 67.398 C 240.477 67.398 243.824 70.746 243.824 74.868 L 243.824 79.005 C 243.824 79.794 243.181 80.423 242.406 80.423 L 242.406 80.423 Z"/>
      <path d="M 244.804 85.904 L 194.359 85.904 C 193.569 85.904 192.941 85.261 192.941 84.486 L 192.941 79.004 C 192.941 78.215 193.569 77.586 194.359 77.586 L 244.804 77.586 C 245.593 77.586 246.222 78.215 246.222 79.004 L 246.222 84.486 C 246.222 85.261 245.593 85.904 244.804 85.904 Z M 195.777 83.068 L 243.387 83.068 L 243.387 80.422 L 195.777 80.422 L 195.777 83.068 Z"/>
      <path d="M 205.029 35.167 C 204.956 35.167 204.868 35.167 204.795 35.152 C 204.021 35.02 203.509 34.289 203.626 33.515 C 205.438 22.654 211.212 16.573 220.801 15.433 C 221.576 15.345 222.278 15.901 222.38 16.675 C 222.468 17.45 221.912 18.152 221.137 18.254 C 212.835 19.248 208.025 24.393 206.418 33.997 C 206.301 34.67 205.702 35.167 205.029 35.167 L 205.029 35.167 Z"/>
    </g>
  </g>
</svg>