<?xml version="1.0" encoding="utf-8"?>
<svg viewBox="0 0 500 500" xmlns="http://www.w3.org/2000/svg">
  <defs/>
  <title>Ethereum icon</title>
  <path d="M 494.711 170.557 L 253.36 69.045 C 251.197 68.145 248.809 68.145 246.646 69.045 L 5.296 170.557 C 2.094 171.913 0 175.068 0 178.535 C 0 182.008 2.094 185.163 5.296 186.513 L 47.157 204.112 L 47.157 276.535 C 36.86 280.14 29.425 289.848 29.425 301.345 C 29.425 312.362 36.232 321.799 45.853 325.745 L 28.842 421.466 C 28.392 423.993 29.09 426.583 30.734 428.544 C 32.378 430.499 34.812 431.63 37.356 431.63 L 74.309 431.63 C 76.881 431.63 79.316 430.499 80.937 428.544 C 82.581 426.583 83.279 423.993 82.829 421.466 L 65.818 325.745 C 75.439 321.799 82.24 312.362 82.24 301.345 C 82.24 289.825 74.782 280.14 64.508 276.535 L 64.462 211.415 L 94.498 224.054 L 94.498 331.288 L 94.498 331.311 L 94.498 331.49 C 94.498 331.675 94.544 331.854 94.544 332.009 C 94.567 332.396 94.591 332.754 94.66 333.117 C 94.706 333.359 94.792 333.59 94.862 333.815 C 94.954 334.103 95.017 334.421 95.133 334.715 C 95.242 334.963 95.358 335.188 95.49 335.436 C 95.629 335.684 95.738 335.955 95.9 336.18 C 96.056 336.405 96.211 336.607 96.396 336.809 C 96.575 337.034 96.731 337.259 96.932 337.484 C 97.117 337.668 97.319 337.847 97.521 338.003 C 97.746 338.182 97.948 338.389 98.196 338.568 C 98.421 338.724 98.692 338.862 98.94 338.995 C 99.165 339.133 99.39 339.266 99.661 339.376 C 99.978 339.514 100.29 339.606 100.63 339.693 C 100.832 339.762 101.011 339.854 101.213 339.895 C 153.446 351.974 201.82 373.853 244.973 404.922 C 245.088 405.014 245.244 405.038 245.359 405.124 C 245.879 405.464 246.438 405.735 247.027 405.96 C 247.252 406.053 247.476 406.139 247.701 406.209 C 248.446 406.41 249.236 406.566 250.003 406.566 L 250.043 406.566 L 250.09 406.566 C 250.88 406.566 251.647 406.433 252.391 406.209 C 252.616 406.139 252.841 406.053 253.066 405.96 C 253.649 405.735 254.191 405.464 254.71 405.124 C 254.843 405.038 254.981 405.014 255.114 404.922 C 298.198 373.853 346.532 351.974 398.805 339.895 C 399.007 339.854 399.191 339.762 399.393 339.693 C 399.711 339.606 400.045 339.514 400.362 339.376 C 400.61 339.266 400.835 339.133 401.06 338.995 C 401.308 338.862 401.58 338.724 401.805 338.568 C 402.053 338.412 402.254 338.205 402.479 338.026 C 402.681 337.847 402.883 337.691 403.068 337.507 C 403.27 337.305 403.425 337.08 403.604 336.855 C 403.766 336.653 403.945 336.451 404.1 336.226 C 404.262 335.978 404.371 335.73 404.51 335.482 C 404.643 335.234 404.775 335.009 404.868 334.761 C 404.983 334.467 405.046 334.173 405.139 333.878 C 405.208 333.63 405.294 333.405 405.341 333.157 C 405.41 332.8 405.433 332.436 405.456 332.056 C 405.456 331.877 405.496 331.692 405.496 331.513 L 405.496 331.335 L 405.496 331.311 L 405.479 224.054 L 494.711 186.513 C 497.906 185.163 500 182.008 500 178.535 C 500 175.068 497.906 171.913 494.711 170.563 L 494.711 170.557 Z M 47.682 414.342 L 55.838 368.535 L 63.972 414.342 L 47.682 414.342 Z M 55.815 310.441 C 50.814 310.441 46.736 306.363 46.736 301.362 C 46.736 296.361 50.814 292.282 55.815 292.282 C 60.816 292.282 64.895 296.361 64.895 301.362 C 64.918 306.363 60.816 310.441 55.815 310.441 Z M 388.174 324.776 C 338.242 337.166 291.824 358.215 250.026 387.461 C 208.159 358.21 161.741 337.166 111.809 324.776 L 111.809 231.333 L 246.646 288.048 C 247.725 288.498 248.855 288.723 250.003 288.723 C 251.151 288.723 252.276 288.498 253.36 288.048 L 388.174 231.333 L 388.174 324.776 Z M 250.003 270.674 L 78.145 198.39 L 204.173 145.367 C 208.586 143.521 210.639 138.45 208.794 134.038 C 206.942 129.642 201.894 127.571 197.459 129.417 L 55.815 188.993 L 30.982 178.535 L 250.003 86.396 L 469.024 178.535 L 250.003 270.674 Z"/>
</svg>