<?xml version="1.0" encoding="utf-8"?>
<svg viewBox="0 0 500 500" xmlns="http://www.w3.org/2000/svg">
  <g transform="matrix(7.529531, 0, 0, 7.529531, 9.061569, 9.055008)" style="">
    <g>
      <path d="M 63.14 41.216 L 54.212 33.678 C 54.502 33.138 54.685 32.542 54.738 31.912 C 54.84 30.699 54.465 29.521 53.683 28.597 C 53.11 27.916 52.366 27.429 51.53 27.178 C 52.77 25.52 52.756 23.164 51.368 21.515 C 50.765 20.798 49.971 20.297 49.08 20.059 C 50.073 18.434 49.972 16.286 48.677 14.748 C 47.96 13.899 46.973 13.352 45.876 13.189 C 46.378 11.724 46.124 10.038 45.056 8.771 C 44.276 7.845 43.176 7.279 41.962 7.176 C 40.742 7.069 39.569 7.447 38.642 8.227 L 38.473 8.37 L 33.357 5.983 C 30.679 4.592 28.334 5.685 27.2 7.382 C 26.823 7.946 26.592 8.554 26.471 9.168 L 25.356 8.226 C 23.436 6.61 20.56 6.857 18.942 8.771 C 17.874 10.038 17.62 11.724 18.123 13.189 C 17.026 13.352 16.042 13.898 15.322 14.749 C 14.542 15.675 14.168 16.853 14.27 18.066 C 14.331 18.785 14.554 19.463 14.918 20.059 C 14.055 20.292 13.25 20.78 12.63 21.513 C 11.241 23.163 11.228 25.519 12.469 27.177 C 11.656 27.424 10.903 27.898 10.316 28.594 C 9.081 30.057 8.938 32.079 9.791 33.677 L 0.86 41.215 C 0.396 41.605 0.338 42.297 0.728 42.76 C 0.945 43.016 1.254 43.149 1.568 43.149 C 1.818 43.149 2.068 43.064 2.274 42.891 L 11.236 35.328 L 14.831 38.359 C 15.657 39.055 16.682 39.428 17.753 39.428 C 17.884 39.428 18.015 39.422 18.147 39.411 C 19.359 39.308 20.458 38.742 21.235 37.817 C 22.018 36.893 22.393 35.716 22.291 34.502 C 22.237 33.86 22.046 33.256 21.749 32.707 C 22.655 32.488 23.505 32 24.15 31.236 C 25.038 30.182 25.344 28.842 25.139 27.577 C 25.14 27.577 25.141 27.577 25.142 27.577 C 26.421 27.577 27.681 27.047 28.544 26.028 C 29.35 25.218 29.766 24.115 29.715 22.924 C 29.713 22.884 29.699 22.847 29.697 22.808 C 29.877 22.83 30.055 22.86 30.238 22.86 C 30.368 22.86 30.501 22.855 30.633 22.842 C 31.847 22.739 32.944 22.172 33.659 21.317 C 34.47 20.511 34.888 19.411 34.839 18.219 C 34.794 17.136 34.356 16.117 33.643 15.317 L 40.054 9.903 C 40.534 9.5 41.141 9.302 41.775 9.361 C 42.405 9.414 42.975 9.707 43.377 10.185 C 44.214 11.177 44.087 12.67 43.094 13.507 L 42.265 14.209 C 42.264 14.21 42.264 14.21 42.264 14.21 C 41.802 14.601 41.744 15.293 42.137 15.755 C 42.526 16.217 43.218 16.274 43.681 15.884 L 43.686 15.878 C 44.162 15.48 44.773 15.291 45.394 15.34 C 46.025 15.392 46.597 15.684 46.999 16.162 C 47.837 17.157 47.71 18.647 46.716 19.485 L 44.957 20.973 C 44.957 20.973 44.956 20.974 44.955 20.974 C 44.493 21.365 44.435 22.057 44.827 22.519 C 45.217 22.982 45.909 23.04 46.372 22.648 L 46.373 22.648 C 46.851 22.243 47.477 22.055 48.089 22.103 C 48.718 22.157 49.286 22.449 49.689 22.927 C 50.526 23.92 50.398 25.412 49.407 26.25 L 47.273 28.05 L 47.272 28.051 C 46.809 28.442 46.75 29.134 47.14 29.596 C 47.531 30.059 48.222 30.119 48.686 29.728 L 48.689 29.726 C 49.167 29.323 49.77 29.136 50.404 29.184 C 51.033 29.238 51.601 29.529 52.005 30.01 C 52.41 30.489 52.603 31.099 52.55 31.727 C 52.496 32.356 52.204 32.927 51.726 33.33 L 41.76 41.743 C 37.692 45.176 34.338 44.813 29.299 43.811 C 28.97 43.742 28.634 43.833 28.377 44.049 L 13.37 56.717 C 12.908 57.106 12.85 57.798 13.241 58.262 C 13.457 58.518 13.766 58.651 14.079 58.651 C 14.329 58.651 14.579 58.567 14.786 58.392 L 29.39 46.064 C 31.472 46.465 33.376 46.745 35.216 46.677 L 49.222 58.396 C 49.429 58.568 49.678 58.651 49.926 58.651 C 50.239 58.651 50.551 58.517 50.768 58.259 C 51.156 57.794 51.096 57.103 50.631 56.715 L 38.112 46.239 C 39.774 45.769 41.432 44.891 43.174 43.421 L 52.767 35.326 L 61.725 42.89 C 61.931 43.064 62.182 43.149 62.432 43.149 C 62.745 43.149 63.054 43.017 63.271 42.761 C 63.66 42.298 63.602 41.606 63.14 41.216 Z M 29.139 11.418 C 28.309 10.718 28.46 9.443 29.025 8.6 C 29.304 8.183 30.367 6.904 32.389 7.949 L 36.629 9.927 L 32 13.835 L 29.149 11.429 L 29.141 11.423 C 29.14 11.422 29.141 11.419 29.139 11.418 Z M 19.562 36.401 C 19.159 36.88 18.591 37.171 17.963 37.224 C 17.328 37.281 16.723 37.084 16.246 36.681 L 12.273 33.332 C 11.28 32.49 11.154 31 11.993 30.009 C 12.824 29.022 14.297 28.891 15.292 29.714 L 19.285 33.081 C 19.763 33.484 20.055 34.053 20.108 34.683 C 20.16 35.314 19.966 35.922 19.562 36.401 Z M 22.475 29.82 C 21.637 30.812 20.148 30.94 19.155 30.104 L 16.732 28.061 C 16.729 28.059 16.728 28.055 16.725 28.051 L 16.724 28.05 L 14.591 26.251 C 13.598 25.411 13.471 23.92 14.307 22.928 C 14.711 22.449 15.282 22.157 15.911 22.103 C 16.542 22.052 17.151 22.244 17.629 22.648 L 17.631 22.649 C 17.633 22.652 17.637 22.652 17.639 22.654 L 22.191 26.5 C 23.185 27.337 23.311 28.829 22.475 29.82 Z M 26.932 24.543 C 26.092 25.536 24.603 25.663 23.608 24.824 L 19.031 20.959 C 19.03 20.957 19.028 20.957 19.027 20.956 L 17.28 19.483 C 16.802 19.08 16.51 18.511 16.456 17.88 C 16.402 17.251 16.596 16.639 16.999 16.162 C 17.402 15.684 17.972 15.392 18.601 15.34 C 19.22 15.282 19.835 15.477 20.312 15.875 L 20.322 15.884 L 26.648 21.222 C 27.17 21.663 27.498 22.334 27.527 23.016 C 27.55 23.588 27.362 24.108 26.932 24.543 Z M 32.051 19.832 C 31.648 20.31 31.08 20.602 30.451 20.656 C 29.818 20.714 29.211 20.517 28.736 20.115 C 28.682 20.07 28.634 20.069 28.589 20.094 C 28.424 19.903 28.256 19.711 28.062 19.546 L 21.735 14.207 C 21.731 14.203 21.726 14.2 21.722 14.196 L 20.903 13.506 C 19.91 12.667 19.783 11.176 20.619 10.185 C 21.458 9.193 22.949 9.065 23.941 9.901 L 25.44 11.167 C 25.441 11.167 25.441 11.168 25.443 11.169 L 27.824 13.181 L 28.561 13.802 L 28.562 13.802 L 31.773 16.514 C 32.295 16.954 32.622 17.625 32.651 18.309 C 32.674 18.878 32.484 19.394 32.051 19.832 Z" style=""/>
    </g>
  </g>
</svg>