<?xml version="1.0" encoding="utf-8"?>
<svg viewBox="0 0 500 500" xmlns="http://www.w3.org/2000/svg">
  <defs/>
  <g transform="matrix(13.857914, 0, 0, 13.857914, -82.582527, -82.586708)">
    <path d="M6.46,42.04c0.05,0,0.11-0.01,0.16-0.03l25.46-8.49c0.13-0.04,0.21-0.14,0.27-0.25c0.1-0.06,0.19-0.14,0.28-0.22   c1.84-1.84-1.73-7.38-6.01-11.67c-4.28-4.28-9.83-7.85-11.67-6.01c-0.08,0.08-0.14,0.17-0.2,0.26c-0.13,0.06-0.23,0.15-0.28,0.28   L5.99,41.38c-0.06,0.18-0.01,0.38,0.12,0.51C6.21,41.99,6.33,42.04,6.46,42.04z M15.66,16.08c0.14-0.14,0.37-0.21,0.67-0.21   c1.61,0,5.34,1.99,9.58,6.22c5.04,5.04,6.9,9.37,6.01,10.25c-0.37,0.37-1.52,0.34-3.64-0.82c-2.03-1.11-4.38-2.96-6.61-5.19   c-2.23-2.23-4.08-4.58-5.19-6.61C15.31,17.6,15.29,16.45,15.66,16.08z M14.74,18.28c0.19,0.58,0.47,1.22,0.86,1.92   c1.16,2.11,3.06,4.54,5.36,6.84c2.3,2.3,4.73,4.2,6.84,5.36c0.7,0.38,1.33,0.67,1.91,0.86L7.25,40.75L14.74,18.28z"/>
    <path d="M24.85,7.6l0.08-0.08c0.89-0.85,1.91-0.58,2.52-0.1c0.68,0.54,1.09,1.54,0.47,2.58l-2.8,5.13   c-0.13,0.24-0.04,0.55,0.2,0.68c0.08,0.04,0.16,0.06,0.24,0.06c0.18,0,0.35-0.09,0.44-0.26l2.79-5.12   c0.92-1.53,0.27-3.07-0.71-3.86c-1-0.79-2.57-1.05-3.83,0.16l-0.09,0.09c-0.2,0.2-0.2,0.51,0,0.71S24.65,7.79,24.85,7.6z"/>
    <path d="M32.39,22.01c-0.24,0.13-0.33,0.44-0.2,0.68s0.44,0.33,0.68,0.2l5.15-2.81c1.02-0.61,2.02-0.2,2.57,0.48   c0.49,0.61,0.75,1.63-0.1,2.52l-0.08,0.08c-0.2,0.2-0.2,0.51,0,0.71c0.1,0.1,0.23,0.15,0.35,0.15s0.26-0.05,0.35-0.15l0.09-0.09   c1.21-1.26,0.96-2.84,0.16-3.83c-0.79-0.99-2.33-1.63-3.84-0.73L32.39,22.01z"/>
    <path d="M28.74,19.26c0.1,0.1,0.23,0.15,0.35,0.15s0.26-0.05,0.35-0.15l7.07-7.07c0.2-0.2,0.2-0.51,0-0.71s-0.51-0.2-0.71,0   l-7.07,7.07C28.54,18.75,28.54,19.07,28.74,19.26z"/>
    <path d="M19.19,8.09c0.07,0,0.13-0.01,0.19-0.04c0.06-0.02,0.12-0.06,0.17-0.1c0.09-0.1,0.14-0.23,0.14-0.36s-0.05-0.26-0.14-0.35   C19.41,7.1,19.18,7.06,19,7.13c-0.06,0.03-0.11,0.06-0.16,0.11c-0.09,0.09-0.15,0.22-0.15,0.35c0,0.14,0.06,0.26,0.15,0.36   C18.93,8.04,19.06,8.09,19.19,8.09z"/>
    <path d="M20.96,12.9c0.1,0.09,0.22,0.14,0.36,0.14c0.06,0,0.13-0.01,0.19-0.04c0.06-0.02,0.11-0.06,0.16-0.1   c0.04-0.05,0.08-0.11,0.11-0.17c0.02-0.06,0.04-0.12,0.04-0.19c0-0.06-0.02-0.13-0.04-0.19c-0.03-0.06-0.07-0.11-0.11-0.16   c-0.14-0.14-0.36-0.18-0.55-0.11c-0.06,0.03-0.11,0.06-0.16,0.11c-0.05,0.05-0.08,0.1-0.11,0.16c-0.02,0.06-0.03,0.13-0.03,0.19   c0,0.07,0.01,0.13,0.03,0.19C20.88,12.79,20.92,12.85,20.96,12.9z"/>
    <path d="M31.57,10.77c0.04,0.05,0.1,0.09,0.16,0.11c0.06,0.03,0.13,0.04,0.19,0.04c0.13,0,0.26-0.05,0.35-0.15   c0.05-0.04,0.09-0.1,0.11-0.16c0.03-0.06,0.04-0.12,0.04-0.19c0-0.13-0.05-0.26-0.15-0.35c-0.13-0.14-0.35-0.19-0.54-0.11   c-0.06,0.02-0.12,0.06-0.16,0.11c-0.09,0.09-0.15,0.22-0.15,0.35c0,0.07,0.01,0.13,0.04,0.19S31.52,10.73,31.57,10.77z"/>
    <path d="M37.23,16.43c0.09,0.09,0.22,0.15,0.35,0.15c0.06,0,0.13-0.02,0.19-0.04c0.06-0.03,0.12-0.06,0.16-0.11   c0.05-0.04,0.08-0.1,0.11-0.16c0.02-0.06,0.04-0.12,0.04-0.19c0-0.07-0.02-0.13-0.04-0.19c-0.03-0.06-0.06-0.12-0.11-0.17   c-0.04-0.04-0.1-0.08-0.16-0.1c-0.19-0.08-0.41-0.03-0.54,0.1c-0.05,0.05-0.09,0.11-0.11,0.17c-0.03,0.06-0.04,0.12-0.04,0.19   c0,0.07,0.01,0.13,0.04,0.19C37.14,16.33,37.18,16.39,37.23,16.43z"/>
    <path d="M36.35,25.52c-0.12-0.05-0.25-0.05-0.38,0c-0.06,0.02-0.11,0.06-0.16,0.1c-0.09,0.1-0.15,0.23-0.15,0.36   c0,0.06,0.02,0.13,0.04,0.19c0.03,0.06,0.07,0.12,0.11,0.16c0.05,0.05,0.1,0.08,0.16,0.11c0.06,0.03,0.13,0.04,0.19,0.04   c0.14,0,0.26-0.06,0.36-0.15c0.09-0.09,0.14-0.22,0.14-0.35c0-0.07-0.01-0.13-0.04-0.19c-0.02-0.06-0.06-0.12-0.1-0.17   C36.47,25.58,36.42,25.54,36.35,25.52z"/>
    <path d="M40.6,28.34c-0.19-0.07-0.41-0.03-0.55,0.11c-0.09,0.09-0.14,0.22-0.14,0.36c0,0.13,0.05,0.26,0.14,0.35   c0.1,0.09,0.22,0.15,0.36,0.15c0.06,0,0.13-0.02,0.19-0.04c0.06-0.03,0.11-0.07,0.16-0.11c0.09-0.09,0.15-0.22,0.15-0.35   c0-0.07-0.02-0.14-0.04-0.2c-0.03-0.06-0.06-0.11-0.11-0.16C40.71,28.41,40.66,28.37,40.6,28.34z"/>
  </g>
</svg>