<?xml version="1.0" encoding="utf-8"?>
<svg xmlns="http://www.w3.org/2000/svg" viewBox="0 0 500 500">
  <g transform="matrix(1.531224, 0, 0, 1.531224, -156.106888, -260.602386)" style="">
    <path d="M 378.272 220.346 C 316.089 158.163 214.579 158.163 152.396 220.346 C 107.355 265.387 93.574 332.612 116.43 391.77 C 117.103 393.787 118.783 395.132 120.8 395.468 C 122.817 395.804 124.834 395.132 126.514 393.787 L 249.872 270.429 C 250.881 269.421 251.553 267.74 251.553 266.059 L 251.553 256.984 C 256.595 255.976 260.964 253.287 264.998 249.589 C 275.754 238.833 275.754 221.355 264.998 210.599 C 254.242 199.843 236.763 199.843 226.007 210.599 C 215.251 221.355 215.251 238.833 226.007 249.589 C 229.705 253.287 234.41 255.976 239.452 256.984 L 239.452 263.707 L 124.834 378.325 C 108.027 325.89 121.808 268.412 161.135 229.086 C 218.613 171.608 312.055 171.608 369.869 229.086 C 427.346 286.563 427.346 380.006 369.869 437.819 C 330.542 477.146 273.065 490.927 220.629 474.121 L 267.687 427.063 L 291.216 427.063 C 292.224 432.105 294.913 436.475 298.61 440.508 C 309.366 451.264 326.845 451.264 337.601 440.508 C 348.357 429.752 348.357 412.274 337.601 401.518 C 326.845 390.762 309.366 390.762 298.61 401.518 C 294.913 405.215 292.224 409.921 291.216 414.963 L 265.334 414.963 C 263.653 414.963 262.309 415.635 260.964 416.644 L 204.831 472.104 C 203.487 473.449 202.815 475.802 203.151 477.818 C 203.487 479.163 203.823 480.171 204.831 480.843 C 205.504 481.516 206.176 481.852 206.848 482.188 C 266.006 505.381 333.231 491.263 377.936 446.559 C 440.455 384.039 440.455 282.53 378.272 220.346 Z M 234.747 240.85 C 228.696 234.8 228.696 225.052 234.747 219.002 C 240.797 212.952 250.544 212.952 256.595 219.002 C 262.645 225.052 262.645 234.8 256.595 240.85 C 250.544 246.9 240.797 246.9 234.747 240.85 Z M 306.677 409.921 C 312.728 403.871 322.475 403.871 328.526 409.921 C 334.576 415.971 334.576 425.719 328.526 431.769 C 322.475 437.819 312.728 437.819 306.677 431.769 C 300.963 425.719 300.963 415.971 306.677 409.921 Z" style=""/>
    <path d="M 332.559 273.79 C 343.315 263.034 343.315 245.556 332.559 234.8 C 321.803 224.044 304.325 224.044 293.569 234.8 C 284.157 244.211 283.149 258.329 289.871 269.085 L 140.968 417.988 C 138.615 420.341 138.615 424.374 140.968 426.727 C 143.32 429.08 147.354 429.08 149.707 426.727 L 298.61 277.824 C 309.03 284.546 323.484 283.202 332.559 273.79 Z M 302.308 243.539 C 308.358 237.489 318.106 237.489 324.156 243.539 C 330.206 249.589 330.206 259.337 324.156 265.387 C 318.106 271.437 308.358 271.437 302.308 265.387 C 296.258 259.337 296.258 249.589 302.308 243.539 Z" style=""/>
    <path d="M 299.283 350.427 C 300.291 355.469 302.98 359.838 306.677 363.872 C 317.433 374.628 334.912 374.628 345.668 363.872 C 356.424 353.116 356.424 335.637 345.668 324.881 C 334.912 314.125 317.433 314.125 306.677 324.881 C 302.98 328.579 300.291 333.284 299.283 338.326 L 285.502 338.326 C 283.821 338.326 282.476 338.999 281.132 340.007 L 172.227 449.248 C 169.874 451.601 169.874 455.634 172.227 457.987 C 174.58 460.34 178.614 460.34 180.967 457.987 L 288.191 350.763 L 299.283 350.763 L 299.283 350.427 Z M 315.417 333.621 C 321.467 327.57 331.215 327.57 337.265 333.621 C 343.315 339.671 343.315 349.418 337.265 355.469 C 331.215 361.519 321.467 361.519 315.417 355.469 C 309.366 349.418 309.366 339.671 315.417 333.621 Z" style=""/>
  </g>
</svg>