<?xml version="1.0" encoding="utf-8"?>
<svg viewBox="0 0 500 500" xmlns="http://www.w3.org/2000/svg">
  <defs/>
  <path d="M 250 0 C 388.076 0 500 111.924 500 250 C 500 388.076 388.076 500 250 500 C 111.924 500 0 388.076 0 250 C 0 111.924 111.924 0 250 0 Z M 336.239 351.902 C 340.837 337.793 362.38 197.185 365.043 169.478 C 365.848 161.087 363.196 155.511 358 153.022 C 351.717 150 342.413 151.511 331.619 155.402 C 316.815 160.739 127.554 241.098 116.619 245.75 C 106.25 250.152 96.446 254.956 96.446 261.913 C 96.446 266.804 99.348 269.554 107.348 272.413 C 115.674 275.38 136.641 281.739 149.022 285.152 C 160.946 288.446 174.522 285.587 182.13 280.859 C 190.196 275.848 283.272 213.565 289.956 208.109 C 296.63 202.652 301.956 209.641 296.5 215.109 C 291.043 220.565 227.152 282.576 218.728 291.163 C 208.5 301.587 215.761 312.391 222.619 316.717 C 230.456 321.652 286.815 359.456 295.304 365.522 C 303.793 371.587 312.402 374.337 320.283 374.337 C 328.163 374.337 332.315 363.956 336.239 351.902 Z"/>
</svg>