<?xml version="1.0" encoding="utf-8"?>
<svg viewBox="0 0 500 500" xmlns="http://www.w3.org/2000/svg">
  <defs/>
  <title>Ethereum icon</title>
  <path d="M 412.711 106.932 C 409.337 105.187 406.052 103.276 402.868 101.203 C 393.611 95.083 385.123 87.872 377.588 79.725 C 358.735 58.153 351.693 36.269 349.1 20.947 L 349.204 20.947 C 347.037 8.229 347.933 0 348.069 0 L 262.198 0 L 262.198 332.046 C 262.198 336.504 262.198 340.91 262.01 345.264 C 262.01 345.806 261.958 346.306 261.927 346.889 C 261.927 347.129 261.927 347.378 261.875 347.628 C 261.875 347.691 261.875 347.753 261.875 347.816 C 260.038 372.009 246.285 393.702 225.189 405.688 C 214.363 411.847 202.117 415.078 189.66 415.063 C 149.651 415.063 117.226 382.439 117.226 342.15 C 117.226 301.86 149.651 269.237 189.66 269.237 C 197.233 269.229 204.76 270.421 211.961 272.768 L 212.065 185.335 C 167.871 179.625 123.304 192.663 89.154 221.291 C 74.354 234.151 61.911 249.495 52.385 266.633 C 48.761 272.882 35.084 297.996 33.428 338.754 C 32.386 361.888 39.334 385.856 42.646 395.761 L 42.646 395.97 C 44.73 401.803 52.802 421.708 65.958 438.489 C 76.567 451.948 89.099 463.773 103.154 473.581 L 103.154 473.372 L 103.362 473.581 C 144.933 501.829 191.024 499.975 191.024 499.975 C 199.003 499.652 225.731 499.975 256.084 485.59 C 289.749 469.643 308.914 445.884 308.914 445.884 C 321.158 431.687 330.894 415.508 337.705 398.043 C 345.475 377.617 348.069 353.118 348.069 343.327 L 348.069 167.169 C 349.11 167.794 362.985 176.97 362.985 176.97 C 362.985 176.97 382.973 189.782 414.159 198.126 C 436.533 204.063 466.677 205.313 466.677 205.313 L 466.677 120.067 C 456.115 121.213 434.668 117.88 412.711 106.932 Z"/>
</svg>