<?xml version="1.0" encoding="utf-8"?>
<svg data-name="Layer 1" viewBox="0 0 100 100" x="0px" y="0px" xmlns="http://www.w3.org/2000/svg">
  <path d="M 8.816 40.994 C 8.38 42.974 6.419 44.227 4.435 43.791 C 2.457 43.355 1.202 41.394 1.639 39.411 C 6.484 17.462 26.071 1.019 49.467 1.019 C 76.499 1.019 98.448 22.968 98.448 50 C 98.448 77.032 76.499 98.981 49.467 98.981 C 26.073 98.981 6.484 82.538 1.639 60.589 C 1.202 58.609 2.452 56.649 4.435 56.208 C 6.415 55.772 8.375 57.02 8.816 59.004 C 12.935 77.661 29.585 91.634 49.472 91.634 C 72.45 91.634 91.106 72.978 91.106 50 C 91.106 27.022 72.45 8.366 49.472 8.366 C 29.585 8.366 12.935 22.339 8.816 40.996 L 8.816 40.994 Z M 45.799 25.511 C 45.799 23.482 47.442 21.837 49.472 21.837 C 51.502 21.837 53.146 23.482 53.146 25.511 L 53.146 45.099 C 53.146 45.774 53.692 46.325 54.372 46.325 L 71.513 46.325 C 73.543 46.325 75.186 47.97 75.186 49.999 C 75.186 52.029 73.543 53.672 71.513 53.672 L 54.372 53.672 C 49.638 53.672 45.799 49.834 45.799 45.099 L 45.799 25.511 Z" fill-rule="evenodd" style=""/>
</svg>