<?xml version="1.0" encoding="utf-8"?>
<svg viewBox="0 0 500 500" xmlns="http://www.w3.org/2000/svg">
  <defs/>
  <path d="M 108.084 500 C 102.725 500 97.57 497.748 93.444 493.482 L 5.987 398.16 C 2.066 393.886 0 388.268 0 382.196 C 0 376.124 2.271 370.505 5.987 366.232 L 93.444 270.91 C 101.484 262.14 114.48 262.14 122.527 270.91 C 130.573 279.679 130.573 293.837 122.527 302.607 L 70.342 359.714 L 314.359 359.714 C 352.721 359.714 389.025 343.297 416.668 313.621 C 443.684 283.945 458.746 244.155 458.746 202.335 C 458.746 115.559 393.975 44.963 314.359 44.963 L 25.584 44.963 C 14.238 44.963 4.957 34.848 4.957 22.482 C 4.957 10.122 14.238 0 25.584 0 L 314.359 0 C 416.668 0 500 90.826 500 202.335 C 500 256.291 480.812 307.096 445.75 345.542 C 410.476 383.764 363.863 404.67 314.359 404.67 L 70.342 404.67 L 122.527 461.777 C 130.573 470.547 130.573 484.705 122.527 493.475 C 118.606 497.748 113.451 499.993 108.091 499.993 L 108.084 500 Z"/>
</svg>