<svg version="1.1" x="0px" y="0px" viewBox="0 0 100 100" enable-background="new 0 0 100 100"
  xmlns="http://www.w3.org/2000/svg">
  <defs />
  <g transform="matrix(1.470567, 0, 0, 1.470567, -26.470198, -25.002998)">
    <path
      d="m74.281 49h-7.2812c-1.6602 0-3 1.3398-3 3s1.3398 3 3 3h7.2812c3.1484 0 5.7188 2.5703 5.7188 5.7188v12.559c0 3.1484-2.5703 5.7188-5.7188 5.7188l-44.562 0.003906c-3.1484 0-5.7188-2.5703-5.7188-5.7188v-12.562c0-3.1484 2.5703-5.7188 5.7188-5.7188h7.2812c1.6602 0 3-1.3398 3-3s-1.3398-3-3-3h-7.2812c-6.457 0-11.719 5.2617-11.719 11.719v12.559c0 6.4609 5.2617 11.723 11.719 11.723h44.559c6.4609 0 11.723-5.2617 11.723-11.719v-12.562c0-6.457-5.2617-11.719-11.719-11.719z" />
    <path
      d="m55 27.238 11.879 11.879c0.58203 0.59375 1.3516 0.88281 2.1211 0.88281s1.5391-0.28906 2.1211-0.87891c1.1719-1.1719 1.1719-3.0703 0-4.2383l-17-17c-1.1719-1.1719-3.0703-1.1719-4.2383 0l-17 17c-1.1719 1.1719-1.1719 3.0703 0 4.2383 1.1719 1.1719 3.0703 1.1719 4.2383 0l11.879-11.883v29.762c0 1.6602 1.3398 3 3 3s3-1.3398 3-3z" />
    <path
      d="m52 62.359c-1.6602 0-3 1.3398-3 3v4.6406c0 1.6602 1.3398 3 3 3s3-1.3398 3-3v-4.6406c0-1.6602-1.3398-3-3-3z" />
  </g>
</svg>