<?xml version="1.0" encoding="utf-8"?>
<svg xmlns="http://www.w3.org/2000/svg" viewBox="0 0 500 500">
  <path d="M 47.632 144.148 L 22.712 144.148 C 12.392 144.148 4.032 135.778 4.032 125.468 C 4.032 115.158 12.392 106.798 22.712 106.798 L 47.632 106.798 L 47.632 44.518 C 47.632 32.968 52.232 21.868 60.402 13.698 C 68.572 5.528 79.662 0.928 91.222 0.928 L 452.376 0.928 C 476.447 0.928 495.969 20.448 495.969 44.528 L 495.969 204.634 C 495.969 214.952 487.589 223.314 477.29 223.314 C 466.966 223.314 458.61 214.952 458.61 204.634 L 458.61 44.528 C 458.61 41.088 455.806 38.288 452.376 38.288 L 91.222 38.288 C 89.562 38.288 88.002 38.938 86.832 40.108 C 85.662 41.278 85.012 42.868 85.012 44.528 L 85.012 106.798 L 97.452 106.798 C 107.772 106.798 116.142 115.158 116.142 125.478 C 116.142 135.778 107.772 144.158 97.452 144.158 L 85.012 144.158 L 85.012 231.324 L 97.452 231.324 C 107.772 231.324 116.142 239.681 116.142 250.004 C 116.142 260.322 107.772 268.684 97.452 268.684 L 85.012 268.684 L 85.012 355.85 L 97.452 355.85 C 107.772 355.85 116.142 364.23 116.142 374.53 C 116.142 384.847 107.772 393.209 97.452 393.209 L 85.012 393.209 L 85.012 455.484 C 85.012 458.914 87.792 461.719 91.222 461.719 L 452.376 461.719 C 454.031 461.719 455.598 461.061 456.786 459.896 C 457.953 458.729 458.61 457.139 458.61 455.484 L 458.61 304.269 C 458.61 293.946 466.966 285.589 477.29 285.589 C 487.589 285.589 495.969 293.946 495.969 304.269 L 495.969 455.484 C 495.969 467.038 491.367 478.133 483.196 486.304 C 475.024 494.476 463.93 499.072 452.376 499.072 L 91.222 499.072 C 67.152 499.072 47.652 479.556 47.652 455.478 L 47.652 393.203 L 22.732 393.203 C 12.412 393.203 4.052 384.847 4.052 374.523 C 4.052 364.23 12.412 355.844 22.732 355.844 L 47.652 355.844 L 47.652 268.679 L 22.732 268.679 C 12.412 268.679 4.052 260.322 4.052 249.999 C 4.052 239.681 12.412 231.319 22.732 231.319 L 47.652 231.319 L 47.652 144.148 L 47.632 144.148 Z" fill-rule="evenodd" style=""/>
  <path d="M 280.643 269.416 C 239.288 269.416 205.698 295.91 205.698 337.266 C 205.698 344.574 199.781 350.49 192.473 350.49 C 185.182 350.49 179.251 344.574 179.251 337.266 C 179.251 297.383 202.343 269.911 235.864 253.364 C 220.145 240.425 210.094 220.82 210.094 198.884 C 210.094 159.957 241.7 128.351 280.627 128.351 C 319.552 128.351 351.141 159.957 351.141 198.884 C 351.141 220.82 341.108 240.425 325.371 253.364 C 358.911 269.915 381.984 304.441 381.984 344.345 C 381.984 351.653 376.07 357.569 368.762 357.569 C 361.458 357.569 355.539 351.653 355.539 344.345 C 355.539 302.99 321.969 269.416 280.609 269.416 L 280.643 269.416 Z M 280.643 242.969 C 304.975 242.969 324.711 223.215 324.711 198.884 C 324.711 174.552 304.958 154.8 280.643 154.8 C 256.312 154.8 236.559 174.552 236.559 198.884 C 236.559 223.215 256.312 242.969 280.643 242.969 Z" fill-rule="evenodd" style=""/>
</svg>