<?xml version="1.0" encoding="utf-8"?>
<svg xmlns="http://www.w3.org/2000/svg" viewBox="0 0 500 500">
  <path d="M 249.997 260.295 C 167.557 260.295 100.609 327.243 100.609 409.682 C 100.609 418.778 106.939 425.751 115.821 431.939 C 135.608 445.698 167.557 454.054 202.835 458.073 C 212.97 459.226 220.246 468.393 219.111 478.504 C 217.958 488.64 208.792 495.91 198.656 494.781 C 156.365 489.952 118.434 478.758 94.723 462.252 C 74.593 448.239 63.677 430.302 63.677 409.659 C 63.677 332.415 110.768 266.087 177.812 237.854 C 144.379 214.841 122.423 176.307 122.423 132.674 C 122.423 62.262 179.584 5.1 249.997 5.1 C 320.415 5.1 377.57 62.262 377.57 132.674 C 377.57 176.307 355.644 214.835 322.187 237.854 C 389.207 266.093 436.322 332.415 436.322 409.659 C 436.322 430.278 425.406 448.239 405.27 462.252 C 381.565 478.758 343.628 489.952 301.337 494.781 C 291.207 495.933 282.064 488.64 280.888 478.504 C 279.73 468.369 287.029 459.226 297.158 458.073 C 332.436 454.054 364.385 445.698 384.172 431.939 C 393.06 425.751 399.39 418.778 399.39 409.682 C 399.39 327.243 332.442 260.295 250.002 260.295 L 249.997 260.295 Z M 249.997 223.357 C 300.025 223.357 340.632 182.75 340.632 132.721 C 340.632 82.693 300.025 42.085 249.997 42.085 C 199.968 42.085 159.361 82.693 159.361 132.721 C 159.361 182.75 199.968 223.357 249.997 223.357 Z" fill-rule="evenodd" style=""/>
</svg>