<?xml version="1.0" encoding="utf-8"?>
<svg viewBox="0 0 500 500" xmlns="http://www.w3.org/2000/svg">
  <defs/>
  <path d="M 250 0.012 C 387.983 0.012 500 112.029 500 250.012 C 500 387.971 387.983 499.988 250 499.988 C 112.017 499.988 0 387.971 0 250.012 C 0 112.029 112.017 0.012 250 0.012 Z M 250 17.885 C 121.899 17.885 17.903 121.899 17.903 250.006 C 17.903 378.107 121.899 482.103 250 482.103 C 378.101 482.103 482.097 378.107 482.097 250.006 C 482.097 121.905 378.101 17.885 250 17.885 Z M 250 156.127 C 301.823 156.127 343.879 198.189 343.879 250.006 C 343.879 301.805 301.823 343.861 250 343.861 C 198.183 343.861 156.121 301.805 156.121 250.006 C 156.121 198.189 198.183 156.127 250 156.127 Z M 250 174.005 C 208.064 174.005 174.023 208.064 174.023 250.006 C 174.023 291.924 208.064 325.983 250 325.983 C 291.942 325.983 325.977 291.924 325.977 250.006 C 325.977 208.064 291.942 174.005 250 174.005 Z M 250 206.348 C 274.087 206.348 293.64 225.919 293.64 250.006 C 293.64 274.069 274.087 293.64 250 293.64 C 225.913 293.64 206.366 274.069 206.366 250.006 C 206.366 225.919 225.913 206.348 250 206.348 Z M 250 224.251 C 235.795 224.251 224.245 235.777 224.245 250.006 C 224.245 264.217 235.795 275.767 250 275.767 C 264.211 275.767 275.761 264.217 275.761 250.006 C 275.761 235.777 264.211 224.251 250 224.251 Z M 250 392.319 C 254.944 392.319 258.942 396.317 258.942 401.255 C 258.942 406.199 254.944 410.221 250 410.221 C 161.51 410.221 89.791 338.478 89.791 250.012 C 89.791 245.068 93.795 241.046 98.733 241.046 C 103.671 241.046 107.669 245.068 107.669 250.012 C 107.669 328.602 171.392 392.325 250.006 392.325 L 250 392.319 Z M 250 60.982 C 245.062 60.982 241.064 56.96 241.064 52.046 C 241.064 47.102 245.062 43.104 250 43.104 C 364.275 43.104 456.902 135.737 456.902 250.006 C 456.902 254.926 452.904 258.948 447.966 258.948 C 443.028 258.948 439.03 254.926 439.03 250.006 C 439.03 145.612 354.394 60.976 250 60.976 L 250 60.982 Z M 250 107.675 C 245.062 107.675 241.064 103.677 241.064 98.733 C 241.064 93.795 245.062 89.797 250 89.797 C 338.49 89.797 410.209 161.516 410.209 250.006 C 410.209 254.92 406.211 258.942 401.273 258.942 C 396.335 258.942 392.337 254.926 392.337 250.006 C 392.337 171.392 328.614 107.669 250 107.669 L 250 107.675 Z M 250 439.011 C 254.944 439.011 258.942 443.034 258.942 447.972 C 258.942 452.91 254.944 456.914 250 456.914 C 135.725 456.914 43.098 364.281 43.098 250.012 C 43.098 245.068 47.102 241.046 52.04 241.046 C 56.978 241.046 60.976 245.068 60.976 250.012 C 60.976 354.406 145.613 439.018 250.006 439.018 L 250 439.011 Z" fill-rule="evenodd"/>
</svg>