<?xml version="1.0" encoding="utf-8"?>
<svg viewBox="0 0 500 500" xmlns="http://www.w3.org/2000/svg">
  <defs/>
  <g transform="matrix(5, 0, 0, 5, -2462.350098, -0.000002)">
    <g transform="matrix(1, 0, 0, 1, 492.47003173828125, 0.0011873100441618378)">
      <path d="M 37.312 11.243 C 40.578 4.333 49.372 1.444 49.749 1.318 C 50 1.192 50.126 1.192 50.377 1.318 C 50.754 1.444 59.548 4.207 62.814 11.243 C 63.065 11.745 63.317 12.248 63.442 12.876 C 63.693 12.624 64.07 12.499 64.322 12.248 C 64.196 11.745 63.945 11.243 63.693 10.866 C 60.302 3.579 51.005 0.564 50.628 0.439 L 50 0.062 L 49.372 0.313 C 48.995 0.439 39.824 3.454 36.307 10.74 C 36.055 11.243 35.93 11.619 35.804 12.122 C 36.055 12.373 36.432 12.499 36.683 12.75 C 36.809 12.248 37.06 11.745 37.312 11.243 Z"/>
      <path d="M 36.181 15.137 C 35.93 14.886 35.553 14.635 35.176 14.383 C 35.05 14.76 35.05 15.263 35.05 15.64 C 35.427 15.891 35.804 16.268 36.055 16.645 C 36.181 16.142 36.181 15.64 36.181 15.137 Z"/>
      <path d="M 63.819 16.645 C 64.196 16.268 64.447 16.016 64.824 15.64 C 64.824 15.263 64.698 14.76 64.698 14.383 C 64.322 14.635 64.07 14.886 63.693 15.137 C 63.819 15.64 63.819 16.142 63.819 16.645 Z"/>
      <path d="M 14.322 64.886 C 14.699 65.011 15.201 65.011 15.578 65.011 C 15.829 64.634 16.206 64.258 16.583 64.006 C 16.583 64.006 16.457 64.006 16.457 64.006 C 16.08 64.006 15.578 64.006 15.201 63.881 C 14.824 64.132 14.573 64.509 14.322 64.886 Z"/>
      <path d="M 17.085 17.147 C 16.332 18.655 13.568 25.313 15.578 30.841 C 16.583 33.73 18.97 35.991 22.362 37.373 L 28.266 39.886 C 30.653 34.861 34.799 30.715 39.824 28.328 L 37.437 22.549 C 37.437 22.549 37.437 22.549 37.437 22.549 C 37.437 22.549 37.437 22.549 37.437 22.549 C 35.93 19.031 33.794 16.77 30.779 15.64 C 25.251 13.629 18.593 16.393 17.085 17.147 Z"/>
      <path d="M 58.166 27.449 L 60.553 21.67 C 60.553 21.67 60.553 21.67 60.553 21.67 C 60.553 21.67 60.553 21.67 60.553 21.67 C 60.553 21.67 60.553 21.67 60.553 21.67 C 62.06 18.152 62.06 14.886 60.678 12.122 C 58.166 6.72 51.508 4.082 49.874 3.454 C 48.367 3.956 41.583 6.72 39.07 12.122 C 37.814 14.886 37.814 18.152 39.196 21.544 L 41.583 27.449 C 44.095 26.569 46.859 26.067 49.749 26.067 C 52.889 26.067 55.653 26.569 58.166 27.449 Z"/>
      <path d="M 21.482 60.74 L 27.387 58.227 C 26.508 55.715 26.005 52.951 26.005 50.062 C 26.005 47.172 26.508 44.408 27.387 41.896 L 21.608 39.509 C 21.608 39.509 21.608 39.509 21.608 39.509 C 18.09 38.001 14.824 38.001 12.06 39.383 C 6.658 41.896 4.02 48.554 3.392 50.187 C 3.894 51.695 6.658 58.479 12.06 60.991 C 14.824 62.122 18.09 62.122 21.482 60.74 Z"/>
      <path d="M 83.417 63.881 C 83.794 64.258 84.045 64.509 84.422 64.886 C 84.799 64.886 85.301 64.76 85.678 64.76 C 85.427 64.383 85.176 64.132 84.925 63.755 C 84.422 63.881 84.045 63.881 83.417 63.881 C 83.543 63.881 83.543 63.881 83.417 63.881 Z"/>
      <path d="M 96.608 50.062 C 96.106 48.554 93.342 41.77 87.94 39.258 C 85.176 38.001 81.91 38.001 78.518 39.383 L 72.613 41.896 C 73.492 44.408 73.995 47.172 73.995 50.062 C 73.995 52.951 73.492 55.715 72.613 58.227 L 78.392 60.614 C 78.392 60.614 78.392 60.614 78.392 60.614 C 81.91 62.122 85.176 62.122 87.94 60.74 C 93.342 58.353 95.98 51.569 96.608 50.062 Z"/>
      <path d="M 84.422 35.112 C 84.171 35.489 83.794 35.866 83.417 36.117 C 83.92 36.117 84.422 36.117 84.799 36.243 C 85.05 35.991 85.301 35.614 85.553 35.238 C 85.301 35.238 84.799 35.238 84.422 35.112 Z"/>
      <path d="M 68.467 13.629 C 75.628 10.991 83.92 15.263 84.171 15.388 C 84.422 15.514 84.548 15.64 84.673 15.891 C 84.799 16.268 89.07 24.433 86.432 31.594 C 86.181 32.097 86.055 32.599 85.678 33.102 C 86.055 33.102 86.432 33.227 86.809 33.353 C 87.06 32.851 87.186 32.474 87.437 31.971 C 90.201 24.308 85.804 15.765 85.678 15.388 L 85.427 14.76 L 84.799 14.509 C 84.422 14.383 75.754 9.986 68.216 12.75 C 67.714 12.876 67.211 13.127 66.834 13.378 C 66.96 13.755 66.96 14.132 67.085 14.509 C 67.462 14.006 67.965 13.755 68.467 13.629 Z"/>
      <path d="M 39.447 78.454 C 37.94 81.971 37.94 85.237 39.322 88.001 C 41.834 93.403 48.492 96.042 50.126 96.67 C 51.633 96.167 58.417 93.403 60.93 88.001 C 62.186 85.237 62.186 81.971 60.804 78.579 L 58.291 72.675 C 55.779 73.554 53.015 74.057 50.126 74.057 C 47.236 74.057 44.472 73.554 41.96 72.675 L 39.447 78.454 C 39.447 78.328 39.447 78.454 39.447 78.454 Z"/>
      <path d="M 60.176 28.328 C 65.201 30.715 69.347 34.861 71.734 39.886 L 77.513 37.499 C 77.513 37.499 77.513 37.499 77.513 37.499 C 81.03 35.991 83.291 33.856 84.422 30.841 C 86.432 25.313 83.668 18.655 82.915 17.147 C 81.407 16.393 74.749 13.629 69.221 15.64 C 66.332 16.645 64.07 19.031 62.688 22.423 L 60.176 28.328 Z"/>
      <path d="M 15.578 35.112 C 15.201 35.112 14.699 35.238 14.322 35.238 C 14.573 35.614 14.824 35.866 15.075 36.243 C 15.578 36.243 15.955 36.117 16.457 36.117 C 16.206 35.866 15.829 35.489 15.578 35.112 Z"/>
      <path d="M 36.181 83.479 C 35.804 83.856 35.553 84.107 35.176 84.484 C 35.176 84.861 35.302 85.363 35.302 85.74 C 35.678 85.489 35.93 85.237 36.307 84.986 C 36.181 84.484 36.181 83.981 36.181 83.479 Z"/>
      <path d="M 39.824 71.795 C 34.799 69.408 30.653 65.263 28.266 60.238 L 22.487 62.624 C 22.487 62.624 22.487 62.624 22.487 62.624 C 18.97 64.132 16.709 66.268 15.578 69.283 C 13.568 74.936 16.332 81.469 17.085 82.976 C 18.593 83.73 25.251 86.494 30.779 84.484 C 33.668 83.479 35.93 81.092 37.312 77.7 L 39.824 71.795 Z"/>
      <path d="M 62.688 88.881 C 59.422 95.79 50.628 98.68 50.251 98.805 C 50.126 98.805 50 98.805 49.874 98.805 C 49.749 98.805 49.623 98.805 49.497 98.805 C 49.121 98.68 40.327 95.916 37.06 88.881 C 36.809 88.378 36.558 87.876 36.432 87.248 C 36.181 87.499 35.804 87.624 35.553 87.876 C 35.678 88.378 35.93 88.881 36.181 89.258 C 39.573 96.544 48.869 99.559 49.246 99.685 L 49.874 99.936 L 50.503 99.685 C 50.879 99.559 60.05 96.544 63.568 89.258 C 63.819 88.755 63.945 88.378 64.07 87.876 C 63.819 87.624 63.442 87.499 63.191 87.248 C 63.191 87.876 62.94 88.378 62.688 88.881 Z"/>
      <path d="M 63.819 84.986 C 64.07 85.237 64.447 85.489 64.824 85.74 C 64.95 85.363 64.95 84.861 64.95 84.484 C 64.573 84.232 64.196 83.856 63.945 83.479 C 63.819 83.981 63.819 84.484 63.819 84.986 Z"/>
      <path d="M 99.749 49.433 C 99.623 49.057 96.608 39.886 89.322 36.368 C 88.819 36.117 88.442 35.991 87.94 35.866 C 87.688 36.117 87.563 36.494 87.312 36.745 C 87.814 36.871 88.442 37.122 88.945 37.373 C 95.854 40.64 98.744 49.433 98.869 49.81 C 98.995 50.062 98.995 50.187 98.869 50.439 C 98.744 50.815 95.98 59.609 88.945 62.876 C 88.442 63.127 87.94 63.378 87.312 63.504 C 87.563 63.755 87.688 64.132 87.94 64.383 C 88.442 64.258 88.945 64.006 89.322 63.755 C 96.608 60.363 99.623 51.067 99.749 50.69 L 100 50.062 L 99.749 49.433 Z"/>
      <path d="M 82.915 82.976 C 83.668 81.469 86.432 74.81 84.422 69.283 C 83.417 66.393 81.03 64.132 77.638 62.75 L 71.734 60.238 C 69.347 65.263 65.201 69.408 60.176 71.795 L 62.563 77.574 C 62.563 77.574 62.563 77.574 62.563 77.574 C 64.07 81.092 66.206 83.353 69.221 84.484 C 74.749 86.494 81.407 83.73 82.915 82.976 Z"/>
      <path d="M 13.191 33.353 C 13.568 33.227 13.945 33.227 14.322 33.102 C 14.07 32.599 13.819 32.097 13.568 31.594 C 10.93 24.433 15.201 16.142 15.327 15.891 C 15.452 15.64 15.578 15.514 15.829 15.388 C 16.206 15.263 24.372 10.991 31.533 13.629 C 32.035 13.881 32.538 14.006 33.04 14.383 C 33.04 14.006 33.166 13.629 33.291 13.253 C 32.789 13.001 32.412 12.876 31.91 12.624 C 24.246 9.861 15.704 14.258 15.327 14.383 L 14.699 14.635 L 14.447 15.263 C 14.322 15.64 9.925 24.308 12.688 31.846 C 12.688 32.474 12.94 32.851 13.191 33.353 Z"/>
      <path d="M 31.533 86.494 C 29.774 87.122 28.015 87.373 26.382 87.373 C 20.854 87.373 16.08 84.861 15.829 84.735 C 15.578 84.609 15.452 84.484 15.327 84.232 C 15.201 83.856 10.93 75.69 13.568 68.529 C 13.819 68.026 13.945 67.524 14.322 67.021 C 13.945 67.021 13.568 66.896 13.191 66.77 C 12.94 67.273 12.814 67.65 12.563 68.152 C 9.799 75.815 14.196 84.358 14.322 84.735 L 14.573 85.363 L 15.201 85.614 C 15.578 85.74 24.246 90.263 31.784 87.373 C 32.286 87.248 32.789 86.996 33.166 86.745 C 33.04 86.368 33.04 85.991 32.915 85.614 C 32.538 86.117 32.035 86.368 31.533 86.494 Z"/>
      <path d="M 12.814 63.378 C 12.312 63.253 11.683 63.001 11.181 62.75 C 4.271 59.484 1.382 50.69 1.256 50.313 C 1.131 50.062 1.131 49.936 1.256 49.685 C 1.382 49.308 4.146 40.514 11.181 37.248 C 11.683 36.996 12.186 36.745 12.814 36.619 C 12.563 36.368 12.437 35.991 12.186 35.74 C 11.683 35.866 11.181 36.117 10.804 36.368 C 3.518 39.76 0.503 49.057 0.377 49.433 L 0 50.062 L 0.251 50.69 C 0.377 51.067 3.392 60.238 10.678 63.755 C 11.181 64.006 11.558 64.132 12.06 64.258 C 12.312 64.006 12.563 63.629 12.814 63.378 Z"/>
      <path d="M 86.809 66.77 C 86.432 66.896 86.055 66.896 85.678 67.021 C 85.93 67.524 86.181 68.026 86.432 68.529 C 89.07 75.69 84.799 83.981 84.673 84.232 C 84.548 84.484 84.422 84.609 84.171 84.735 C 83.92 84.861 79.02 87.373 73.618 87.373 C 71.859 87.373 70.226 87.122 68.467 86.494 C 67.965 86.243 67.462 86.117 66.96 85.74 C 66.96 86.117 66.834 86.494 66.709 86.871 C 67.211 87.122 67.588 87.248 68.09 87.499 C 75.754 90.263 84.296 85.866 84.673 85.74 L 85.301 85.489 L 85.553 84.861 C 85.678 84.484 90.075 75.815 87.312 68.278 C 87.312 67.65 87.06 67.273 86.809 66.77 Z"/>
    </g>
  </g>
</svg>