<?xml version="1.0" encoding="utf-8"?>
<svg viewBox="0 0 500 500" xmlns="http://www.w3.org/2000/svg">
  <defs/>
  <title>Ethereum icon</title>
  <g data-name="Layer 4" transform="matrix(8.620453, 0, 0, 8.620453, -25.829645, -25.85445)">
    <path d="M60.92,12.22a1,1,0,0,0-.21-.33l-8.6-8.6a1,1,0,0,0-1.41,0l-8.94,8.94h0L3.29,50.7a1,1,0,0,0,0,1.41l8.6,8.6a1,1,0,0,0,1.41,0L60.71,13.3a1,1,0,0,0,.21-.32A1,1,0,0,0,60.92,12.22ZM12.6,58.59,5.41,51.4l37.06-37,7.18,7.18ZM51.06,20.12l-7.18-7.18L51.4,5.41l7.19,7.19Z"/>
    <path d="M6.5,22.56a1,1,0,0,0,.7.29,1,1,0,0,0,.71-.29L12.48,18l4.57,4.57a1,1,0,0,0,1.42,0,1,1,0,0,0,0-1.42L13.9,16.57,18.47,12a1,1,0,0,0-1.42-1.41l-4.57,4.57L7.91,10.59A1,1,0,0,0,6.5,12l4.57,4.57L6.5,21.14A1,1,0,0,0,6.5,22.56Z"/>
    <path d="M29.9,11.27a1,1,0,0,0,1.41,0l2.1-2.1,2.1,2.1a1,1,0,1,0,1.42-1.41l-2.1-2.1,2.1-2.1a1,1,0,1,0-1.42-1.42l-2.1,2.11-2.1-2.11a1,1,0,0,0-1.41,0,1,1,0,0,0,0,1.42L32,7.76l-2.1,2.1A1,1,0,0,0,29.9,11.27Z"/>
    <path d="M57.56,28.82a1,1,0,0,0-1.42,0L54,30.92l-2.1-2.1a1,1,0,1,0-1.41,1.41l2.1,2.1-2.1,2.11a1,1,0,0,0,.7,1.7,1,1,0,0,0,.71-.29l2.1-2.1,2.1,2.1a1,1,0,0,0,1.42,0,1,1,0,0,0,0-1.41l-2.1-2.11,2.1-2.1A1,1,0,0,0,57.56,28.82Z"/>
    <path d="M54.85,42.43a1,1,0,0,0-1.42,0L48.6,47.26l-4.83-4.83a1,1,0,0,0-1.41,0,1,1,0,0,0,0,1.41l4.83,4.84-4.83,4.83a1,1,0,0,0,.7,1.71,1,1,0,0,0,.71-.3l4.83-4.83,4.83,4.83a1,1,0,0,0,.71.3,1,1,0,0,0,.71-1.71L50,48.68l4.83-4.84A1,1,0,0,0,54.85,42.43Z"/>
  </g>
</svg>