<?xml version="1.0" encoding="utf-8"?>
<svg viewBox="0 0 500 500" xmlns="http://www.w3.org/2000/svg">
  <defs/>
  <title>Ethereum icon</title>
  <path d="M 115.601 30.824 L 384.399 30.824 C 416.213 30.824 445.108 43.84 466.058 64.771 C 487.009 85.716 500 114.617 500 146.43 C 500 178.239 487.009 207.139 466.058 228.09 C 445.113 249.041 416.213 262.032 384.399 262.032 L 314.179 262.032 L 314.179 372.352 L 360.739 372.352 C 374.056 372.352 386.174 377.791 394.94 386.562 C 403.691 395.333 409.151 407.452 409.151 420.764 C 409.151 434.076 403.711 446.2 394.94 454.966 C 386.169 463.737 374.051 469.176 360.739 469.176 L 139.261 469.176 C 125.949 469.176 113.831 463.737 105.06 454.966 C 96.288 446.215 90.849 434.097 90.849 420.764 C 90.849 407.452 96.288 395.333 105.06 386.562 C 113.831 377.811 125.929 372.352 139.261 372.352 L 185.821 372.352 L 185.821 262.032 L 115.601 262.032 C 83.793 262.032 54.892 249.015 33.942 228.09 C 12.996 207.139 0 178.239 0 146.43 C 0 114.617 12.996 85.721 33.942 64.771 C 54.892 43.82 83.793 30.824 115.601 30.824 Z M 290.738 372.352 L 290.738 262.032 L 209.257 262.032 L 209.257 372.352 L 290.738 372.352 Z M 360.739 395.793 L 139.221 395.793 C 132.363 395.793 126.128 398.604 121.602 403.145 C 117.076 407.671 114.249 413.932 114.249 420.769 C 114.249 427.622 117.055 433.862 121.602 438.408 C 126.128 442.929 132.383 445.761 139.221 445.761 L 360.698 445.761 C 367.555 445.761 373.796 442.949 378.317 438.408 C 382.842 433.882 385.674 427.622 385.674 420.769 C 385.674 413.911 382.863 407.671 378.317 403.145 C 373.796 398.624 367.535 395.793 360.698 395.793 L 360.739 395.793 Z M 249.98 98.039 C 263.333 98.039 275.451 103.463 284.202 112.208 C 292.952 120.959 298.371 133.077 298.371 146.43 C 298.371 159.789 292.952 171.907 284.202 180.653 C 275.451 189.403 263.333 194.827 249.98 194.827 C 236.626 194.827 224.508 189.403 215.757 180.653 C 207.007 171.907 201.588 159.789 201.588 146.43 C 201.588 133.077 207.007 120.979 215.757 112.208 C 224.508 103.463 236.626 98.039 249.98 98.039 Z M 267.639 128.791 C 263.113 124.27 256.878 121.479 249.98 121.479 C 243.086 121.479 236.846 124.27 232.32 128.791 C 227.799 133.317 225.008 139.557 225.008 146.451 C 225.008 153.349 227.814 159.584 232.32 164.11 C 236.846 168.636 243.086 171.427 249.98 171.427 C 256.878 171.427 263.113 168.616 267.639 164.11 C 272.165 159.584 274.956 153.349 274.956 146.451 C 274.956 139.557 272.145 133.317 267.639 128.791 Z M 319.781 54.27 C 324.006 57.479 327.991 60.969 331.741 64.694 C 352.667 85.624 365.606 114.525 365.606 146.435 C 365.606 178.351 352.667 207.267 331.741 228.177 C 328.011 231.907 323.986 235.392 319.781 238.601 L 384.399 238.601 C 409.732 238.601 432.775 228.218 449.496 211.517 C 466.217 194.791 476.585 171.754 476.585 146.42 C 476.585 121.066 466.196 98.023 449.496 81.323 C 432.795 64.597 409.753 54.234 384.399 54.234 L 319.781 54.234 L 319.781 54.27 Z M 180.203 238.596 C 175.979 235.387 171.994 231.902 168.243 228.172 C 147.318 207.247 134.383 178.346 134.383 146.43 C 134.383 114.52 147.318 85.619 168.243 64.689 C 171.973 60.964 175.999 57.474 180.203 54.265 L 115.586 54.265 C 90.252 54.265 67.215 64.653 50.489 81.354 C 33.788 98.054 23.4 121.117 23.4 146.451 C 23.4 171.784 33.788 194.822 50.489 211.548 C 67.21 228.248 90.252 238.637 115.586 238.637 L 180.203 238.637 L 180.203 238.596 Z M 315.179 81.257 C 298.514 64.597 275.456 54.27 250.02 54.27 C 224.569 54.27 201.527 64.597 184.862 81.257 C 168.182 97.921 157.875 120.984 157.875 146.415 C 157.875 171.871 168.197 194.909 184.862 211.589 C 201.527 228.253 224.585 238.576 250.02 238.576 C 275.471 238.576 298.514 228.253 315.179 211.589 C 331.864 194.909 342.166 171.866 342.166 146.415 C 342.166 120.969 331.843 97.921 315.179 81.257 Z"/>
</svg>