<?xml version="1.0" encoding="utf-8"?>
<svg viewBox="0 0 500 500" xmlns="http://www.w3.org/2000/svg">
  <path d="M 187.895 34.425 C 189.864 38.361 191.856 41.543 193.936 45.387 C 197.574 52.118 197.187 49.276 194.1 56.236 C 191.211 62.756 192.518 63.835 189.519 64.631 C 185.997 65.598 175.399 68.182 173.548 69.142 L 173.595 91.158 C 176.249 92.577 186.912 94.703 190.046 95.804 C 192.178 96.56 191.856 99.097 194.076 104.065 C 197.211 111.112 197.62 108.254 193.754 115.096 C 192.406 117.475 188.517 123.585 187.895 125.83 L 203.297 141.273 C 205.108 140.751 209.408 138.074 211.306 136.972 C 221.605 130.979 217.305 131.775 226.111 135.531 C 227.81 136.24 231.653 137.019 232.842 138.208 C 234.26 139.924 236.345 152.603 238.015 155.625 L 243.434 155.602 L 243.434 196.085 L 175.446 196.085 C 175.288 196.061 175.107 196.061 174.925 196.061 C 171.832 196.061 169.336 198.557 169.336 201.644 L 169.336 309.159 L 154.713 309.159 L 154.713 323.783 L 108.694 323.783 L 108.694 309.159 L 68.277 309.159 L 68.277 349.577 L 108.694 349.577 L 108.671 334.971 L 154.69 334.971 L 154.69 349.6 L 169.318 349.6 L 169.318 401.477 L 88.465 401.477 C 85.372 401.477 82.876 403.973 82.876 407.06 L 82.876 457.016 L 68.253 457.016 L 68.253 497.434 L 108.671 497.434 L 108.671 457.016 L 94.048 457.016 L 94.048 412.644 L 169.342 412.644 L 169.342 457.086 L 154.719 457.086 L 154.719 497.505 L 195.131 497.505 L 195.131 457.086 L 180.508 457.086 L 180.508 412.644 L 255.801 412.644 L 255.801 457.086 L 241.179 457.086 L 241.179 497.505 L 281.591 497.505 L 281.591 457.086 L 266.968 457.086 L 266.968 407.06 C 266.968 403.973 264.472 401.477 261.384 401.477 L 180.508 401.501 L 180.508 349.618 L 195.131 349.618 L 195.131 309.207 L 180.508 309.207 L 180.508 207.233 L 342.003 207.303 L 342.003 253.644 L 261.104 253.644 C 258.016 253.644 255.521 256.14 255.521 259.227 L 255.521 309.183 L 240.897 309.183 L 240.897 349.6 L 281.309 349.6 L 281.309 309.183 L 266.687 309.183 L 266.687 264.81 L 341.98 264.81 L 341.98 309.253 L 327.357 309.253 L 327.357 349.665 L 367.769 349.665 L 367.769 309.253 L 353.146 309.253 L 353.146 264.81 L 428.44 264.81 L 428.44 309.253 L 413.817 309.253 L 413.817 349.665 L 454.235 349.665 L 454.235 309.253 L 439.606 309.253 L 439.606 259.227 C 439.606 256.14 437.116 253.644 434.023 253.644 L 353.17 253.644 L 353.17 201.738 C 353.17 198.65 350.68 196.155 347.587 196.155 C 347.405 196.155 347.246 196.155 347.06 196.179 L 254.653 196.131 L 254.653 155.625 L 254.63 155.625 L 260.054 155.602 C 261.748 152.561 263.74 140.042 265.205 138.238 C 266.464 137.002 270.377 136.245 272.205 135.443 C 280.425 131.852 276.898 131.096 286.787 136.978 C 288.685 138.12 292.897 140.775 294.749 141.301 L 310.174 125.9 C 309.489 123.474 305.575 117.592 304.157 114.939 C 300.425 108.096 300.883 111.142 303.993 104.088 C 306.876 97.568 305.575 96.49 308.593 95.646 C 312.096 94.686 322.576 92.166 324.521 91.158 L 324.475 69.149 C 322.466 68.07 314.27 66.219 311.41 65.416 C 310.427 65.118 308.962 64.819 307.977 64.503 C 306.624 64.04 306.648 63.723 306.237 62.346 C 301.844 47.976 299.237 54.039 304.292 45.21 L 310.15 34.477 L 294.749 19.029 C 293.008 19.556 285.756 23.903 283.788 25.022 C 277.314 28.73 279.763 28.25 272.961 25.21 C 266.417 22.28 265.386 23.675 264.543 20.581 C 263.652 17.289 260.969 6.351 260.054 4.704 L 238.039 4.704 C 236.369 7.699 234.336 20.289 232.895 22.069 C 231.794 23.171 226.714 24.494 224.88 25.321 C 219.092 27.904 220.194 28.367 217.534 26.832 C 215.202 25.479 205.155 19.533 203.327 19.029 L 187.895 34.425 Z M 249.047 46.37 C 267.724 46.37 282.851 61.497 282.851 80.173 C 282.851 98.845 267.724 113.972 249.047 113.972 C 230.375 113.972 215.249 98.845 215.249 80.173 C 215.249 61.52 230.375 46.37 249.047 46.37 Z" fill-rule="evenodd" style=""/>
</svg>