<?xml version="1.0" encoding="utf-8"?>
<svg viewBox="0 0 500 500" xmlns="http://www.w3.org/2000/svg">
  <defs/>
  <title>Ethereum icon</title>
  <path d="M 311.156 483.871 C 315.607 483.871 319.22 487.479 319.22 491.936 C 319.22 496.387 315.607 500 311.156 500 L 55.527 500 C 40.258 500 26.355 493.737 16.296 483.656 C 6.236 473.597 0 459.694 0 444.446 L 0 55.565 C 0 40.28 6.258 26.376 16.296 16.339 L 16.779 15.893 C 26.817 6.086 40.532 0.016 55.548 0.016 L 78.226 0.016 C 82.677 0.016 86.29 3.629 86.29 8.081 C 86.29 12.532 82.677 16.145 78.226 16.145 L 55.548 16.145 C 44.898 16.145 35.172 20.43 27.909 27.532 C 20.581 34.882 16.129 44.731 16.129 55.565 L 16.129 444.446 C 16.129 455.307 20.559 465.177 27.72 472.317 C 34.839 479.436 44.71 483.866 55.548 483.866 L 311.177 483.866 L 311.156 483.871 Z M 256.613 201.677 L 358.575 77.688 C 360.021 75.586 362.457 74.199 365.21 74.199 L 410.634 74.199 C 412.441 74.242 414.247 74.828 415.742 76.07 C 419.161 78.882 419.667 83.968 416.833 87.387 L 287.193 245.022 L 405.828 413.075 C 408.387 416.71 407.505 421.731 403.871 424.29 C 402.468 425.28 400.849 425.764 399.253 425.764 L 337.511 425.78 C 334.613 425.78 332.07 424.247 330.645 421.962 L 243.387 298.328 L 141.425 422.301 C 139.973 424.398 137.538 425.785 134.785 425.785 L 89.36 425.785 C 87.554 425.742 85.747 425.156 84.258 423.914 C 80.833 421.102 80.328 416.022 83.167 412.597 L 212.806 254.984 L 94.172 86.909 C 91.607 83.274 92.489 78.253 96.124 75.694 C 97.532 74.704 99.15 74.22 100.742 74.22 L 162.484 74.22 C 165.382 74.22 167.925 75.758 169.355 78.043 L 256.634 201.699 L 256.613 201.677 Z M 188.823 16.129 C 184.371 16.129 180.758 12.516 180.758 8.065 C 180.758 3.608 184.371 0 188.823 0 L 444.43 0 C 459.715 0 473.618 6.258 483.677 16.296 L 484.124 16.78 C 493.93 26.817 500 40.532 500 55.543 L 500 444.425 C 500 459.672 493.742 473.575 483.661 483.677 C 473.581 493.758 459.677 499.995 444.43 499.995 L 421.769 499.995 C 417.317 499.995 413.704 496.387 413.704 491.93 C 413.704 487.479 417.317 483.866 421.769 483.866 L 444.43 483.866 C 455.285 483.866 465.156 479.436 472.274 472.317 C 479.435 465.177 483.871 455.307 483.871 444.446 L 483.871 55.565 C 483.871 44.898 479.586 35.194 472.484 27.93 C 465.134 20.602 455.285 16.145 444.452 16.145 L 188.844 16.145 L 188.823 16.129 Z"/>
</svg>